<svg xmlns="http://www.w3.org/2000/svg" width="69" height="56" viewBox="0 0 69 56">
  <g id="Group_89441" data-name="Group 89441" transform="translate(-338.442 -3104)">
    <path id="heart-attack" d="M60.86,14.5A19.025,19.025,0,0,0,54.546,4.372,16.512,16.512,0,0,0,44.108.5a15.3,15.3,0,0,0-8.053,2.3,19.336,19.336,0,0,0-5.308,4.886C27.213,3.029,22.549.5,17.39.5A16.5,16.5,0,0,0,6.955,4.372,19.029,19.029,0,0,0,.643,14.5c-1.113,4.415-1.329,11.47,3.97,20.011,4.9,7.905,13.407,15.23,25.271,21.77a1.783,1.783,0,0,0,1.725,0c11.867-6.541,20.372-13.866,25.279-21.77,5.3-8.541,5.087-15.6,3.973-20.011ZM30.746,52.6C16.683,44.69,9.725,36.845,6.417,30.321,1.461,21.1,9.67,38.858,4.879,26.68A20.068,20.068,0,0,1,4.134,15.4C5.806,8.77,11.257,4.142,17.39,4.142c4.639,0,8.835,2.739,11.814,7.712a1.8,1.8,0,0,0,1.54.878h0a1.8,1.8,0,0,0,1.541-.877c2.982-4.973,7.18-7.713,11.821-7.713C50.244,4.142,55.7,8.77,57.369,15.4c1.159,4.6,2.62,20.759-26.623,37.2Zm0,0" transform="translate(345.939 3103.5)" fill="#3b3659"/>
    <path id="lifeline" d="M54.858,148.412a1.286,1.286,0,0,1-1.286,1.286H41.448l-2.539,3.2a1.286,1.286,0,0,1-2.115-.147l-2.451-4.161L31.047,163.1a1.286,1.286,0,0,1-1.254,1h-.026a1.286,1.286,0,0,1-1.239-1.051l-3.435-18.488-4.83,10.588a1.286,1.286,0,0,1-2.316.048L15.3,149.975H1.286a1.286,1.286,0,0,1,0-2.571h14.8a1.286,1.286,0,0,1,1.146.7l1.8,3.547,5.412-11.864a1.286,1.286,0,0,1,2.434.3l3.041,16.366,2.632-11.6a1.286,1.286,0,0,1,2.362-.368l3.146,5.339,1.761-2.218a1.286,1.286,0,0,1,1.007-.486H53.572a1.286,1.286,0,0,1,1.286,1.286Z" transform="translate(338.442 2980.088)" fill="#845fff"/>
  </g>
</svg>
