<svg xmlns="http://www.w3.org/2000/svg" width="54.752" height="54.856" viewBox="0 0 54.752 54.856">
  <g id="emergency" transform="translate(-0.866 -2.764)">
    <path id="Path_101459" data-name="Path 101459" d="M46.988,37.133a4.58,4.58,0,0,0-6.464,0L35.57,42.087a.963.963,0,0,1-1.186.158,54.987,54.987,0,0,1-10.223-8.063,55.171,55.171,0,0,1-7.72-9.652.973.973,0,0,1,.149-1.194l5.059-5.059a4.564,4.564,0,0,0,0-6.455L14.922,5.067a4.624,4.624,0,0,0-5.8-.553,6.134,6.134,0,0,0-.668.562L7.017,6.533c-.009.009-.035.018-.044.026a.184.184,0,0,0-.035.053L3.618,9.968A7.8,7.8,0,0,0,1.37,15.343c-.149,8.651,5.182,19.445,13.9,28.176,8.616,8.616,19.243,13.921,27.842,13.921h.351a7.759,7.759,0,0,0,5.366-2.248c1.959-1.941,4.883-4.857,4.883-4.857a4.588,4.588,0,0,0,0-6.464ZM9.547,6.156A3.811,3.811,0,0,1,10,5.778a3.065,3.065,0,0,1,3.829.378l6.737,6.737a3.043,3.043,0,0,1,0,4.286l-.949.949L8.607,7.113ZM47.752,54.093a6.223,6.223,0,0,1-4.312,1.8h-.334c-8.2,0-18.418-5.138-26.753-13.464C7.922,33.989,2.766,23.616,2.907,15.369a6.277,6.277,0,0,1,1.8-4.321L7.526,8.2,18.54,19.216l-3.021,3.021a2.492,2.492,0,0,0-.369,3.1,56.741,56.741,0,0,0,7.94,9.925,56.444,56.444,0,0,0,10.5,8.291,2.5,2.5,0,0,0,3.074-.386l2.916-2.916L50.6,51.265c-.913.913-1.976,1.967-2.846,2.828Zm5.533-5.814a3.171,3.171,0,0,1-.65.966s-.378.378-.957.949L40.665,39.171l.949-.949a3.11,3.11,0,0,1,4.286,0l6.737,6.737a3.039,3.039,0,0,1,.65,3.32Z" transform="translate(0 -0.319)" fill="#3b3659" stroke="#3b3659" stroke-width="1"/>
    <path id="Path_101460" data-name="Path 101460" d="M32.07,31.24v2.125a.774.774,0,0,0,.773.773H57.277a.774.774,0,0,0,.773-.773V31.24a2.892,2.892,0,0,0-2.89-2.89h-.07L53.527,16.274a5.03,5.03,0,0,0-4.98-4.374H41.564a5.036,5.036,0,0,0-4.98,4.374L35.021,28.35h-.07A2.9,2.9,0,0,0,32.07,31.24Zm24.434,0V32.6h-22.9V31.24a1.353,1.353,0,0,1,1.353-1.353H55.152A1.353,1.353,0,0,1,56.5,31.24ZM45.06,24.46a1.625,1.625,0,1,1,1.625-1.625A1.627,1.627,0,0,1,45.06,24.46Zm-6.939-7.992a3.479,3.479,0,0,1,3.452-3.03h6.982a3.486,3.486,0,0,1,3.452,3.03L53.544,28.35h-7.7V25.891a3.162,3.162,0,1,0-1.528,0V28.35h-7.7Z" transform="translate(-3.737 -4.312)" fill="#8450ff" stroke="#8450ff" stroke-width="1"/>
  </g>
</svg>
