<svg xmlns="http://www.w3.org/2000/svg" width="36.037" height="56" viewBox="0 0 36.037 56">
  <g id="Group_89742" data-name="Group 89742" transform="translate(-928.484 -3283)">
    <g id="femenine" transform="translate(928.484 3283)">
      <g id="Group_89442" data-name="Group 89442" transform="translate(0 0)">
        <path id="Path_100976" data-name="Path 100976" d="M116.765,30.756A18.05,18.05,0,1,0,101.9,35.9v6.033H97.656a2.12,2.12,0,1,0,0,4.24H101.9v5.972a2.121,2.121,0,0,0,4.242,0V46.175h4.242a2.12,2.12,0,1,0,0-4.24h-4.242V35.9A17.942,17.942,0,0,0,116.765,30.756Zm-22.495-3a13.783,13.783,0,1,1,19.5,0A13.794,13.794,0,0,1,94.27,27.757Z" transform="translate(-85.999 0)" fill="#3b3659"/>
      </g>
    </g>
    <path id="Icon_awesome-plus" data-name="Icon awesome-plus" d="M19.724,9H12.9V.767A1.517,1.517,0,0,0,11.379-.75H9.862A1.517,1.517,0,0,0,8.345.767V9H1.517A1.517,1.517,0,0,0,0,10.516v1.517A1.517,1.517,0,0,0,1.517,13.55H8.345v8.231A1.517,1.517,0,0,0,9.862,23.3h1.517A1.517,1.517,0,0,0,12.9,21.781V13.55h6.828a1.517,1.517,0,0,0,1.517-1.517V10.516A1.517,1.517,0,0,0,19.724,9Z" transform="translate(935.882 3315.701)" fill="#845fff"/>
  </g>
</svg>
