<svg xmlns="http://www.w3.org/2000/svg" width="54.791" height="56.513" viewBox="0 0 54.791 56.513">
  <g id="Group_89743" data-name="Group 89743" transform="translate(-1405.57 -3311.25)">
    <g id="baby" transform="translate(1410.002 3311.5)">
      <g id="Page-1_16_" transform="translate(0 0)">
        <g id="_x30_17---Baby-Love">
          <path id="Shape_65_" d="M19.657,50.893A17.7,17.7,0,0,0,49.878,38.347V17.813c0-.5-.029-1.006-.071-1.507.129.114.253.221.385.339a.933.933,0,0,0,1.239,0c.763-.679-8.6-15.36-9.393-13.538A17.517,17.517,0,0,0,32.145.08,17.753,17.753,0,0,0,14.411,17.813V38.347a17.22,17.22,0,0,0,.119,1.96,6.336,6.336,0,0,0-1.053.96,5.485,5.485,0,0,0-4.2-1.987C7.849,39.331,18.694,51.842,19.657,50.893ZM48.011,38.347A15.809,15.809,0,0,1,26.545,53.166V49.547c0-11.777,6.579-15.354,12.941-18.814,3.348-1.821,6.579-3.579,8.526-6.424ZM31.985,8.487a3.131,3.131,0,0,1,2.026,2.793.933.933,0,0,1-1.867,0,.933.933,0,1,0-1.867,0,2.8,2.8,0,0,0,5.6,0,4.543,4.543,0,0,0-.56-2.24,9.333,9.333,0,0,1,5.811,6.253.943.943,0,0,0,1.027.674,1.867,1.867,0,1,1,0,3.7.942.942,0,0,0-1.034.674,9.333,9.333,0,0,1-17.968,0,.933.933,0,0,0-1.034-.674,1.867,1.867,0,1,1,0-3.7.942.942,0,0,0,1.027-.674,9.341,9.341,0,0,1,8.84-6.807ZM25.628,26.913a11.161,11.161,0,0,0,13.033,0,7.016,7.016,0,0,1,1.689,1.213c-.572.321-1.159.64-1.757.965a47.582,47.582,0,0,0-6.464,4,46.669,46.669,0,0,0-6.433-4c-.6-.325-1.184-.645-1.757-.966a6.963,6.963,0,0,1,1.688-1.211ZM50.811,14.7q-.816-.718-1.569-1.364c-3.677-3.184-5.9-5.106-5.9-7.648C43.345,3.556,51.354,14.223,50.811,14.7ZM32.145,1.947a15.672,15.672,0,0,1,9.37,3.08c-.021.217-.036.437-.036.661,0,3.282,2.438,5.5,6.16,8.728a15.857,15.857,0,0,1,.373,3.4c0,4.706-2.553,7.2-6.01,9.343a8.775,8.775,0,0,0-1.84-1.538,11.107,11.107,0,0,0,2.545-4.083,3.733,3.733,0,0,0,0-7.442,11.2,11.2,0,0,0-21.127,0,3.733,3.733,0,0,0,0,7.442,11.106,11.106,0,0,0,2.551,4.089A8.649,8.649,0,0,0,22.3,27.161c-3.462-2.143-6.019-4.638-6.019-9.347A15.884,15.884,0,0,1,32.145,1.947Zm-15.867,36.4V24.307c1.947,2.846,5.178,4.6,8.526,6.424a48,48,0,0,1,5.864,3.59c-3.43,3.153-5.99,7.653-5.99,15.226V52.32a15.826,15.826,0,0,1-3.756-2.8,7.063,7.063,0,0,0,1.889-4.631,5.329,5.329,0,0,0-5.133-5.609,5.371,5.371,0,0,0-1.361.174c-.024-.36-.039-.733-.039-1.107Zm-7,2.8a3.981,3.981,0,0,1,3.36,2.162.932.932,0,0,0,1.675,0,3.981,3.981,0,0,1,3.365-2.163,3.448,3.448,0,0,1,3.267,3.743c0,2.541-13.529-3.743-11.667-3.743Z" transform="translate(-9.102 -0.08)" fill="#3b3659" stroke="#3b3659" stroke-width="0.5"/>
        </g>
      </g>
    </g>
    <path id="Icon_feather-heart" data-name="Icon feather-heart" d="M17.919,5.834a4.367,4.367,0,0,0-6.29,0l-.857.879-.857-.879a4.368,4.368,0,0,0-6.29,0,4.648,4.648,0,0,0,0,6.453l.857.879,6.29,6.453,5.677-5.841.857-.879c1.737-1.782,2.35-5.284.613-7.066Z" transform="translate(1440.4 3308.846)" fill="#f0f0f0" stroke="#8450ff" stroke-linecap="round" stroke-linejoin="round" stroke-width="2"/>
    <path id="Icon_feather-heart-2" data-name="Icon feather-heart" d="M17.919,5.834a4.367,4.367,0,0,0-6.29,0l-.857.879-.857-.879a4.368,4.368,0,0,0-6.29,0,4.648,4.648,0,0,0,0,6.453l.857.879,6.29,6.453,5.677-5.841.857-.879c1.737-1.782,2.35-5.284.613-7.066Z" transform="translate(1404.247 3346.837)" fill="#f0f0f0" stroke="#8450ff" stroke-linecap="round" stroke-linejoin="round" stroke-width="2"/>
  </g>
</svg>
