<svg xmlns="http://www.w3.org/2000/svg" width="51.832" height="58.5" viewBox="0 0 51.832 58.5">
  <g id="Group_89744" data-name="Group 89744" transform="translate(-7.75 -5.75)">
    <path id="Path_101452" data-name="Path 101452" d="M30.8,24.014A3.217,3.217,0,1,1,29.712,21.8,3.217,3.217,0,0,1,30.8,24.014Zm2.145,37.739V47.811h1.072a1.072,1.072,0,0,0,1.072-1.072V37.087a5.362,5.362,0,0,0-5.362-5.362h-4.29c-2.96,0-5.008,2.424-5.362,5.362L19,45.667" transform="translate(0.724 1.014)" fill="none" stroke="#3b3659" stroke-linecap="round" stroke-linejoin="round" stroke-width="2.5"/>
    <path id="Path_101453" data-name="Path 101453" d="M23.072,59.942V46H22" transform="translate(0.942 2.825)" fill="none" stroke="#3b3659" stroke-linecap="round" stroke-linejoin="round" stroke-width="2.5"/>
    <path id="Path_101454" data-name="Path 101454" d="M14,49.956a2.145,2.145,0,1,1,4.29,0v11.8M36.521,24.014A3.217,3.217,0,1,0,37.606,21.8,3.217,3.217,0,0,0,36.521,24.014Zm1.072,7.711h4.29c2.96,0,5.008,2.424,5.362,5.362l1.072,8.579" transform="translate(0.362 1.014)" fill="none" stroke="#3b3659" stroke-linecap="round" stroke-linejoin="round" stroke-width="2.5"/>
    <path id="Path_101455" data-name="Path 101455" d="M42,59.942V46h1.072" transform="translate(2.39 2.825)" fill="none" stroke="#3b3659" stroke-linecap="round" stroke-linejoin="round" stroke-width="2.5"/>
    <path id="Path_101456" data-name="Path 101456" d="M51.29,48.145a2.145,2.145,0,1,0-4.29,0v11.8" transform="translate(2.753 2.825)" fill="none" stroke="#3b3659" stroke-linecap="round" stroke-linejoin="round" stroke-width="2.5"/>
    <line id="Line_92" data-name="Line 92" y2="9.652" transform="translate(28.84 53.115)" fill="none" stroke="#3b3659" stroke-linecap="round" stroke-linejoin="round" stroke-width="2.5"/>
    <line id="Line_93" data-name="Line 93" y2="9.333" transform="translate(38.499 53.667)" fill="none" stroke="#3b3659" stroke-linecap="round" stroke-linejoin="round" stroke-width="2.5"/>
    <path id="Path_101457" data-name="Path 101457" d="M46.535,16.629l-6.8-6.8a8.579,8.579,0,0,0-12.14,0L9,28.426h4.29v4.29" transform="translate(0 0.023)" fill="none" stroke="#8450ff" stroke-linecap="round" stroke-linejoin="round" stroke-width="2.5"/>
    <path id="Path_101458" data-name="Path 101458" d="M43,15.579V8.072A1.072,1.072,0,0,1,44.072,7H47.29a1.072,1.072,0,0,1,1.072,1.072V20.942l7.507,7.507h-4.29v4.29" transform="translate(2.463 0)" fill="none" stroke="#8450ff" stroke-linecap="round" stroke-linejoin="round" stroke-width="2.5"/>
  </g>
</svg>
