<svg xmlns="http://www.w3.org/2000/svg" width="156.417" height="35.776" viewBox="0 0 156.417 35.776">
  <g id="Group_89863" data-name="Group 89863" style="mix-blend-mode: normal;isolation: isolate">
    <path id="Path_411" data-name="Path 411" d="M152.4,6.855l3.733,3.759a.836.836,0,0,1,.277.4c.076.925-.624.976-1.34,1.027a3.307,3.307,0,0,0-.875.139,6.335,6.335,0,0,0-4.657,5.58.882.882,0,0,1-.839.462.84.84,0,0,1-.521-.243l-1.225-1.234a2.222,2.222,0,0,1,.009.235V17.8a1.194,1.194,0,0,1,0,.15.35.35,0,0,1-.071.168v.076a.888.888,0,0,0,.009.111.628.628,0,0,1-.009.258,1.473,1.473,0,0,0-.033.32,1.494,1.494,0,0,1-.009.166c-.009.065-.009.134-.014.2a.546.546,0,0,1-.045.191.639.639,0,0,0-.056.249c0,.04,0,.079,0,.12l-.05.26-1.9,9.078-.151.68-.059.99-.839,4.287-.134.671h-67.9l-.327-.327-.059.285H68.037l-4.044-4.069.386-1.838H62.1l-1.418-1.435a9.993,9.993,0,0,1-6.066,1.913,8.852,8.852,0,0,1-6.343-2.333L46.062,25.75l-.478,2.232c-.059.319-.134.621-.218.915l-.075.277-.126.4a.512.512,0,0,1-.042.1,9.12,9.12,0,0,1-.445,1.082.067.067,0,0,1,0,.042,1.086,1.086,0,0,1-.076.134,7.827,7.827,0,0,1-.419.73,1.068,1.068,0,0,0-.075.134l-.092.1a8.16,8.16,0,0,1-.671.839c-.066.066-.133.129-.2.19s-.139.124-.211.188l-.185.176q-.175.145-.357.28-.15.111-.306.215a10.143,10.143,0,0,1-5.731,1.4,8.821,8.821,0,0,1-6.385-2.215l-3.943-3.969a10.228,10.228,0,0,1-5.168,1.326,8.869,8.869,0,0,1-6.309-2.366l-2.207-2.223-.713,3.432-.143.68H4.061L0,25.758l.21-.99L4.673,3.331l.134-.671h7.451l.193.185V2.66h50.2l.185.185V2.66H70.1l4.061,4.094-.2.982L73.742,8.81h2.089l.327.327A6.116,6.116,0,0,1,79.187,8.3a5.613,5.613,0,0,1,4.2,1.762l-.109-.126,1.972,1.989C86.445,9.666,89.138,8.3,92.8,8.3c2.836,0,4.925.722,6.192,2.03l1.427,1.435.479-2.307.142-.671h7.274l2.081,2.089.293-1.41.143-.671h14.314l.385.386a6.057,6.057,0,0,1,3.206-.839,4.588,4.588,0,0,1,3.607,1.535l-.068-.079c-.04-.048-.08-.1-.123-.139l.729.729a6.71,6.71,0,0,1,4.908-2.047,4.984,4.984,0,0,1,1.441.121l-.794-.8a.837.837,0,0,1-.211-.415.839.839,0,0,1,.765-.994h.638a5.02,5.02,0,0,0,.512-.076,6.154,6.154,0,0,0,4.2-3.188c.037-.063.07-.127.1-.193V2.752A5.809,5.809,0,0,0,144.95.78a.839.839,0,0,1,.839-.78h.067a.84.84,0,0,1,.63.386c.6.587,3.96,4,3.96,4a1.368,1.368,0,0,1,.238,1.086,2.427,2.427,0,0,0,.03.718c.153.027.308.048.462.062s.3.021.445.022a.839.839,0,0,1,.78.579Z" transform="translate(0 0)" fill="#ab99d6"/>
    <path id="Path_412" data-name="Path 412" d="M38.523,10.024h5.3l-2.97,14.087a7.67,7.67,0,0,1-3.163,5.278,9.431,9.431,0,0,1-5.269,1.259c-3.507,0-6.872-1.468-7.207-5.034h5.336c.168.839.94,1.317,2.114,1.317,1.586,0,2.316-.956,2.643-2.458l.319-1.552h-.117A5.135,5.135,0,0,1,31.828,24.6c-3.088,0-5.538-2.458-5.487-6.058.067-4.2,2.8-8.961,7.392-8.961a4.564,4.564,0,0,1,4.313,2.366h.092ZM33.967,20.663c2.039,0,3.172-2.349,3.205-4.371,0-1.351-.529-2.735-2.089-2.735-2.131,0-3.213,2.374-3.247,4.413,0,1.376.529,2.693,2.089,2.693m59.571.453c0,.9-.773,1.259-1.788,1.259-1.678,0-2.24-.839-2.248-2.014H84.183c-.092,4.38,3.818,5.462,7.291,5.462,4.438,0,7.316-1.921,7.375-5.756,0-3.063-2.61-3.994-5.177-4.59-1.972-.453-2.836-.78-2.828-1.527S91.734,12.9,92.6,12.9c1.082,0,1.82.386,1.9,1.376h5.127c-.059-3.658-3.357-4.732-6.712-4.732-4.078,0-7.258,1.854-7.308,5.361,0,2.76,1.863,3.776,4.673,4.5C92.078,19.883,93.512,20.034,93.5,21.116ZM132.7,12.3h-.092a3.759,3.759,0,0,0-3.826-2.752c-2.282,0-3.674,1.133-4.992,2.844H123.7l.487-2.366h-5.337l-3.2,15.287h5.58l1.678-8.248c.385-1.8,1.3-3.054,2.685-3.054s1.569,1.107,1.283,2.458l-1.846,8.843h5.579l1.679-8.248c.385-1.913,1.3-3.054,2.684-3.054s1.57,1.049,1.284,2.458l-1.846,8.843h5.579l2-9.087c.839-3.834-.445-6.712-4.128-6.712A6.126,6.126,0,0,0,132.7,12.3ZM1.144,25.311H6.909L11.364,3.874H5.608ZM18.5,9.571c3.893,0,7.61,2.131,7.551,6.955-.05,5.278-3.641,9.229-9.129,9.229-3.776,0-7.551-2.1-7.484-6.9C9.526,13.708,13.067,9.571,18.5,9.571ZM17.078,22.014c2.458,0,3.356-3.566,3.356-5.663,0-1.5-.461-2.97-2.081-2.97-2.433,0-3.264,3.776-3.264,5.722,0,1.561.436,2.911,2.022,2.911M13.285,3.874l-.839,4.287h48.4l.839-4.287Zm38.931,5.7c3.893,0,7.61,2.131,7.551,6.955-.05,5.278-3.65,9.229-9.137,9.229-3.776,0-7.551-2.1-7.476-6.9C43.272,13.708,46.813,9.571,52.216,9.571ZM50.823,22.014c2.458,0,3.356-3.566,3.356-5.663,0-1.5-.47-2.97-2.089-2.97-2.425,0-3.264,3.776-3.264,5.722,0,1.561.436,2.911,2.03,2.911M63.669,3.874,62.83,8.162H68.4l.839-4.287ZM59.205,25.311h5.579l3.2-15.287H62.368Zm17.8.512a4.791,4.791,0,0,1-4.464-2.341h-.092l-1.678,7.736H65.128l4.531-21.194h5.3l-.419,2.039a6.183,6.183,0,0,1,4.774-2.517c3.356,0,5.328,2.878,5.269,6.62-.076,4.707-2.517,9.657-7.61,9.657Zm-.218-11.948c-2.156,0-3.482,2.76-3.515,4.883,0,1.477.52,3.121,2.29,3.121,2.307,0,3.255-3.054,3.281-5.093C78.847,15.4,78.444,13.876,76.791,13.876ZM109.052,22.9h.092l-.487,2.425h5.3l3.2-15.287h-5.571l-1.779,8.541c-.36,1.77-1.452,2.7-2.827,2.7s-1.679-1.292-1.4-2.643l1.8-8.6h-5.571L99.839,19.48c-.839,4.111,1.074,6.326,4.28,6.326a5.723,5.723,0,0,0,4.934-2.92Zm29.928,8.39.839-4.287H73.653l-.839,4.287Z" transform="translate(-0.121 -0.409)" fill="#fff"/>
    <path id="Path_413" data-name="Path 413" d="M161.226,13.862a.417.417,0,0,1-.157-.044.411.411,0,0,1-.13-.1.422.422,0,0,1-.1-.307,5.328,5.328,0,0,0-5.412-5.823.42.42,0,0,1,0-.839,4.69,4.69,0,0,0,.6,0A6.444,6.444,0,0,0,161.772.874a.4.4,0,0,1,.707-.24.409.409,0,0,1,.08.144.421.421,0,0,1,.019.163,5.327,5.327,0,0,0,5.4,5.823.42.42,0,1,1,0,.839,6.468,6.468,0,0,0-6.334,5.873.419.419,0,0,1-.42.386Z" transform="translate(-16.369 -0.052)" fill="#ab99d6"/>
  </g>
</svg>
