<svg xmlns="http://www.w3.org/2000/svg" width="164.479" height="39.336" viewBox="0 0 164.479 39.336">
  <g id="Group_89701" data-name="Group 89701" opacity="0.5" style="mix-blend-mode: normal;isolation: isolate">
    <path id="Path_428" data-name="Path 428" d="M21.668,2a19.668,19.668,0,1,0,0,39.336V31.5a9.834,9.834,0,0,1,0-19.668Z" transform="translate(-2 -2)" fill="#3b3659"/>
    <path id="Path_429" data-name="Path 429" d="M20.223,26.779a6.556,6.556,0,1,0-6.556-6.556A6.556,6.556,0,0,0,20.223,26.779Z" transform="translate(-0.555 -0.555)" fill="#3b3659"/>
    <path id="Path_430" data-name="Path 430" d="M2,19.5a19.668,19.668,0,1,0,39.336,0H31.5a9.834,9.834,0,0,1-19.668,0Z" transform="translate(-2 0.168)" fill="#3b3659"/>
    <path id="Path_431" data-name="Path 431" d="M26.779,20.223a6.556,6.556,0,0,0-13.112,0H26.779Z" transform="translate(-0.555 -0.555)" fill="#3b3659"/>
    <path id="Path_432" data-name="Path 432" d="M47.01,12.925H43.966V29.834H47.01Z" transform="translate(7.404 -2.464)" fill="#3b3659"/>
    <path id="Path_433" data-name="Path 433" d="M47.559,22.531a6,6,0,0,0,6.28,6.329,6,6,0,0,0,6.28-6.329,6,6,0,0,0-6.28-6.329A6,6,0,0,0,47.559,22.531Zm3.044,0c0-2.319,1.353-3.672,3.237-3.672s3.237,1.353,3.237,3.672S55.723,26.2,53.839,26.2,50.6,24.85,50.6,22.531Z" transform="translate(8.842 -1.152)" fill="#3b3659"/>
    <path id="Path_434" data-name="Path 434" d="M67.044,16.541v1.618H66.8A4.479,4.479,0,0,0,62.841,16.2c-2.85,0-5.411,2.416-5.411,6.135s2.56,6.135,5.411,6.135a4.508,4.508,0,0,0,3.913-1.884H67v1.159a3.041,3.041,0,0,1-3.333,3.382,3.243,3.243,0,0,1-3.406-2.44l-2.729,1.184c.628,1.812,2.464,3.817,6.184,3.817,3.817,0,6.329-2,6.329-5.87V16.541Zm-3.285,9.324a3.239,3.239,0,0,1-3.285-3.527,3.293,3.293,0,1,1,6.57,0A3.239,3.239,0,0,1,63.759,25.865Z" transform="translate(12.794 -1.152)" fill="#3b3659"/>
    <path id="Path_435" data-name="Path 435" d="M67.841,22.531a6.281,6.281,0,1,0,12.561,0,6.281,6.281,0,1,0-12.561,0Zm3.044,0c0-2.319,1.353-3.672,3.237-3.672s3.237,1.353,3.237,3.672S76.006,26.2,74.121,26.2,70.885,24.85,70.885,22.531Z" transform="translate(16.962 -1.152)" fill="#3b3659"/>
    <path id="Path_436" data-name="Path 436" d="M78.517,14.554a2.151,2.151,0,1,0,2.151-2.077A2.051,2.051,0,0,0,78.517,14.554Zm3.672,3.478H79.146V30.013h3.043Z" transform="translate(21.235 -2.643)" fill="#3b3659"/>
    <path id="Path_437" data-name="Path 437" d="M83.076,33.353H86.12V26.976h.241a4.452,4.452,0,0,0,3.914,1.884c2.85,0,5.411-2.416,5.411-6.329S93.125,16.2,90.275,16.2a4.477,4.477,0,0,0-3.961,1.957h-.242V16.541h-3Zm6.28-7.1c-1.883,0-3.285-1.353-3.285-3.72s1.4-3.72,3.285-3.72,3.285,1.353,3.285,3.72S91.241,26.251,89.356,26.251Z" transform="translate(23.06 -1.152)" fill="#3b3659"/>
    <path id="Path_438" data-name="Path 438" d="M93.473,19.9c0,2.367,1.98,3.237,4.492,3.72l.629.121c1.5.29,2.173.652,2.173,1.425s-.676,1.377-2.077,1.377a2.59,2.59,0,0,1-2.851-2.319l-2.8.725c.412,2.512,2.512,3.913,5.653,3.913,3.043,0,5.024-1.425,5.024-3.937s-2.029-3.189-4.734-3.72l-.629-.121c-1.256-.242-1.932-.58-1.932-1.377,0-.725.629-1.184,1.788-1.184a2.072,2.072,0,0,1,2.27,1.787l2.754-.845c-.58-1.932-2.343-3.261-5.024-3.261C95.357,16.2,93.473,17.531,93.473,19.9Z" transform="translate(27.048 -1.152)" fill="#3b3659"/>
    <path id="Path_439" data-name="Path 439" d="M113.741,28.425V16.444H110.7v6.184c0,2.222-1.087,3.527-2.948,3.527-1.643,0-2.56-.894-2.56-2.705V16.444h-3.044v7.15c0,2.971,1.861,5.024,4.663,5.024,2.2,0,3.212-.966,3.7-1.981h.241v1.788Z" transform="translate(30.694 -1.055)" fill="#3b3659"/>
    <path id="Path_440" data-name="Path 440" d="M112.354,16.5V28.48H115.4V21.33c0-1.643.773-2.56,2.173-2.56a1.77,1.77,0,0,1,1.932,1.981v7.73h3.044V21.33c0-1.643.773-2.56,2.173-2.56a1.77,1.77,0,0,1,1.932,1.981v7.73H129.7V20.606c0-2.9-1.788-4.3-4.01-4.3a3.527,3.527,0,0,0-3.429,1.884h-.242a3.312,3.312,0,0,0-3.285-1.884A3.206,3.206,0,0,0,115.592,18h-.242V16.5Z" transform="translate(34.781 -1.11)" fill="#3b3659"/>
  </g>
</svg>
