<svg xmlns="http://www.w3.org/2000/svg" width="143.104" height="26.529" viewBox="0 0 143.104 26.529">
  <g id="Group_89866" data-name="Group 89866" style="mix-blend-mode: normal;isolation: isolate">
    <path id="Path_416" data-name="Path 416" d="M38.566,1.275h3.573V20.763h5.879v3.248H38.566Z" transform="translate(-4.072 -0.135)" fill="#f5ebe8"/>
    <path id="Path_417" data-name="Path 417" d="M56.041,24.3A5.245,5.245,0,0,1,52.013,22.8a5.949,5.949,0,0,1-1.4-4.222V6.628a5.949,5.949,0,0,1,1.4-4.222A5.245,5.245,0,0,1,56.041.911a5.245,5.245,0,0,1,4.028,1.494,5.949,5.949,0,0,1,1.4,4.222V18.581a5.949,5.949,0,0,1-1.4,4.222A5.245,5.245,0,0,1,56.041,24.3Zm0-3.248q1.851,0,1.851-2.241V6.4q0-2.241-1.851-2.241T54.189,6.4V18.808Q54.189,21.049,56.041,21.049Z" transform="translate(-5.345 -0.096)" fill="#f5ebe8"/>
    <path id="Path_418" data-name="Path 418" d="M70.484,24.3a5.157,5.157,0,0,1-3.963-1.462,6.089,6.089,0,0,1-1.364-4.255V6.628a5.966,5.966,0,0,1,1.364-4.222,6,6,0,0,1,7.925,0A5.966,5.966,0,0,1,75.81,6.628V8.577H72.432V6.4q0-2.241-1.851-2.241T68.73,6.4v12.44q0,2.209,1.851,2.209t1.851-2.209v-4.45H70.646V11.143H75.81v7.438a6.089,6.089,0,0,1-1.364,4.255A5.157,5.157,0,0,1,70.484,24.3Z" transform="translate(-6.88 -0.096)" fill="#f5ebe8"/>
    <path id="Path_419" data-name="Path 419" d="M84.767,24.3A5.245,5.245,0,0,1,80.739,22.8a5.949,5.949,0,0,1-1.4-4.222V6.628a5.949,5.949,0,0,1,1.4-4.222,6.175,6.175,0,0,1,8.055,0,5.949,5.949,0,0,1,1.4,4.222V18.581a5.949,5.949,0,0,1-1.4,4.222A5.245,5.245,0,0,1,84.767,24.3Zm0-3.248q1.851,0,1.851-2.241V6.4q0-2.241-1.851-2.241T82.915,6.4V18.808Q82.915,21.049,84.767,21.049Z" transform="translate(-8.378 -0.096)" fill="#f5ebe8"/>
    <path id="Path_420" data-name="Path 420" d="M94.181,1.275h3.573V24.011H94.181Z" transform="translate(-9.945 -0.135)" fill="#f5ebe8"/>
    <path id="Path_421" data-name="Path 421" d="M101.167,1.275h5.262a5.2,5.2,0,0,1,4,1.429,5.934,5.934,0,0,1,1.332,4.19V9.135a5.934,5.934,0,0,1-1.332,4.19,5.2,5.2,0,0,1-4,1.429H104.74v9.257h-3.573Zm5.262,10.231a1.629,1.629,0,0,0,1.3-.487,2.406,2.406,0,0,0,.454-1.657v-2.7a2.406,2.406,0,0,0-.454-1.657,1.629,1.629,0,0,0-1.3-.487H104.74v6.983Z" transform="translate(-10.683 -0.135)" fill="#f5ebe8"/>
    <path id="Path_422" data-name="Path 422" d="M119.889,24.3a5.052,5.052,0,0,1-3.93-1.462,6.189,6.189,0,0,1-1.332-4.255v-1.3h3.378v1.559q0,2.209,1.851,2.209a1.716,1.716,0,0,0,1.364-.52,2.612,2.612,0,0,0,.487-1.754,4.732,4.732,0,0,0-.649-2.5,11.761,11.761,0,0,0-2.4-2.631,14.575,14.575,0,0,1-3.086-3.508,7.285,7.285,0,0,1-.877-3.573,5.866,5.866,0,0,1,1.364-4.157A5.1,5.1,0,0,1,120.019.911a4.845,4.845,0,0,1,3.865,1.494,6.058,6.058,0,0,1,1.332,4.222V7.57h-3.378V6.4a2.542,2.542,0,0,0-.454-1.689,1.625,1.625,0,0,0-1.332-.552q-1.787,0-1.786,2.176a4.373,4.373,0,0,0,.649,2.306,13.2,13.2,0,0,0,2.436,2.6,13.387,13.387,0,0,1,3.086,3.54,7.862,7.862,0,0,1,.844,3.735,6.048,6.048,0,0,1-1.4,4.287A5.139,5.139,0,0,1,119.889,24.3Z" transform="translate(-12.104 -0.096)" fill="#f5ebe8"/>
    <path id="Path_423" data-name="Path 423" d="M134.011,24.336a5.158,5.158,0,0,1-3.963-1.462,6.089,6.089,0,0,1-1.364-4.255V1.275h3.573v17.6a2.542,2.542,0,0,0,.454,1.689,1.779,1.779,0,0,0,1.364.52,1.675,1.675,0,0,0,1.332-.52,2.423,2.423,0,0,0,.487-1.689V1.275h3.443V18.619a6.088,6.088,0,0,1-1.364,4.255A5.158,5.158,0,0,1,134.011,24.336Z" transform="translate(-13.589 -0.135)" fill="#f5ebe8"/>
    <path id="Path_424" data-name="Path 424" d="M143.44,1.275h5.1l2.274,16.273h.064l2.274-16.273h5.1V24.011h-3.378V6.8h-.064l-2.6,17.215h-2.988L146.623,6.8h-.064V24.011H143.44Z" transform="translate(-15.147 -0.135)" fill="#f5ebe8"/>
    <path id="Path_425" data-name="Path 425" d="M0,24.816a7.959,7.959,0,0,0,7.959-7.959A7.959,7.959,0,0,0,0,8.9V14.47a2.388,2.388,0,0,1,2.388,2.388A2.388,2.388,0,0,1,0,19.245Z" transform="translate(0 -0.94)" fill="#f5ebe8"/>
    <path id="Path_426" data-name="Path 426" d="M27.469,11.786A14.272,14.272,0,0,0,9.086,27.7h8.86a5.7,5.7,0,0,1,9.523-6.056Z" transform="translate(-0.94 -1.175)" fill="#f5ebe8"/>
    <path id="Path_427" data-name="Path 427" d="M1.565,0A11.94,11.94,0,0,0,13.43,10.612,11.94,11.94,0,0,0,25.3,0H16.758A3.583,3.583,0,0,1,13.43,2.255,3.583,3.583,0,0,1,10.1,0Z" transform="translate(-0.165)" fill="#f5ebe8"/>
  </g>
</svg>
