<svg xmlns="http://www.w3.org/2000/svg" width="171.874" height="34.109" viewBox="0 0 171.874 34.109">
  <g id="Group_89867" data-name="Group 89867" style="mix-blend-mode: normal;isolation: isolate">
    <path id="Path_399" data-name="Path 399" d="M21.792,9.964a8.527,8.527,0,0,0-4.738-1.437V0A17.055,17.055,0,1,1,0,17.055H8.527a8.527,8.527,0,1,0,13.265-7.09Z" transform="translate(0 0)" fill="#845fff" fill-rule="evenodd"/>
    <path id="Path_400" data-name="Path 400" d="M8.527,0a8.527,8.527,0,0,1-.649,3.263A8.527,8.527,0,0,1,6.03,6.03,8.527,8.527,0,0,1,3.263,7.878,8.527,8.527,0,0,1,0,8.527v8.527a17.055,17.055,0,0,0,6.527-1.3,17.054,17.054,0,0,0,5.533-3.7,17.054,17.054,0,0,0,3.7-5.533A17.055,17.055,0,0,0,17.055,0Z" transform="translate(0 0)" fill="#845fff" fill-rule="evenodd"/>
    <path id="Path_401" data-name="Path 401" d="M124.9,14.453h-4.137V27.6H124.9Z" transform="translate(-17.785 -2.128)" fill="#845fff"/>
    <path id="Path_402" data-name="Path 402" d="M121.2,10.894a2.2,2.2,0,0,0,1.622.649,2.112,2.112,0,0,0,1.6-.649,2.31,2.31,0,0,0,.622-1.623,2.25,2.25,0,0,0-.622-1.623,2.112,2.112,0,0,0-1.6-.649,2.2,2.2,0,0,0-1.622.649,2.25,2.25,0,0,0-.622,1.623A2.31,2.31,0,0,0,121.2,10.894Z" transform="translate(-17.757 -1.031)" fill="#845fff"/>
    <path id="Path_403" data-name="Path 403" d="M51.156,26.568V7.476H55.4v15.36h8.464v3.732Z" transform="translate(-7.534 -1.101)" fill="#845fff"/>
    <path id="Path_404" data-name="Path 404" d="M73.785,27.841a7.6,7.6,0,0,1-3.678-.892,6.945,6.945,0,0,1-2.569-2.488,6.672,6.672,0,0,1-.946-3.515,6.532,6.532,0,0,1,.946-3.488,6.805,6.805,0,0,1,2.569-2.434,7.327,7.327,0,0,1,3.678-.92A7.5,7.5,0,0,1,77.463,15a6.739,6.739,0,0,1,2.569,2.461,6.531,6.531,0,0,1,.947,3.488,6.671,6.671,0,0,1-.947,3.515,6.944,6.944,0,0,1-2.569,2.488A7.5,7.5,0,0,1,73.785,27.841Zm0-3.759a3.156,3.156,0,0,0,1.569-.379,2.65,2.65,0,0,0,1.028-1.109,3.53,3.53,0,0,0,.379-1.65,3.213,3.213,0,0,0-.379-1.6,2.651,2.651,0,0,0-1.055-1.082,2.848,2.848,0,0,0-1.541-.406,2.937,2.937,0,0,0-1.541.406,2.651,2.651,0,0,0-1.055,1.082,3.369,3.369,0,0,0-.379,1.622,3.471,3.471,0,0,0,.379,1.623A2.837,2.837,0,0,0,72.244,23.7,3.1,3.1,0,0,0,73.785,24.082Z" transform="translate(-9.807 -2.077)" fill="#845fff" fill-rule="evenodd"/>
    <path id="Path_405" data-name="Path 405" d="M86.853,32.686a9.053,9.053,0,0,0,3.813.757,8.181,8.181,0,0,0,3.759-.838,6.494,6.494,0,0,0,2.6-2.326,6.408,6.408,0,0,0,.947-3.516V14.406H93.911v.883a4.372,4.372,0,0,0-1.028-.64,5.427,5.427,0,0,0-2.407-.514,6.064,6.064,0,0,0-5.436,3.191,6.677,6.677,0,0,0-.811,3.3,6.775,6.775,0,0,0,.811,3.3,6.187,6.187,0,0,0,2.218,2.353,6.015,6.015,0,0,0,3.218.865,5.539,5.539,0,0,0,2.407-.514,4.821,4.821,0,0,0,.946-.587v.83a2.648,2.648,0,0,1-.892,2.136,3.534,3.534,0,0,1-2.407.757,4.855,4.855,0,0,1-2.136-.433,4.93,4.93,0,0,1-1.569-1.271L84.284,30.6A6.127,6.127,0,0,0,86.853,32.686Zm5.9-9.6a2.806,2.806,0,0,1-1.487.379,2.951,2.951,0,0,1-1.514-.379,2.668,2.668,0,0,1-.973-1.028,3.063,3.063,0,0,1-.352-1.433,3.016,3.016,0,0,1,.352-1.46,2.61,2.61,0,0,1,1-1.028,2.9,2.9,0,0,1,1.487-.379,2.806,2.806,0,0,1,1.487.379,2.43,2.43,0,0,1,.974,1.028,3.209,3.209,0,0,1,0,2.921A2.472,2.472,0,0,1,92.748,23.086Z" transform="translate(-12.404 -2.082)" fill="#845fff" fill-rule="evenodd"/>
    <path id="Path_406" data-name="Path 406" d="M109.309,27.841a7.6,7.6,0,0,1-3.678-.892,6.942,6.942,0,0,1-2.569-2.488,6.671,6.671,0,0,1-.947-3.515,6.531,6.531,0,0,1,.947-3.488,6.8,6.8,0,0,1,2.569-2.434,7.326,7.326,0,0,1,3.678-.92,7.5,7.5,0,0,1,3.677.892,6.738,6.738,0,0,1,2.569,2.461,6.531,6.531,0,0,1,.947,3.488,6.671,6.671,0,0,1-.947,3.515,6.942,6.942,0,0,1-2.569,2.488A7.5,7.5,0,0,1,109.309,27.841Zm0-3.759a3.158,3.158,0,0,0,1.568-.379,2.654,2.654,0,0,0,1.028-1.109,3.53,3.53,0,0,0,.379-1.65,3.213,3.213,0,0,0-.379-1.6,2.649,2.649,0,0,0-1.055-1.082,2.847,2.847,0,0,0-1.541-.406,2.936,2.936,0,0,0-1.542.406,2.649,2.649,0,0,0-1.055,1.082,3.369,3.369,0,0,0-.379,1.622,3.471,3.471,0,0,0,.379,1.623,2.834,2.834,0,0,0,1.055,1.109A3.1,3.1,0,0,0,109.309,24.082Z" transform="translate(-15.038 -2.077)" fill="#845fff" fill-rule="evenodd"/>
    <path id="Path_407" data-name="Path 407" d="M135.973,27.819a5.72,5.72,0,0,1-2.434-.514,5.17,5.17,0,0,1-1.054-.646v6.433H128.4V14.406h4.137v.907a5.116,5.116,0,0,1,1-.637,5.478,5.478,0,0,1,2.434-.541,6.15,6.15,0,0,1,5.571,3.326,7.233,7.233,0,0,1,.838,3.515,7.233,7.233,0,0,1-.838,3.516,6.15,6.15,0,0,1-5.571,3.326Zm-.756-3.732a2.861,2.861,0,0,0,2.6-1.514,3.312,3.312,0,0,0,.379-1.6,3.369,3.369,0,0,0-.379-1.622,2.649,2.649,0,0,0-1.055-1.082,2.8,2.8,0,0,0-1.514-.406,2.935,2.935,0,0,0-1.541.406,2.7,2.7,0,0,0-1.028,1.082,3.369,3.369,0,0,0-.379,1.622,3.518,3.518,0,0,0,.351,1.6,2.835,2.835,0,0,0,1.055,1.109A2.885,2.885,0,0,0,135.217,24.087Z" transform="translate(-18.909 -2.082)" fill="#845fff" fill-rule="evenodd"/>
    <path id="Path_408" data-name="Path 408" d="M148.906,27.557a9.032,9.032,0,0,0,2.3.3,6.105,6.105,0,0,0,3.894-1.136,3.671,3.671,0,0,0,1.46-3.056,3.819,3.819,0,0,0-.46-2,3.577,3.577,0,0,0-1.19-1.244,7.1,7.1,0,0,0-1.542-.73q-.811-.27-1.541-.46a5.577,5.577,0,0,1-1.19-.433.73.73,0,0,1-.46-.649.61.61,0,0,1,.351-.568,2.049,2.049,0,0,1,1.055-.216,4.047,4.047,0,0,1,1.487.3,3.458,3.458,0,0,1,1.406,1.028l2.353-2.38a5.431,5.431,0,0,0-2.325-1.7,7.83,7.83,0,0,0-3.083-.595,6.676,6.676,0,0,0-2.785.541,4.34,4.34,0,0,0-1.839,1.487,3.7,3.7,0,0,0-.649,2.19,3.858,3.858,0,0,0,.46,1.974,3.42,3.42,0,0,0,1.19,1.19,6.91,6.91,0,0,0,1.542.676q.811.243,1.542.46a4.689,4.689,0,0,1,1.19.46.779.779,0,0,1,.487.73.659.659,0,0,1-.406.595,2.276,2.276,0,0,1-1.109.216,4.929,4.929,0,0,1-1.947-.379,4.741,4.741,0,0,1-1.542-1.109L145.2,25.42a7.342,7.342,0,0,0,1.623,1.3A9.152,9.152,0,0,0,148.906,27.557Z" transform="translate(-21.383 -2.063)" fill="#845fff"/>
    <path id="Path_409" data-name="Path 409" d="M166.3,27.892a6.88,6.88,0,0,1-3.217-.73,5.647,5.647,0,0,1-2.163-2.055,5.826,5.826,0,0,1-.785-3.029V14.453h4.137v7.572a2.836,2.836,0,0,0,.217,1.163,1.784,1.784,0,0,0,.7.757,2.152,2.152,0,0,0,1.109.27,1.922,1.922,0,0,0,1.461-.568,2.32,2.32,0,0,0,.541-1.622V14.453h4.137v7.6a5.878,5.878,0,0,1-.785,3.056,5.647,5.647,0,0,1-2.163,2.055A6.718,6.718,0,0,1,166.3,27.892Z" transform="translate(-23.583 -2.128)" fill="#845fff"/>
    <path id="Path_410" data-name="Path 410" d="M181.116,14.406h-4.137V27.548h4.137v-7.68a2.211,2.211,0,0,1,.27-1.136,1.972,1.972,0,0,1,.785-.7,2.245,2.245,0,0,1,1.109-.27,2.068,2.068,0,0,1,1.487.568,1.931,1.931,0,0,1,.622,1.541v7.68h4.137v-7.68a2.211,2.211,0,0,1,.27-1.136,1.966,1.966,0,0,1,.785-.7,2.242,2.242,0,0,1,1.109-.27,2.068,2.068,0,0,1,1.487.568,1.933,1.933,0,0,1,.622,1.541v7.68h4.138v-8.14a5.335,5.335,0,0,0-.7-2.812,4.517,4.517,0,0,0-1.866-1.812,5.4,5.4,0,0,0-2.678-.649,5.734,5.734,0,0,0-2.785.676,5.052,5.052,0,0,0-1.413,1.112,4.6,4.6,0,0,0-1.373-1.166,4.844,4.844,0,0,0-2.46-.622,5.472,5.472,0,0,0-2.623.622,4.531,4.531,0,0,0-.92.62Z" transform="translate(-26.063 -2.082)" fill="#845fff"/>
  </g>
</svg>
