<svg xmlns="http://www.w3.org/2000/svg" width="737.621" height="476.737" viewBox="0 0 737.621 476.737">
  <path id="Path_101503" data-name="Path 101503" d="M0,187.307c29.529,6.736,63.87,11.369,100.178,10.184C212.237,193.832,301.7,179,343.018,134.737c17.064-18.282,33.4-35.534,33.795-48.78.546-18.293-16.084-24.7-26.4-23.885s-14.863,27.134-14.863,27.134S314.56,60.073,303.625,59.463s-13.93,17.453-11.82,27.3c4.874,22.754,46.875,64.97,109.532,66.252s76.705-6.392,163.166-51.045S712.044,0,712.044,0" transform="matrix(0.914, -0.407, 0.407, 0.914, 3.338, 293.347)" fill="none" stroke="#8450ff" stroke-linecap="round" stroke-width="4"/>
</svg>
