<svg xmlns="http://www.w3.org/2000/svg" width="56.139" height="56.139" viewBox="0 0 56.139 56.139">
  <g id="Group_89925" data-name="Group 89925" transform="translate(-8.666 -8.791)">
    <path id="Path_101421" data-name="Path 101421" d="M36.735,8.791A28.07,28.07,0,1,0,64.8,36.86,28.1,28.1,0,0,0,36.735,8.791Zm0,53.371a25.3,25.3,0,1,1,25.3-25.3A25.33,25.33,0,0,1,36.735,62.162Z" transform="translate(0)" fill="#3b3659"/>
    <path id="Path_101422" data-name="Path 101422" d="M57.984,39.644h0c-4.93.121-9.453,3.328-9.453,9.377,0,5.671,5.392,7.649,5.6,9.917h7.708c.208-2.269,5.6-4.247,5.6-9.917C67.437,42.972,62.914,39.765,57.984,39.644Zm3.766,14.689A16.013,16.013,0,0,0,60.1,56.17H55.872a15.942,15.942,0,0,0-1.656-1.836c-1.5-1.5-2.918-2.921-2.918-5.313,0-4.721,3.585-6.507,6.685-6.608,3.1.1,6.685,1.887,6.685,6.608C64.669,51.413,63.252,52.831,61.751,54.333ZM57.984,65.658a4.284,4.284,0,0,0,4.153-4.405H53.831a4.284,4.284,0,0,0,4.153,4.406Z" transform="translate(-21.471 -16.617)" fill="#8450ff"/>
  </g>
</svg>
