<svg xmlns="http://www.w3.org/2000/svg" width="38.798" height="56.139" viewBox="0 0 38.798 56.139">
  <g id="Group_89926" data-name="Group 89926" transform="translate(-728.414 -2721)">
    <path id="Path_101420" data-name="Path 101420" d="M31.164,13.668a1.08,1.08,0,0,1,1.08-1.08H45.2a1.08,1.08,0,1,1,0,2.159H32.244A1.08,1.08,0,0,1,31.164,13.668ZM32.244,60.3H45.2a1.08,1.08,0,1,0,0-2.159H32.244a1.08,1.08,0,1,0,0,2.159ZM60.03,28.785v4.926a2.533,2.533,0,0,1-2.531,2.53h-.911V49.109a7.008,7.008,0,0,1-4.809,6.643c-.22.865-.5,1.73-.771,2.57a16.983,16.983,0,0,0-1.128,5.11,1.08,1.08,0,0,1-1.08,1.08H28.643a1.08,1.08,0,0,1-1.08-1.08,16.979,16.979,0,0,0-1.128-5.11c-.29-.889-.585-1.807-.81-2.723a7.007,7.007,0,0,1-4.393-6.49V23.777a7.006,7.006,0,0,1,4.393-6.49c.225-.916.52-1.833.81-2.722a16.982,16.982,0,0,0,1.128-5.111,1.08,1.08,0,0,1,1.08-1.08H48.8a1.08,1.08,0,0,1,1.08,1.08,16.991,16.991,0,0,0,1.128,5.111c.274.84.552,1.7.771,2.569a7.008,7.008,0,0,1,4.809,6.643v2.477H57.5a2.533,2.533,0,0,1,2.53,2.531Zm-2.159,0a.371.371,0,0,0-.372-.371h-.911v5.668H57.5a.372.372,0,0,0,.372-.372ZM28.488,57.652a23.1,23.1,0,0,1,1.177,4.7H47.778a23.072,23.072,0,0,1,1.177-4.7c.172-.529.338-1.04.488-1.544.013-.042.027-.086.039-.128H27.96L28,56.1c.151.507.318,1.023.492,1.556Zm25.941-8.543V23.777a4.844,4.844,0,0,0-3.751-4.711H27.142a4.845,4.845,0,0,0-3.751,4.711V49.109a4.845,4.845,0,0,0,3.751,4.711H50.679a4.845,4.845,0,0,0,3.75-4.711ZM28,16.79l-.036.117H49.482c-.012-.042-.027-.086-.039-.128q-.234-.775-.488-1.545a23.077,23.077,0,0,1-1.177-4.7H29.664a23.077,23.077,0,0,1-1.177,4.7C28.314,15.766,28.147,16.282,28,16.79Z" transform="translate(707.182 2712.627)" fill="#3b3659"/>
    <path id="Path_101702" data-name="Path 101702" d="M3.984,3.564H2.748L.1,5.232.732,6.348,2.46,5.28V12H3.984Zm4.956,0H7.7L5.052,5.232l.636,1.116L7.416,5.28V12H8.94Zm1.5,3.672a.96.96,0,0,0,.984.96.954.954,0,1,0-.984-.96Zm0,3.984a.95.95,0,0,0,.984.948.948.948,0,1,0,0-1.9A.943.943,0,0,0,10.44,11.22Zm6.492-7.656H15.7L13.044,5.232l.636,1.116L15.408,5.28V12h1.524Zm4.956,0H20.652L18,5.232l.636,1.116L20.364,5.28V12h1.524Z" transform="translate(734.317 2742.139)" fill="#8450ff"/>
  </g>
</svg>
