<svg xmlns="http://www.w3.org/2000/svg" width="39.298" height="56.639" viewBox="0 0 39.298 56.639">
  <g id="Group_89926" data-name="Group 89926" transform="translate(-728.164 -2720.75)">
    <path id="Path_101420" data-name="Path 101420" d="M31.164,13.668a1.08,1.08,0,0,1,1.08-1.08H45.2a1.08,1.08,0,1,1,0,2.159H32.244A1.08,1.08,0,0,1,31.164,13.668ZM32.244,60.3H45.2a1.08,1.08,0,1,0,0-2.159H32.244a1.08,1.08,0,1,0,0,2.159ZM60.03,28.785v4.926a2.533,2.533,0,0,1-2.531,2.53h-.911V49.109a7.008,7.008,0,0,1-4.809,6.643c-.22.865-.5,1.73-.771,2.57a16.983,16.983,0,0,0-1.128,5.11,1.08,1.08,0,0,1-1.08,1.08H28.643a1.08,1.08,0,0,1-1.08-1.08,16.979,16.979,0,0,0-1.128-5.11c-.29-.889-.585-1.807-.81-2.723a7.007,7.007,0,0,1-4.393-6.49V23.777a7.006,7.006,0,0,1,4.393-6.49c.225-.916.52-1.833.81-2.722a16.982,16.982,0,0,0,1.128-5.111,1.08,1.08,0,0,1,1.08-1.08H48.8a1.08,1.08,0,0,1,1.08,1.08,16.991,16.991,0,0,0,1.128,5.111c.274.84.552,1.7.771,2.569a7.008,7.008,0,0,1,4.809,6.643v2.477H57.5a2.533,2.533,0,0,1,2.53,2.531Zm-2.159,0a.371.371,0,0,0-.372-.371h-.911v5.668H57.5a.372.372,0,0,0,.372-.372ZM28.488,57.652a23.1,23.1,0,0,1,1.177,4.7H47.778a23.072,23.072,0,0,1,1.177-4.7c.172-.529.338-1.04.488-1.544.013-.042.027-.086.039-.128H27.96L28,56.1c.151.507.318,1.023.492,1.556Zm25.941-8.543V23.777a4.844,4.844,0,0,0-3.751-4.711H27.142a4.845,4.845,0,0,0-3.751,4.711V49.109a4.845,4.845,0,0,0,3.751,4.711H50.679a4.845,4.845,0,0,0,3.75-4.711ZM28,16.79l-.036.117H49.482c-.012-.042-.027-.086-.039-.128q-.234-.775-.488-1.545a23.077,23.077,0,0,1-1.177-4.7H29.664a23.077,23.077,0,0,1-1.177,4.7C28.314,15.766,28.147,16.282,28,16.79Z" transform="translate(707.182 2712.627)" fill="#3b3659" stroke="#fff" stroke-width="0.5"/>
    <path id="Path_101446" data-name="Path 101446" d="M39.981,29.112a3.007,3.007,0,0,0-.266-1.077c-.378-1.013-.9-2.4-.424-5.969a4.123,4.123,0,0,1,2.958-3.732,4.211,4.211,0,0,1,4.181.891c1,.947,2.137,2.8,1.834,6.235a12.608,12.608,0,0,1-.609,3.318,7.642,7.642,0,0,0-.523,3.508A6.286,6.286,0,0,1,47,34.514a4.148,4.148,0,0,1-.533,1.21,3.96,3.96,0,0,1-3.306,1.539c-.161,0-.323-.009-.486-.025a3.585,3.585,0,0,1-3.125-2.26C38.68,32.722,39.988,29.505,39.981,29.112Zm1.455-6.8c-.407,3.073-.014,4.123.3,4.968a5.014,5.014,0,0,1,.4,1.8,5.08,5.08,0,0,1-.493,2.079,3.419,3.419,0,0,0-.082,3.048,1.485,1.485,0,0,0,1.33.889,2.062,2.062,0,0,0,1.757-.537,1.969,1.969,0,0,0,.256-.581,4.228,4.228,0,0,0,.076-1.464,9.78,9.78,0,0,1,.651-4.5,10.953,10.953,0,0,0,.477-2.742c.179-2.04-.223-3.587-1.165-4.475a1.954,1.954,0,0,0-1.349-.513,2.293,2.293,0,0,0-.695.109,2,2,0,0,0-1.468,1.92ZM27.986,29.865c-.448-3.422.606-5.318,1.568-6.307a4.214,4.214,0,0,1,4.14-1.067,4.139,4.139,0,0,1,3.119,3.641c.618,3.508.158,4.916-.177,5.945a3.023,3.023,0,0,0-.221,1.087,3.2,3.2,0,0,0,.386,1.214,5.542,5.542,0,0,1,.293,4.63,3.586,3.586,0,0,1-3.026,2.39,4.735,4.735,0,0,1-.688.05,3.9,3.9,0,0,1-3.164-1.4,4.141,4.141,0,0,1-.583-1.186,6.29,6.29,0,0,1-.227-2.22,7.649,7.649,0,0,0-.67-3.484A12.609,12.609,0,0,1,27.986,29.865Zm3.115-4.8c-.9.927-1.24,2.49-.974,4.52a10.954,10.954,0,0,0,.593,2.72,9.775,9.775,0,0,1,.84,4.467A4.243,4.243,0,0,0,31.7,38.23a1.975,1.975,0,0,0,.28.568,2.078,2.078,0,0,0,1.779.463,1.486,1.486,0,0,0,1.291-.944,3.42,3.42,0,0,0-.212-3.042,5.074,5.074,0,0,1-.58-2.056,5,5,0,0,1,.326-1.812c.279-.857.628-1.924.1-4.939a2.016,2.016,0,0,0-1.554-1.895h0a2.286,2.286,0,0,0-.6-.082,1.973,1.973,0,0,0-1.419.572ZM41.633,42.551h-.784a2.258,2.258,0,0,0-2.255,2.256,1.08,1.08,0,0,0,2.159,0,.1.1,0,0,1,.1-.1h.784a.1.1,0,0,1,.1.1v.784a.1.1,0,0,1-.1.1,1.08,1.08,0,0,0,0,2.159.1.1,0,0,1,.1.1v.784a.1.1,0,0,1-.1.1h-.784a.1.1,0,0,1-.1-.1,1.08,1.08,0,0,0-2.159,0,2.257,2.257,0,0,0,2.255,2.255h.784a2.258,2.258,0,0,0,2.256-2.255v-.784a2.245,2.245,0,0,0-.331-1.175,2.245,2.245,0,0,0,.331-1.175v-.784A2.259,2.259,0,0,0,41.633,42.551Zm-12.149,0h-2.37a1.08,1.08,0,0,0-1.08,1.08v.784a1.077,1.077,0,0,0,2.113.3h.835l-1.252,2.328a1.083,1.083,0,0,0-.129.511V49.9a1.08,1.08,0,0,0,2.159,0V47.821l1.4-2.606a.951.951,0,0,0,.051-.11,1.862,1.862,0,0,0-1.729-2.555Zm20.675,2.256v3.919A2.257,2.257,0,0,1,47.9,50.98h-.784a2.258,2.258,0,0,1-2.256-2.255V44.806a2.259,2.259,0,0,1,2.256-2.256H47.9A2.258,2.258,0,0,1,50.158,44.806Zm-3.136.976L48,45.05v-.243a.1.1,0,0,0-.1-.1h-.784a.1.1,0,0,0-.1.1ZM48,47.75l-.976.732v.243a.1.1,0,0,0,.1.1H47.9a.1.1,0,0,0,.1-.1ZM37.618,44.806v.784a2.231,2.231,0,0,1-.34,1.175,2.237,2.237,0,0,1,.34,1.175v.784a2.258,2.258,0,0,1-2.256,2.255h-.784a2.258,2.258,0,0,1-2.256-2.255v-.784a2.229,2.229,0,0,1,.34-1.175,2.237,2.237,0,0,1-.34-1.175v-.784a2.258,2.258,0,0,1,2.256-2.256h.784a2.259,2.259,0,0,1,2.256,2.256Zm-3.135.784a.1.1,0,0,0,.1.1h.784a.1.1,0,0,0,.1-.1v-.784a.1.1,0,0,0-.1-.1h-.784a.1.1,0,0,0-.1.1Zm.976,2.351a.1.1,0,0,0-.1-.1h-.784a.1.1,0,0,0-.1.1v.784a.1.1,0,0,0,.1.1h.784a.1.1,0,0,0,.1-.1Z" transform="translate(708.227 2714.28)" fill="#8450ff" stroke="#fff" stroke-width="0.5"/>
  </g>
</svg>
