<svg xmlns="http://www.w3.org/2000/svg" width="72.013" height="56" viewBox="0 0 72.013 56">
  <g id="Group_89956" data-name="Group 89956" transform="translate(-188 -38)">
    <path id="handshake_3_" data-name="handshake (3)" d="M65.207,68.868A2.263,2.263,0,0,0,62.273,67.6L54.165,70.8a2.264,2.264,0,0,0-1.271,2.934l.34.859c-3.4,1.685-5.9,2.147-7.219,1.329l-.052-.03a12.293,12.293,0,0,0-10.139-.557,13.446,13.446,0,0,0-10-.417,5.992,5.992,0,0,1-4.42-.315l-2.226-1.03A2.26,2.26,0,0,0,17.85,70.8L9.74,67.6a2.263,2.263,0,0,0-2.934,1.271L.159,85.674a2.263,2.263,0,0,0,1.271,2.934l8.109,3.208a2.258,2.258,0,0,0,2.822-1.033l.777.317a.548.548,0,0,1,.356.5c.017.274.058.629.106,1.041.056.488.126,1.081.171,1.7l-1.861,3.224a3.978,3.978,0,0,0,4.939,5.677,3.972,3.972,0,0,0,3.926,3.427,4.018,4.018,0,0,0,1.5-.294,3.972,3.972,0,0,0,3.926,3.429,4.024,4.024,0,0,0,1.042-.138,4.07,4.07,0,0,0,.464-.156,4.1,4.1,0,0,0,.1.481,3.977,3.977,0,0,0,7.287.961l.107-.186.894.516a3.977,3.977,0,0,0,5.807-4.559,3.96,3.96,0,0,0,3.811-4.807c.111.009.221.016.332.016a3.973,3.973,0,0,0,3.848-5.008c-.01-.038-.022-.076-.033-.114a4.021,4.021,0,0,0,.9-.134,3.966,3.966,0,0,0,2.84-2.911l6.176-2.763a2.26,2.26,0,0,0,2.7.825l8.109-3.208a2.264,2.264,0,0,0,1.271-2.934ZM10.159,90.246,2.05,87.038a.576.576,0,0,1-.322-.743L8.376,69.488a.569.569,0,0,1,.305-.314.575.575,0,0,1,.229-.048.567.567,0,0,1,.208.04l8.11,3.208a.576.576,0,0,1,.322.743L10.9,89.924A.574.574,0,0,1,10.159,90.246Zm4.05,11.283A2.3,2.3,0,0,1,13.37,98.4l2.288-3.963a2.292,2.292,0,0,1,3.97,2.292L17.34,100.69a2.3,2.3,0,0,1-3.131.839Zm7.17,3.361a2.288,2.288,0,0,1-2.577-3.356L21.09,97.57h0l1.449-2.508a2.292,2.292,0,0,1,3.969,2.292l-3.737,6.473a2.275,2.275,0,0,1-1.392,1.064Zm5.431,3.136a2.288,2.288,0,0,1-2.577-3.356l2.862-4.958A2.292,2.292,0,0,1,31.065,102L30.3,103.33l-2.1,3.632a2.275,2.275,0,0,1-1.393,1.064Zm6.824,2.072a2.292,2.292,0,0,1-3.971-2.292l2.1-3.634a2.292,2.292,0,1,1,3.968,2.294Zm6.437-1.126a2.3,2.3,0,0,1-3.131.839l-.894-.516,1.146-1.985a3.956,3.956,0,0,0,.517-2.326l1.6.909a2.293,2.293,0,0,1,.759,3.08Zm11.646-15a2.3,2.3,0,0,1-3.131.839l-.544-.314-4.887-2.821a.844.844,0,1,0-.844,1.462L47.2,95.957a2.292,2.292,0,1,1-2.292,3.969L43.82,99.3h0l-4.342-2.507a.844.844,0,0,0-.844,1.462l4.343,2.508a2.292,2.292,0,1,1-2.3,3.966l-.461-.262c-.046-.029-.092-.058-.139-.085l0,0-3.877-2.2a3.96,3.96,0,0,0-3.176-.775,3.986,3.986,0,0,0-1.95-4,3.943,3.943,0,0,0-2.634-.477,3.98,3.98,0,0,0-7.175-3,3.985,3.985,0,0,0-5.991-1.543c-.042-.365-.078-.679-.092-.9a2.244,2.244,0,0,0-1.4-1.955L13,89.219,18.56,75.154l2.131.986a7.713,7.713,0,0,0,5.615.4,12.532,12.532,0,0,1,7.51-.191.807.807,0,0,0-.069.06,45.855,45.855,0,0,1-9.973,7.343.844.844,0,0,0-.307,1.19c2.352,3.729,5.593,4.727,9.374,2.887,2.3-.764,4.685-1.484,7.1-2.141a3.253,3.253,0,0,1,2.6.338l8.339,4.814a2.3,2.3,0,0,1,.839,3.129Zm.005-4.592-8.339-4.814a4.928,4.928,0,0,0-3.884-.5c-2.465.67-4.9,1.406-7.246,2.186a.835.835,0,0,0-.106.044c-2.774,1.368-4.938.89-6.749-1.514a47.351,47.351,0,0,0,9.457-7.091,10.589,10.589,0,0,1,10.3-.307c1.873,1.139,4.724.746,8.7-1.2l5.248,13.268-5.5,2.463a3.969,3.969,0,0,0-1.879-2.527Zm18.554-2.645a.569.569,0,0,1-.314.305l-8.109,3.208a.574.574,0,0,1-.744-.322L54.463,73.118a.576.576,0,0,1,.322-.743l8.109-3.208a.576.576,0,0,1,.743.322l6.648,16.806a.569.569,0,0,1-.008.438Z" transform="translate(188 -18.93)" fill="#3b3659"/>
    <path id="handshake_3_2" data-name="handshake (3)" d="M8.328,83.735a2.295,2.295,0,1,0,2.295,2.295,2.295,2.295,0,0,0-2.295-2.295Zm0,2.9a.607.607,0,1,1,.607-.607.607.607,0,0,1-.607.607Zm55.06-2.9a2.295,2.295,0,1,0,2.3,2.3A2.295,2.295,0,0,0,63.388,83.735Zm0,2.9A.607.607,0,1,1,64,86.03.607.607,0,0,1,63.388,86.637ZM35.163,67.071v-9.3a.844.844,0,0,1,1.688,0v9.3a.844.844,0,1,1-1.688,0ZM22.145,62.22a.844.844,0,1,1,1.462-.844l4.648,8.051a.844.844,0,1,1-1.462.844Zm21.866,6.263,4.648-8.051a.844.844,0,0,1,1.462.844l-4.649,8.051a.844.844,0,1,1-1.462-.844Z" transform="translate(188 -18.93)" fill="#8450ff"/>
  </g>
</svg>
