<svg xmlns="http://www.w3.org/2000/svg" width="55.735" height="48.902" viewBox="0 0 55.735 48.902">
  <g id="Group_89927" data-name="Group 89927" transform="translate(0 -8.99)">
    <path id="Path_101440" data-name="Path 101440" d="M31.479,32.613a1.739,1.739,0,0,0-1.742-1.732H28a1.739,1.739,0,0,0-1.742,1.732v1.732A1.739,1.739,0,0,0,28,36.078h1.742a1.739,1.739,0,0,0,1.742-1.733ZM28,34.345V32.614h1.742v1.732Zm10.45-1.732A1.739,1.739,0,0,0,36.7,30.881H34.963a1.739,1.739,0,0,0-1.742,1.732v1.732a1.739,1.739,0,0,0,1.742,1.733H36.7a1.739,1.739,0,0,0,1.742-1.733Zm-3.483,1.732V32.614H36.7v1.732Zm-3.483,5.2a1.739,1.739,0,0,0-1.742-1.732H28a1.739,1.739,0,0,0-1.742,1.732v1.733A1.739,1.739,0,0,0,28,43.007h1.742a1.739,1.739,0,0,0,1.742-1.732ZM28,41.275V39.542h1.742v1.733Zm10.45-1.733A1.739,1.739,0,0,0,36.7,37.81H34.963a1.739,1.739,0,0,0-1.742,1.732v1.733a1.739,1.739,0,0,0,1.742,1.732H36.7a1.739,1.739,0,0,0,1.742-1.732Zm-3.483,1.733V39.542H36.7v1.733Zm-3.483,5.2a1.739,1.739,0,0,0-1.742-1.733H28a1.739,1.739,0,0,0-1.742,1.733V48.2A1.739,1.739,0,0,0,28,49.936h1.742A1.739,1.739,0,0,0,31.479,48.2ZM28,48.2V46.472h1.742V48.2Zm10.45-1.732A1.739,1.739,0,0,0,36.7,44.739H34.963a1.739,1.739,0,0,0-1.742,1.733V48.2a1.739,1.739,0,0,0,1.742,1.732H36.7A1.739,1.739,0,0,0,38.446,48.2ZM34.963,48.2V46.472H36.7V48.2ZM36.7,51.668H34.963A1.739,1.739,0,0,0,33.221,53.4v1.732a1.739,1.739,0,0,0,1.742,1.732H36.7a1.739,1.739,0,0,0,1.742-1.732V53.4A1.739,1.739,0,0,0,36.7,51.668Zm-1.742,3.465V53.4H36.7v1.732ZM13.225,48.78a2.613,2.613,0,1,0-2.613,2.6,2.613,2.613,0,0,0,2.613-2.6Zm-3.483,0a.871.871,0,1,1,.871.866.871.871,0,0,1-.871-.866Z" transform="translate(-4.517 -11.924)" fill="#8450ff"/>
    <path id="Path_101441" data-name="Path 101441" d="M49.639,65.858a5.974,5.974,0,0,0-6.1,5.829c0,2.424,3.041,6.819,4.388,8.646-4.332,1.416-11.245,2.532-20.113,2.532-2.391,0-4.639-.082-6.735-.228,1.431-1.973,4.172-6.052,4.172-8.352a5.974,5.974,0,0,0-6.1-5.829,5.974,5.974,0,0,0-6.1,5.829c0,2.157,2.41,5.877,3.891,7.959C7.863,81.137,2.59,78.763,2.59,76.925c0-1.436,3.22-3.2,8.963-4.428a7.352,7.352,0,0,1,.779-1.912c-1.33.253-2.586.54-3.747.863,1.485-2.132,3.608-5.531,3.608-7.556a5.974,5.974,0,0,0-6.1-5.829A5.974,5.974,0,0,0,0,63.891c0,2.584,3.456,7.408,4.63,8.972C2.27,73.974.848,75.332.848,76.925c0,4.983,13.9,7.671,26.97,7.671,8.357,0,17.038-1.1,22.223-3.2a1.743,1.743,0,0,0,.991-.645c1.1-1.461,4.7-6.434,4.7-9.07A5.973,5.973,0,0,0,49.639,65.858Zm-47.9-1.967a4.231,4.231,0,0,1,4.354-4.1,4.231,4.231,0,0,1,4.354,4.1c0,2.262-4.354,8.029-4.354,8.029s-4.354-5.766-4.354-8.029ZM14.8,74.284a4.231,4.231,0,0,1,4.354-4.1,4.231,4.231,0,0,1,4.354,4.1c0,2.262-4.354,8.029-4.354,8.029S14.8,76.547,14.8,74.284ZM49.65,79.7l-.017.007c-.121-.161-4.348-5.792-4.348-8.022a4.362,4.362,0,0,1,8.709,0c0,2.2-4.114,7.709-4.343,8.015Z" transform="translate(0 -26.705)" fill="#3b3659"/>
    <path id="Path_101442" data-name="Path 101442" d="M71.129,81.361a2.6,2.6,0,1,0,2.613,2.6A2.6,2.6,0,0,0,71.129,81.361Zm0,3.465A.867.867,0,1,1,72,83.96.867.867,0,0,1,71.129,84.826ZM46.711,78.62H44.969a1.73,1.73,0,0,0-1.088.391,7.883,7.883,0,0,1,2.086,1.341h.745v.753a7.5,7.5,0,0,1,1.275,2.15,1.716,1.716,0,0,0,.466-1.171V80.353a1.739,1.739,0,0,0-1.742-1.733Zm-6.062,4.907a2.6,2.6,0,1,0,2.613,2.6,2.6,2.6,0,0,0-2.613-2.6Zm0,3.465a.867.867,0,1,1,.871-.867A.867.867,0,0,1,40.649,86.992Z" transform="translate(-21.49 -38.509)" fill="#3b3659"/>
    <path id="Path_101443" data-name="Path 101443" d="M60.21,49.7a.869.869,0,0,0,.871-.866V43.759c1.571.165,3.036.367,4.392.6a7.286,7.286,0,0,1,.221-1.7q-2.3-.382-4.613-.619V16.789a1.739,1.739,0,0,0-1.742-1.732h-.871V13.325a1.739,1.739,0,0,0-1.742-1.733h-.435V9.861a.871.871,0,1,0-1.742,0v1.732h-.435a1.739,1.739,0,0,0-1.742,1.733v1.732H50.631V13.326a1.739,1.739,0,0,0-1.742-1.733h-.435V9.861a.871.871,0,1,0-1.742,0v1.732h-.435a1.739,1.739,0,0,0-1.742,1.733v1.732h-.871a1.739,1.739,0,0,0-1.742,1.732V39.074a7.705,7.705,0,0,1,1.742-.01V16.789H59.339V48.837A.869.869,0,0,0,60.21,49.7ZM48.889,15.057H46.276V13.325h2.613Zm7.838,0H54.114V13.325h2.613Z" transform="translate(-23.668 0)" fill="#8450ff"/>
  </g>
</svg>
