<svg xmlns="http://www.w3.org/2000/svg" width="51.667" height="56" viewBox="0 0 51.667 56">
  <g id="Group_89958" data-name="Group 89958" transform="translate(-737 -2230)">
    <g id="_26-Clean" data-name="26-Clean" transform="translate(735.004 2230.01)">
      <path id="Path_101694" data-name="Path 101694" d="M32.62,55.99h-10.5a.875.875,0,0,1-.875-.875,27.652,27.652,0,0,0-.46-3.793,4.325,4.325,0,0,0-1.624-2.707,42.192,42.192,0,0,1-7.261-7.7A34.617,34.617,0,0,0,4.762,37.89a3.629,3.629,0,0,1-2.57-4.7,3.836,3.836,0,0,1,3.683-2.57H8.124a14.861,14.861,0,0,1,5.46,1.508c1.7.71,3.3,1.383,4.214,1a1.783,1.783,0,0,0,.886-1.08,24.579,24.579,0,0,0,1.688-4.972v-1.6L16.085,7.844a3.164,3.164,0,0,1,.087-1.755l.087-.278a3.33,3.33,0,0,1,1.945-2.1,3.237,3.237,0,0,1,3.412.714l.626.626a3.241,3.241,0,0,1,.842,1.472l4.081,17.015a.1.1,0,0,0,.206-.023V3.551A3.272,3.272,0,0,1,30.87,0a3.46,3.46,0,0,1,3.5,3.47l.009,20.09.971.122-.868-.113,2.38-18.285a3.062,3.062,0,0,1,2.115-2.506,3.166,3.166,0,0,1,3.158.72l.071.071a2.967,2.967,0,0,1,.9,2.388L41.836,20.172l3.469-7.834a2.951,2.951,0,0,1,3.656-1.695,2.982,2.982,0,0,1,2.031,2.88,9.162,9.162,0,0,1-.525,2.975L46.005,29.161l-1.65-.583L48.82,15.921a7.436,7.436,0,0,0,.423-2.415,1.24,1.24,0,0,0-.812-1.2,1.213,1.213,0,0,0-1.513.7L41.294,25.72a.875.875,0,0,1-1.675-.428L41.36,5.81a1.237,1.237,0,0,0-.382-.989.969.969,0,0,1-.073-.073,1.388,1.388,0,0,0-1.391-.3A1.312,1.312,0,0,0,38.6,5.51L36.217,23.8a1.8,1.8,0,0,1-3.589-.251L32.62,3.5a1.734,1.734,0,0,0-1.75-1.75c-1.193,0-1.75.572-1.75,1.8V23.515a1.855,1.855,0,0,1-3.656.443l-4.08-17.01A1.469,1.469,0,0,0,21,6.287l-.622-.622a1.457,1.457,0,0,0-1.562-.318,1.61,1.61,0,0,0-.9,1.014l-.087.284a1.434,1.434,0,0,0-.042.8L22.1,25.163a.86.86,0,0,1,.017.206v1.75c0,.244-.13,1.37-1.812,5.574a3.477,3.477,0,0,1-1.837,2.045c-1.593.668-3.523-.142-5.567-1a13.435,13.435,0,0,0-4.782-1.373H5.875a2.116,2.116,0,0,0-2.022,1.37,1.913,1.913,0,0,0,.128,1.537,1.891,1.891,0,0,0,1.2.915,36.657,36.657,0,0,1,7.751,3.292.886.886,0,0,1,.277.251,41.622,41.622,0,0,0,7.021,7.5,6.071,6.071,0,0,1,2.281,3.8c.227,1.359.374,2.419.437,3.208H32.62Z" transform="translate(0 0)" fill="#3b3659"/>
      <path id="Path_101695" data-name="Path 101695" d="M33.367,37.9a28.958,28.958,0,0,1-6.148-5.432l1.366-1.094a27.678,27.678,0,0,0,5.745,5.065Z" transform="translate(-3.156 -3.927)" fill="#3b3659"/>
      <path id="Path_101696" data-name="Path 101696" d="M30.542,41.858A24.872,24.872,0,0,0,25.5,37.647l.875-1.511a26.1,26.1,0,0,1,5.451,4.536Z" transform="translate(-2.941 -4.523)" fill="#3b3659"/>
    </g>
    <g id="Icon_feather-check-circle" data-name="Icon feather-check-circle" transform="translate(761.919 2259.008)">
      <path id="Path_101700" data-name="Path 101700" d="M25.334,13.137v1.027A11.167,11.167,0,1,1,18.712,3.958" transform="translate(0 0)" fill="none" stroke="#8450ff" stroke-linecap="round" stroke-linejoin="round" stroke-width="2"/>
      <path id="Path_101701" data-name="Path 101701" d="M28.017,6,16.85,17.178l-3.35-3.35" transform="translate(-2.683 -0.769)" fill="none" stroke="#8450ff" stroke-linecap="round" stroke-linejoin="round" stroke-width="2"/>
    </g>
  </g>
</svg>
