<svg xmlns="http://www.w3.org/2000/svg" width="56.118" height="48.191" viewBox="0 0 56.118 48.191">
  <g id="workout_virtual_exercise_fitness_online" data-name="workout, virtual, exercise, fitness, online" transform="translate(-3.821 -3.898)">
    <path id="Path_101444" data-name="Path 101444" d="M52.264,40.159V22.777a.981.981,0,1,0-1.963,0V39.462H46.2a.981.981,0,0,0,0,1.963h4.544l4.662,7.322a.981.981,0,0,1-.824,1.511H6.764a.981.981,0,0,1-.8-1.511L10.6,41.425H36.385a.981.981,0,0,0,0-1.963H11.044V15.907a2.944,2.944,0,0,1,2.944-2.944H26.747a.981.981,0,1,0,0-1.963H13.988a4.907,4.907,0,0,0-4.907,4.907V40.159L4.281,47.7a2.944,2.944,0,0,0,2.483,4.525H54.581A2.944,2.944,0,0,0,57.064,47.7Z" transform="translate(0 -0.132)" fill="#3b3659"/>
    <path id="Path_101445" data-name="Path 101445" d="M36.481,39.33a.981.981,0,0,0,0,1.963h9.995a.981.981,0,0,0,0-1.963Zm10.081-4.907a.981.981,0,0,0-.981-.981H24.97a.981.981,0,0,0-1.963,0H20.063a.981.981,0,1,0,0,1.963h2.944a.981.981,0,0,0,1.963,0h20.61A.981.981,0,0,0,46.562,34.423Zm-32.093-2.3a.981.981,0,0,0-.609.913v2.768a.985.985,0,0,0,1.678.7l1.4-1.384a.981.981,0,0,0,0-1.394l-1.384-1.384A.981.981,0,0,0,14.468,32.127ZM57.181,6.746H56.2a2.946,2.946,0,0,0-5.889.2V8.905H49.33a.981.981,0,1,0,0,1.963h.981v1.963H42.46V10.868h6.96a.981.981,0,1,0,0-1.963H42.46V6.942a2.946,2.946,0,1,0-5.889-.2h-.981a2.944,2.944,0,0,0-2.944,2.944v4.318a2.944,2.944,0,0,0,2.944,2.944h.981a2.946,2.946,0,1,0,5.889-.2V14.794h7.852v1.963a2.946,2.946,0,0,0,5.889.2h.981a2.944,2.944,0,0,0,2.944-2.944V9.691a2.944,2.944,0,0,0-2.944-2.944ZM34.608,14.009V9.691a.981.981,0,0,1,.981-.981h.981V14.99h-.981A.981.981,0,0,1,34.608,14.009ZM40.5,16.757a.981.981,0,1,1-1.963,0V6.942a.981.981,0,1,1,1.963,0Zm13.74,0a.981.981,0,1,1-1.963,0V6.942a.981.981,0,0,1,1.963,0Zm3.926-2.748a.981.981,0,0,1-.981.981H56.2V8.709h.981a.981.981,0,0,1,.981.981Z" transform="translate(-0.186 0)" fill="#8450ff"/>
  </g>
</svg>
