<svg xmlns="http://www.w3.org/2000/svg" width="55.989" height="55.976" viewBox="0 0 55.989 55.976">
  <g id="Group_89959" data-name="Group 89959" transform="translate(-190.012 -39.024)">
    <path id="execution" d="M36.936,63.088a.9.9,0,0,1-.9.906h-.1A27.99,27.99,0,0,1,24.66,10.4L22.6,9.881A.9.9,0,1,1,23.04,8.13l4.847,1.215a.9.9,0,0,1,.578,1.3l-2.341,4.414a.9.9,0,0,1-1.6-.846l1.232-2.323a26.183,26.183,0,0,0,10.269,50.3h0a.9.9,0,0,1,.9.9ZM63.6,31.632A27.988,27.988,0,0,0,35.984,8.018h-.1a.9.9,0,0,0,0,1.806h0a26.183,26.183,0,0,1,10.269,50.3L47.387,57.8a.9.9,0,0,0-1.6-.846l-2.341,4.414a.9.9,0,0,0,.578,1.3l4.847,1.215a.9.9,0,0,0,.439-1.752l-2.059-.516A27.994,27.994,0,0,0,63.6,31.632ZM44.889,51.453a17.714,17.714,0,0,1-4.324,1.792l-1.091,2.836a.9.9,0,0,1-.843.579H33.285a.9.9,0,0,1-.843-.579l-1.092-2.836a17.724,17.724,0,0,1-4.322-1.792l-2.78,1.235a.9.9,0,0,1-1-.187l-3.78-3.78a.9.9,0,0,1-.187-1l1.234-2.779a17.721,17.721,0,0,1-1.792-4.324l-2.836-1.091a.9.9,0,0,1-.579-.843V33.333a.9.9,0,0,1,.579-.843L18.719,31.4a17.721,17.721,0,0,1,1.792-4.323L19.277,24.3a.9.9,0,0,1,.187-1l3.78-3.78a.9.9,0,0,1,1-.187l2.78,1.235a17.726,17.726,0,0,1,4.322-1.792l1.092-2.836a.9.9,0,0,1,.843-.579h5.346a.9.9,0,0,1,.843.579l1.092,2.836a17.722,17.722,0,0,1,4.322,1.792l2.78-1.235a.9.9,0,0,1,1,.187l3.78,3.78a.9.9,0,0,1,.187,1l-1.234,2.779A17.724,17.724,0,0,1,53.2,31.4l2.836,1.092a.9.9,0,0,1,.579.843v5.346a.9.9,0,0,1-.579.843L53.2,40.614A17.729,17.729,0,0,1,51.4,44.936l1.234,2.78a.9.9,0,0,1-.187,1l-3.78,3.78a.9.9,0,0,1-1,.187Zm.305-1.84,2.64,1.173,2.9-2.9-1.173-2.641a.9.9,0,0,1,.056-.84,15.932,15.932,0,0,0,1.937-4.672.9.9,0,0,1,.554-.634l2.694-1.037V33.953l-2.694-1.037a.9.9,0,0,1-.554-.634,15.928,15.928,0,0,0-1.937-4.673.9.9,0,0,1-.056-.84l1.172-2.64-2.9-2.9L45.193,22.4a.9.9,0,0,1-.84-.056,15.93,15.93,0,0,0-4.672-1.937.9.9,0,0,1-.634-.554l-1.037-2.695H33.9l-1.037,2.695a.9.9,0,0,1-.633.554,15.932,15.932,0,0,0-4.672,1.937.9.9,0,0,1-.84.056l-2.641-1.173-2.9,2.9,1.173,2.641a.9.9,0,0,1-.056.84,15.931,15.931,0,0,0-1.937,4.672.9.9,0,0,1-.554.634L17.11,33.953v4.106L19.8,39.1a.9.9,0,0,1,.554.634A15.925,15.925,0,0,0,22.295,44.4a.9.9,0,0,1,.056.84l-1.172,2.64,2.9,2.9,2.641-1.173a.9.9,0,0,1,.84.056,15.93,15.93,0,0,0,4.672,1.937.9.9,0,0,1,.634.554L33.9,54.854h4.106l1.037-2.694a.9.9,0,0,1,.634-.554,15.93,15.93,0,0,0,4.673-1.937.9.9,0,0,1,.84-.056Z" transform="translate(182.048 31.006)" fill="#3b3659"/>
    <path id="execution-2" data-name="execution" d="M47,36.006A11.041,11.041,0,1,1,35.958,24.965,11.054,11.054,0,0,1,47,36.006Zm-1.806,0a9.236,9.236,0,1,0-9.236,9.236A9.246,9.246,0,0,0,45.194,36.006Zm-2.866-1.334Q41.21,35.8,40.1,36.93c-1.231,1.249-2.5,2.54-3.766,3.8a2.407,2.407,0,0,1-3.4,0L29.6,37.4A2.407,2.407,0,0,1,33,34l1.624,1.624,4.291-4.334a2.385,2.385,0,0,1,1.7-.711h.009a2.4,2.4,0,0,1,1.707,4.1Zm-1.285-2.117a.6.6,0,0,0-.422-.174h0a.591.591,0,0,0-.42.176l-4.93,4.979a.9.9,0,0,1-.639.268h0a.9.9,0,0,1-.638-.264l-2.265-2.265a.6.6,0,0,0-.85.85L34.2,39.455a.6.6,0,0,0,.85,0c1.258-1.258,2.528-2.546,3.757-3.793q1.115-1.132,2.233-2.261A.6.6,0,0,0,41.043,32.555Z" transform="translate(182.048 31.006)" fill="#8450ff"/>
  </g>
</svg>
