<svg xmlns="http://www.w3.org/2000/svg" width="180.44" height="54.873" viewBox="0 0 180.44 54.873">
  <g id="Group_89602" data-name="Group 89602" transform="translate(-550 -8525.991)">
    <path id="Path_100949" data-name="Path 100949" d="M173.468,978.177H6.978A6.975,6.975,0,0,1,0,971.2V930.279A6.975,6.975,0,0,1,6.978,923.3H173.468a6.975,6.975,0,0,1,6.975,6.975V971.2a6.975,6.975,0,0,1-6.975,6.975" transform="translate(549.997 7602.687)" fill="#3b3659"/>
    <path id="Path_100950" data-name="Path 100950" d="M131.718,1167.2c-2.927,5.079-1.066,12.788,2.17,17.462,1.616,2.337,3.252,4.434,5.492,4.434.042,0,.085,0,.128,0a6.777,6.777,0,0,0,2.549-.679,6.981,6.981,0,0,1,3.02-.716,6.567,6.567,0,0,1,2.874.692,6.083,6.083,0,0,0,2.753.66c2.524-.047,4.073-2.31,5.44-4.307a19.089,19.089,0,0,0,2.384-4.882l.01-.031a.284.284,0,0,0-.151-.348l-.02-.009a7.234,7.234,0,0,1-4.384-6.625,7.446,7.446,0,0,1,3.519-6.225l.028-.018a.283.283,0,0,0,.08-.4,8.187,8.187,0,0,0-6.441-3.5,5.578,5.578,0,0,0-.561-.028,11.225,11.225,0,0,0-4.043,1.01,6.5,6.5,0,0,1-1.936.579,6.337,6.337,0,0,1-2-.585,9.708,9.708,0,0,0-3.531-.9H139a8.656,8.656,0,0,0-7.287,4.411" transform="translate(429.483 7381.211)" fill="#fff"/>
    <path id="Path_100951" data-name="Path 100951" d="M321.564,1052.912a7.9,7.9,0,0,0-5.219,2.677,7.405,7.405,0,0,0-1.875,5.492.285.285,0,0,0,.26.246c.121.009.244.014.367.014a6.688,6.688,0,0,0,4.926-2.527,7.807,7.807,0,0,0,1.835-5.65.285.285,0,0,0-.294-.253" transform="translate(259.091 7482.772)" fill="#fff"/>
    <path id="Path_100952" data-name="Path 100952" d="M685.172,1050.966h3.393a4.967,4.967,0,0,1,2.371.551,4.031,4.031,0,0,1,1.611,1.525,4.534,4.534,0,0,1,0,4.422,4.032,4.032,0,0,1-1.611,1.525,4.967,4.967,0,0,1-2.371.551h-3.393Zm3.344,8.012a4.476,4.476,0,0,0,2.095-.472,3.374,3.374,0,0,0,1.4-1.317,4.068,4.068,0,0,0,0-3.871,3.376,3.376,0,0,0-1.4-1.317,4.479,4.479,0,0,0-2.095-.472H685.8v7.448Z" transform="translate(-83.928 7484.573)" fill="#fff"/>
    <path id="Path_100953" data-name="Path 100953" d="M810.068,1085.54a3,3,0,0,1-1.145-1.158,3.565,3.565,0,0,1,0-3.344,3,3,0,0,1,1.145-1.158,3.418,3.418,0,0,1,3.271,0,3,3,0,0,1,1.145,1.158,3.565,3.565,0,0,1,0,3.344,3,3,0,0,1-1.145,1.158,3.419,3.419,0,0,1-3.271,0m2.952-.478a2.463,2.463,0,0,0,.919-.955,3.063,3.063,0,0,0,0-2.793,2.466,2.466,0,0,0-.919-.956,2.7,2.7,0,0,0-2.634,0,2.464,2.464,0,0,0-.919.956,3.063,3.063,0,0,0,0,2.793,2.46,2.46,0,0,0,.919.955,2.7,2.7,0,0,0,2.634,0" transform="translate(-198.038 7458.206)" fill="#fff"/>
    <path id="Path_100954" data-name="Path 100954" d="M911.526,1080.12l-2.426,6.395h-.576l-2.156-5.549-2.168,5.549h-.563l-2.426-6.395h.588l2.132,5.708,2.18-5.708h.527l2.168,5.7,2.156-5.7Z" transform="translate(-283.81 7457.599)" fill="#fff"/>
    <path id="Path_100955" data-name="Path 100955" d="M1063.148,1080.163a2.719,2.719,0,0,1,.7,2.009v3.736h-.612v-3.687a2.27,2.27,0,0,0-.545-1.642,2.024,2.024,0,0,0-1.525-.563,2.351,2.351,0,0,0-1.776.674,2.5,2.5,0,0,0-.649,1.813v3.406h-.613v-6.395h.588v1.384a2.434,2.434,0,0,1,.986-1.054,3.039,3.039,0,0,1,1.55-.38,2.566,2.566,0,0,1,1.9.7" transform="translate(-428.988 7458.205)" fill="#fff"/>
    <rect id="Rectangle_69430" data-name="Rectangle 69430" width="0.613" height="9.09" transform="translate(637.381 8535.024)" fill="#fff"/>
    <path id="Path_100956" data-name="Path 100956" d="M1203.329,1085.54a3,3,0,0,1-1.145-1.158,3.565,3.565,0,0,1,0-3.344,3,3,0,0,1,1.145-1.158,3.418,3.418,0,0,1,3.271,0,3,3,0,0,1,1.146,1.158,3.565,3.565,0,0,1,0,3.344,3,3,0,0,1-1.146,1.158,3.419,3.419,0,0,1-3.271,0m2.952-.478a2.464,2.464,0,0,0,.919-.955,3.064,3.064,0,0,0,0-2.793,2.467,2.467,0,0,0-.919-.956,2.7,2.7,0,0,0-2.634,0,2.462,2.462,0,0,0-.919.956,3.063,3.063,0,0,0,0,2.793,2.459,2.459,0,0,0,.919.955,2.7,2.7,0,0,0,2.634,0" transform="translate(-561.887 7458.206)" fill="#fff"/>
    <path id="Path_100957" data-name="Path 100957" d="M1309.186,1080.072a2.347,2.347,0,0,1,.637,1.782v4.055h-.588v-1.139a2.128,2.128,0,0,1-.894.876,2.966,2.966,0,0,1-1.409.312,2.6,2.6,0,0,1-1.684-.5,1.737,1.737,0,0,1-.049-2.615,2.738,2.738,0,0,1,1.819-.5h2.193v-.514a1.8,1.8,0,0,0-.484-1.36,1.963,1.963,0,0,0-1.415-.466,3.412,3.412,0,0,0-1.219.221,3.055,3.055,0,0,0-.986.588l-.306-.441a3.4,3.4,0,0,1,1.151-.668,4.186,4.186,0,0,1,1.409-.239,2.546,2.546,0,0,1,1.825.607m-.815,5.016a2.237,2.237,0,0,0,.839-1.066v-1.2h-2.18a2.171,2.171,0,0,0-1.366.343,1.149,1.149,0,0,0-.423.943,1.181,1.181,0,0,0,.465.986,2.094,2.094,0,0,0,1.311.361,2.406,2.406,0,0,0,1.354-.367" transform="translate(-657.056 7458.205)" fill="#fff"/>
    <path id="Path_100958" data-name="Path 100958" d="M1405.024,1044.085v9.09h-.6v-1.507a2.747,2.747,0,0,1-1.066,1.151,3.006,3.006,0,0,1-1.556.4,3.179,3.179,0,0,1-1.617-.417,2.982,2.982,0,0,1-1.133-1.152,3.383,3.383,0,0,1-.41-1.678,3.42,3.42,0,0,1,.41-1.684,2.929,2.929,0,0,1,1.133-1.151,3.218,3.218,0,0,1,1.617-.41,2.95,2.95,0,0,1,1.537.4,2.878,2.878,0,0,1,1.072,1.127v-4.177Zm-1.868,8.244a2.465,2.465,0,0,0,.919-.955,3.064,3.064,0,0,0,0-2.793,2.468,2.468,0,0,0-.919-.956,2.7,2.7,0,0,0-2.634,0,2.464,2.464,0,0,0-.919.956,3.064,3.064,0,0,0,0,2.793,2.461,2.461,0,0,0,.919.955,2.7,2.7,0,0,0,2.634,0" transform="translate(-744.037 7490.939)" fill="#fff"/>
    <path id="Path_100959" data-name="Path 100959" d="M1552.855,1085.54a3,3,0,0,1-1.145-1.158,3.565,3.565,0,0,1,0-3.344,3,3,0,0,1,1.145-1.158,3.418,3.418,0,0,1,3.271,0,3,3,0,0,1,1.145,1.158,3.565,3.565,0,0,1,0,3.344,3,3,0,0,1-1.145,1.158,3.419,3.419,0,0,1-3.271,0m2.952-.478a2.462,2.462,0,0,0,.919-.955,3.064,3.064,0,0,0,0-2.793,2.466,2.466,0,0,0-.919-.956,2.7,2.7,0,0,0-2.634,0,2.463,2.463,0,0,0-.919.956,3.063,3.063,0,0,0,0,2.793,2.46,2.46,0,0,0,.919.955,2.7,2.7,0,0,0,2.634,0" transform="translate(-885.271 7458.206)" fill="#fff"/>
    <path id="Path_100960" data-name="Path 100960" d="M1667.2,1080.163a2.719,2.719,0,0,1,.7,2.009v3.736h-.613v-3.687a2.27,2.27,0,0,0-.545-1.642,2.024,2.024,0,0,0-1.525-.563,2.352,2.352,0,0,0-1.776.674,2.5,2.5,0,0,0-.649,1.813v3.406h-.613v-6.395h.588v1.384a2.434,2.434,0,0,1,.986-1.054,3.038,3.038,0,0,1,1.55-.38,2.565,2.565,0,0,1,1.9.7" transform="translate(-987.866 7458.205)" fill="#fff"/>
    <path id="Path_100961" data-name="Path 100961" d="M1804.643,1068.835a1.539,1.539,0,0,1-.582.337,2.293,2.293,0,0,1-.729.116,1.726,1.726,0,0,1-1.286-.459,1.744,1.744,0,0,1-.453-1.28v-4.177h-1.176v-.527h1.176v-1.4h.613v1.4h2.034v.527h-2.034v4.116a1.351,1.351,0,0,0,.3.949,1.151,1.151,0,0,0,.888.325,1.421,1.421,0,0,0,.992-.355Z" transform="translate(-1115.764 7474.875)" fill="#fff"/>
    <path id="Path_100962" data-name="Path 100962" d="M1884.714,1047.43a2.719,2.719,0,0,1,.7,2.009v3.736h-.613v-3.687a2.27,2.27,0,0,0-.545-1.642,2.024,2.024,0,0,0-1.525-.563,2.351,2.351,0,0,0-1.776.674,2.5,2.5,0,0,0-.649,1.813v3.406h-.612v-9.09h.612v4.03a2.347,2.347,0,0,1,.98-1.023,3.1,3.1,0,0,1,1.531-.361,2.566,2.566,0,0,1,1.9.7" transform="translate(-1189.109 7490.938)" fill="#fff"/>
    <path id="Path_100963" data-name="Path 100963" d="M1986.849,1082.858h-5.5a2.67,2.67,0,0,0,.38,1.329,2.429,2.429,0,0,0,.962.9,2.891,2.891,0,0,0,1.366.318,2.924,2.924,0,0,0,1.158-.227,2.255,2.255,0,0,0,.888-.667l.355.4a2.724,2.724,0,0,1-1.047.772,3.647,3.647,0,0,1-3.069-.147,3.017,3.017,0,0,1-1.17-1.151,3.305,3.305,0,0,1-.423-1.678,3.476,3.476,0,0,1,.4-1.672,2.934,2.934,0,0,1,1.1-1.158,3.168,3.168,0,0,1,3.13-.006,2.918,2.918,0,0,1,1.09,1.145,3.442,3.442,0,0,1,.4,1.666Zm-4.251-2.554a2.286,2.286,0,0,0-.864.845,2.75,2.75,0,0,0-.374,1.231h4.9a2.566,2.566,0,0,0-.368-1.225,2.379,2.379,0,0,0-2.083-1.151,2.45,2.45,0,0,0-1.213.3" transform="translate(-1282.607 7458.205)" fill="#fff"/>
    <path id="Path_100964" data-name="Path 100964" d="M663.225,1279.76H655.9l-1.444,3.391h-2.805l6.594-14.654h2.68l6.615,14.654H664.69Zm-.9-2.135-2.763-6.406-2.742,6.406Z" transform="translate(-52.911 7283.311)" fill="#fff"/>
    <path id="Path_100965" data-name="Path 100965" d="M894.763,1313.994a5.137,5.137,0,0,1,2.02,2.01,6.5,6.5,0,0,1,0,6,5.115,5.115,0,0,1-2.02,2.02,5.935,5.935,0,0,1-2.92.712,4.513,4.513,0,0,1-3.58-1.507v5.422h-2.617v-15.24h2.491v1.465a4.049,4.049,0,0,1,1.6-1.193,5.413,5.413,0,0,1,2.1-.4,5.937,5.937,0,0,1,2.92.712m-.837,7.536a3.909,3.909,0,0,0,0-5.066,3.164,3.164,0,0,0-2.376-.963,3.368,3.368,0,0,0-1.7.429,3.1,3.1,0,0,0-1.193,1.225,4.079,4.079,0,0,0,0,3.684,3.1,3.1,0,0,0,1.193,1.225,3.363,3.363,0,0,0,1.7.429,3.162,3.162,0,0,0,2.376-.963" transform="translate(-269.408 7241.875)" fill="#fff"/>
    <path id="Path_100966" data-name="Path 100966" d="M1086.776,1313.994a5.137,5.137,0,0,1,2.02,2.01,6.5,6.5,0,0,1,0,6,5.115,5.115,0,0,1-2.02,2.02,5.934,5.934,0,0,1-2.92.712,4.513,4.513,0,0,1-3.58-1.507v5.422h-2.617v-15.24h2.491v1.465a4.05,4.05,0,0,1,1.6-1.193,5.412,5.412,0,0,1,2.1-.4,5.937,5.937,0,0,1,2.92.712m-.837,7.536a3.91,3.91,0,0,0,0-5.066,3.164,3.164,0,0,0-2.376-.963,3.368,3.368,0,0,0-1.7.429,3.1,3.1,0,0,0-1.193,1.225,4.08,4.08,0,0,0,0,3.684,3.1,3.1,0,0,0,1.193,1.225,3.363,3.363,0,0,0,1.7.429,3.163,3.163,0,0,0,2.376-.963" transform="translate(-447.061 7241.875)" fill="#fff"/>
    <path id="Path_100967" data-name="Path 100967" d="M1336.268,1280.288a6.832,6.832,0,0,1-2.5-1.277l.942-2.114a7.408,7.408,0,0,0,2.209,1.162,8.019,8.019,0,0,0,2.627.45,4.538,4.538,0,0,0,2.439-.523,1.585,1.585,0,0,0,.806-1.382,1.338,1.338,0,0,0-.45-1.036,3.166,3.166,0,0,0-1.141-.638q-.691-.23-1.884-.523a21.884,21.884,0,0,1-2.711-.8,4.459,4.459,0,0,1-1.779-1.245,3.355,3.355,0,0,1-.743-2.292,3.912,3.912,0,0,1,.659-2.208,4.463,4.463,0,0,1,1.989-1.581,8.058,8.058,0,0,1,3.255-.586,10.525,10.525,0,0,1,2.638.335,7.293,7.293,0,0,1,2.24.963l-.858,2.115a8.48,8.48,0,0,0-2.01-.858,7.522,7.522,0,0,0-2.031-.293,4.243,4.243,0,0,0-2.4.544,1.68,1.68,0,0,0-.785,1.445,1.305,1.305,0,0,0,.45,1.026,3.25,3.25,0,0,0,1.141.628q.691.23,1.884.523a19.808,19.808,0,0,1,2.68.785,4.593,4.593,0,0,1,1.79,1.245,3.284,3.284,0,0,1,.743,2.261,3.86,3.86,0,0,1-.659,2.2,4.485,4.485,0,0,1-2,1.57,8.141,8.141,0,0,1-3.266.586,11.182,11.182,0,0,1-3.276-.481" transform="translate(-684.014 7285.901)" fill="#fff"/>
    <path id="Path_100968" data-name="Path 100968" d="M1511.314,1294.974a3.08,3.08,0,0,1-1.12.565,5.05,5.05,0,0,1-1.392.188,3.95,3.95,0,0,1-2.847-.963,3.706,3.706,0,0,1-1-2.805v-5.38h-1.842v-2.094h1.842v-2.554h2.617v2.554h2.994v2.094h-2.994v5.317a1.767,1.767,0,0,0,.4,1.246,1.492,1.492,0,0,0,1.151.429,2.3,2.3,0,0,0,1.465-.461Z" transform="translate(-840.69 7270.881)" fill="#fff"/>
    <path id="Path_100969" data-name="Path 100969" d="M1627.2,1324a5.339,5.339,0,0,1-2.125-2.041,6.1,6.1,0,0,1,0-5.914,5.364,5.364,0,0,1,2.125-2.031,6.784,6.784,0,0,1,6.134,0,5.367,5.367,0,0,1,2.125,2.031,6.1,6.1,0,0,1,0,5.914,5.343,5.343,0,0,1-2.125,2.041,6.784,6.784,0,0,1-6.134,0m5.443-2.47a3.876,3.876,0,0,0,0-5.066,3.2,3.2,0,0,0-2.387-.963,3.163,3.163,0,0,0-2.376.963,3.909,3.909,0,0,0,0,5.066,3.162,3.162,0,0,0,2.376.963,3.2,3.2,0,0,0,2.387-.963" transform="translate(-952.828 7241.875)" fill="#fff"/>
    <path id="Path_100970" data-name="Path 100970" d="M1823.63,1313.281v2.491a3.324,3.324,0,0,0-.607-.063,3.16,3.16,0,0,0-2.386.89,3.547,3.547,0,0,0-.858,2.564v5.422h-2.617v-11.179h2.491v1.633q1.131-1.759,3.978-1.759" transform="translate(-1131.256 7241.876)" fill="#fff"/>
    <path id="Path_100971" data-name="Path 100971" d="M1931,1319.833h-8.771a3.039,3.039,0,0,0,1.2,1.957,3.946,3.946,0,0,0,2.418.722,4.074,4.074,0,0,0,3.035-1.214l1.4,1.612a4.724,4.724,0,0,1-1.905,1.361,7.55,7.55,0,0,1-5.841-.272,5.275,5.275,0,0,1-2.167-2.041,5.762,5.762,0,0,1-.764-2.962,5.847,5.847,0,0,1,.743-2.941,5.272,5.272,0,0,1,2.062-2.041,6.017,6.017,0,0,1,2.973-.733,5.864,5.864,0,0,1,2.92.722,5.116,5.116,0,0,1,2.01,2.031,6.159,6.159,0,0,1,.722,3.025q0,.272-.042.775m-7.735-3.716a3.126,3.126,0,0,0-1.057,1.978h6.343a3.088,3.088,0,0,0-1.026-1.968,3.12,3.12,0,0,0-2.135-.754,3.158,3.158,0,0,0-2.125.743" transform="translate(-1226.04 7241.876)" fill="#fff"/>
  </g>
</svg>
