<svg xmlns="http://www.w3.org/2000/svg" width="22.878" height="39.69" viewBox="0 0 22.878 39.69">
  <g id="Group_89536" data-name="Group 89536" transform="translate(-936.796 -1424)">
    <g id="Group_89378" data-name="Group 89378" transform="translate(936.796 1424)" style="mix-blend-mode: normal;isolation: isolate">
      <path id="Path_100852" data-name="Path 100852" d="M31.481,0H13.757A2.758,2.758,0,0,0,11.18,2.908V36.782a2.762,2.762,0,0,0,2.577,2.908H31.481a2.762,2.762,0,0,0,2.577-2.908V2.908A2.761,2.761,0,0,0,31.481,0ZM20.35,1.848h4.538a.465.465,0,0,1,.434.49.462.462,0,0,1-.434.49H20.35a.462.462,0,0,1-.434-.49A.462.462,0,0,1,20.35,1.848Zm2.269,36.577a1.323,1.323,0,0,1-1.2-.748,1.693,1.693,0,0,1,0-1.548,1.337,1.337,0,0,1,2.4,0,1.693,1.693,0,0,1,0,1.548A1.323,1.323,0,0,1,22.619,38.425ZM32.582,33.4a.685.685,0,0,1-.643.725H13.3a.685.685,0,0,1-.643-.725V5.4a.685.685,0,0,1,.643-.725H31.945a.685.685,0,0,1,.643.725v28Z" transform="translate(-11.18)" fill="#3b3659"/>
    </g>
    <g id="Group_89478" data-name="Group 89478" transform="translate(946.737 1459.38)" style="mix-blend-mode: normal;isolation: isolate">
      <path id="Path_100852-2" data-name="Path 100852" d="M39.525,84.426a1.57,1.57,0,0,1-1.389-.748,1.491,1.491,0,0,1,0-1.548,1.663,1.663,0,0,1,2.777,0,1.491,1.491,0,0,1,0,1.548A1.57,1.57,0,0,1,39.525,84.426Z" transform="translate(-37.92 -81.381)" fill="#8450ff"/>
    </g>
    <g id="Group_89477" data-name="Group 89477" transform="translate(944.944 1425.848)" style="mix-blend-mode: normal;isolation: isolate">
      <path id="Path_100852-3" data-name="Path 100852" d="M34.972,4.25h5.77c.3,0,.552.355.552.8s-.244.8-.552.8h-5.77c-.307,0-.552-.355-.552-.8S34.665,4.25,34.972,4.25Z" transform="translate(-34.42 -4.25)" fill="#8450ff"/>
    </g>
  </g>
</svg>
