<svg xmlns="http://www.w3.org/2000/svg" width="35.45" height="32" viewBox="0 0 35.45 32">
  <g id="Booking" transform="translate(-1.1 -2.55)">
    <g id="Group_89879" data-name="Group 89879" transform="translate(1.1 2.55)">
      <path id="Path_101614" data-name="Path 101614" d="M18.824,29.337H5.989A2.751,2.751,0,0,1,3.241,26.59V9.057A2.751,2.751,0,0,1,5.989,6.309H8.573v.647a1.071,1.071,0,1,0,2.141,0V6.309h12.8v.647a1.071,1.071,0,1,0,2.141,0V6.309h2.574a2.751,2.751,0,0,1,2.748,2.748v7.649a1.071,1.071,0,1,0,2.141,0V9.057a4.895,4.895,0,0,0-4.889-4.889H25.659V3.621a1.071,1.071,0,1,0-2.141,0v.547h-12.8V3.621a1.071,1.071,0,1,0-2.141,0v.547H5.989A4.895,4.895,0,0,0,1.1,9.057V26.591A4.894,4.894,0,0,0,5.989,31.48H18.824a1.071,1.071,0,0,0,0-2.142Z" transform="translate(-1.1 -2.55)" fill="#3b3659"/>
      <path id="Path_101615" data-name="Path 101615" d="M8.291,12.244A1.236,1.236,0,1,0,9.527,13.48a1.236,1.236,0,0,0-1.236-1.236Z" transform="translate(0.029 -0.713)" fill="#3b3659"/>
      <path id="Path_101616" data-name="Path 101616" d="M14.76,12.244A1.236,1.236,0,1,0,16,13.48a1.236,1.236,0,0,0-1.236-1.236Z" transform="translate(1.255 -0.713)" fill="#3b3659"/>
      <path id="Path_101617" data-name="Path 101617" d="M19.992,13.48a1.236,1.236,0,1,0,1.236-1.236,1.236,1.236,0,0,0-1.236,1.236Z" transform="translate(2.481 -0.713)" fill="#3b3659"/>
      <path id="Path_101618" data-name="Path 101618" d="M8.291,17.905a1.236,1.236,0,1,0,1.236,1.236A1.236,1.236,0,0,0,8.291,17.905Z" transform="translate(0.029 0.361)" fill="#3b3659"/>
      <path id="Path_101619" data-name="Path 101619" d="M14.76,17.905A1.236,1.236,0,1,0,16,19.141,1.236,1.236,0,0,0,14.76,17.905Z" transform="translate(1.255 0.361)" fill="#3b3659"/>
    </g>
    <path id="Path_101620" data-name="Path 101620" d="M25.719,16.665a7.6,7.6,0,1,0,7.606,7.6A7.615,7.615,0,0,0,25.719,16.665Zm0,13.066a5.463,5.463,0,1,1,5.464-5.462A5.47,5.47,0,0,1,25.719,29.731Z" transform="translate(3.225 2.675)" fill="#8450ff"/>
    <path id="Path_101621" data-name="Path 101621" d="M26.583,21.459l-2.346,1.89-.584-.746a1.071,1.071,0,0,0-1.684,1.323l1.254,1.6a1.068,1.068,0,0,0,.72.4,1.043,1.043,0,0,0,.123.007,1.071,1.071,0,0,0,.671-.237l3.19-2.569a1.072,1.072,0,0,0-1.343-1.67Z" transform="translate(3.912 3.539)" fill="#8450ff"/>
  </g>
</svg>
