<svg xmlns="http://www.w3.org/2000/svg" xmlns:xlink="http://www.w3.org/1999/xlink" width="358" height="328" viewBox="0 0 358 328">
  <defs>
    <clipPath id="clip-path">
      <rect id="Rectangle_69393" data-name="Rectangle 69393" width="358" height="328" transform="translate(-16726 10218)" fill="#fff" stroke="#505050" stroke-width="1"/>
    </clipPath>
  </defs>
  <g id="Mask_Group_38" data-name="Mask Group 38" transform="translate(16726 -10218)" opacity="0.4" clip-path="url(#clip-path)">
    <g id="Group_89397" data-name="Group 89397" transform="translate(-16725.551 10218.071)" opacity="0.21" style="mix-blend-mode: luminosity;isolation: isolate">
      <path id="Path_100865" data-name="Path 100865" d="M503.13,620.954c8.032,14.692,16.091,32.541,29.188,43.4,17.957,14.9,40.732,18.067,52.386,18.067,50.834,0,79.9-19.494,79.9-58.457,0-24.46-16.99-88.208-84.555-115.7-58.009-23.6,9.72-93.568,9.924-93.568,34.878,0,65.387,24.106,87.85,48.539,51.746,56.28,82.609,140.2,82.609,187.9,0,66.306-66.286,99.826-121.572,99.826-36.036,0-63.005-11.549-84.146-32.69C532.277,695.844,516.376,662.624,503.13,620.954Z" transform="translate(-149.331 -414.553)" fill="#d6d1ed"/>
      <path id="Path_100866" data-name="Path 100866" d="M490.288,487.784C517.462,563.37,533.1,603.21,541.708,640.547c5.418,23.531-22.435,103.537-36.989,74.783-4.506-8.909-34.4,14.3-42.285-.666-29.093-55.305-62.746-222.922-105.249-223.275-1.511,0,78.089-100.1,133.089-3.6Z" transform="translate(-202.081 -403.305)" fill="#d6d1ed"/>
      <path id="Path_100867" data-name="Path 100867" d="M290.286,750.478c71.813,0,84.964-83.882,110.449-160.527C421.7,526.91,442.9,468.44,479.9,468.44c16.895,0,29.855,6.856,42.815,19.821a73.228,73.228,0,0,1,8.74,10.57c-20.843-52.389-58.294-83.773-105.535-83.651-79.791,0-107.536,91.746-132,172.309-22.953,75.584-49.337,113.1-50.63,129.048-1.13,13.9,20.053,33.955,46.981,33.955Z" transform="translate(-243.248 -414.376)" fill="#845fff"/>
      <path id="Path_100868" data-name="Path 100868" d="M723.13,487.508c-.544-.87-20.815-19.644-45.974-19.644-18.175,0-38.908,9.809-56.566,43.275-.857,1.619-1.688,3.252-2.477,4.911-10.129,20.95-19.06,46.784-27.922,73.475-9,27.072-16.459,55.042-25.512,79.91-2.355,6.448-4.792,12.692-7.42,18.651C541.4,724.2,519.6,750.051,479.743,750.051c-26.915,0-48.1-20.038-46.981-33.942,1.293-15.944,27.663-53.45,50.629-129.034C506.6,510.621,535.273,414.237,614.724,414.59c35.477.163,75.529,19.862,108.38,72.945Z" transform="translate(-174.777 -414.589)" fill="#845fff"/>
    </g>
  </g>
</svg>
