<svg xmlns="http://www.w3.org/2000/svg" xmlns:xlink="http://www.w3.org/1999/xlink" width="147" height="139" viewBox="0 0 147 139">
  <defs>
    <clipPath id="clip-path">
      <rect id="Rectangle_69484" data-name="Rectangle 69484" width="147" height="139" transform="translate(-16725.424 10217.739)" fill="#fff" stroke="#707070" stroke-width="1"/>
    </clipPath>
  </defs>
  <g id="Mask_Group_292" data-name="Mask Group 292" transform="translate(16725.424 -10217.739)" opacity="0.4" clip-path="url(#clip-path)">
    <g id="Group_89994" data-name="Group 89994" transform="translate(-16725.734 10217.902)" opacity="0.21" style="mix-blend-mode: luminosity;isolation: isolate">
      <path id="Path_101035" data-name="Path 101035" d="M503.13,499.77c3.313,6.06,6.637,13.423,12.04,17.9,7.407,6.145,16.8,7.452,21.608,7.452,20.968,0,32.957-8.041,32.957-24.112,0-10.089-7.008-36.384-34.877-47.725-23.927-9.736,4.009-38.6,4.094-38.6,14.387,0,26.971,9.943,36.237,20.021,21.344,23.214,34.075,57.831,34.075,77.5,0,27.35-27.342,41.176-50.146,41.176-14.864,0-25.988-4.764-34.709-13.484C515.153,530.661,508.594,516.958,503.13,499.77Z" transform="translate(-357.195 -414.634)" fill="#d6d1ed"/>
      <path id="Path_101036" data-name="Path 101036" d="M412.075,463.125c11.208,31.178,17.661,47.611,21.21,63.012,2.235,9.706-9.254,42.707-15.257,30.846-1.859-3.675-14.19,5.9-17.442-.275-12-22.812-25.882-91.951-43.413-92.1-.623,0,32.21-41.288,54.9-1.487Z" transform="translate(-293.195 -428.28)" fill="#d6d1ed"/>
      <path id="Path_101037" data-name="Path 101037" d="M262.651,553.484c29.621,0,35.046-34.6,45.558-66.214,8.648-26,17.391-50.121,32.654-50.121,6.969,0,12.315,2.828,17.661,8.176a30.21,30.21,0,0,1,3.605,4.36c-8.6-21.609-24.045-34.555-43.531-34.5-32.912,0-44.356,37.843-54.447,71.074-9.468,31.177-20.35,46.653-20.884,53.23-.466,5.735,8.272,14.006,19.379,14.006Z" transform="translate(-243.248 -414.848)" fill="#845fff"/>
      <path id="Path_101038" data-name="Path 101038" d="M552.508,444.667c-.224-.359-8.586-8.1-18.963-8.1-7.5,0-16.049,4.046-23.332,17.85-.354.668-.7,1.341-1.022,2.026-4.178,8.642-7.862,19.3-11.517,30.307-3.712,11.167-6.789,22.7-10.523,32.961-.971,2.66-1.977,5.235-3.06,7.693-6.542,14.9-15.532,25.56-31.974,25.56-11.1,0-19.839-8.265-19.379-14,.533-6.577,11.411-22.047,20.884-53.224,9.574-31.536,21.4-71.293,54.172-71.147,14.634.067,31.154,8.193,44.7,30.088Z" transform="translate(-326.323 -414.589)" fill="#845fff"/>
    </g>
  </g>
</svg>
