<svg xmlns="http://www.w3.org/2000/svg" width="290" height="50.746" viewBox="0 0 290 50.746">
  <g id="Meena_SVG_EN_Logo_Placeholder" data-name="Meena_SVG_EN Logo_Placeholder" transform="translate(-243.248 -414.589)">
    <g id="Group_237" data-name="Group 237" transform="translate(243.248 414.589)">
      <path id="Path_77719" data-name="Path 77719" d="M503.13,445.363c1.194,2.185,2.393,4.839,4.34,6.453a12.733,12.733,0,0,0,7.79,2.687c7.559,0,11.882-2.9,11.882-8.693A19.959,19.959,0,0,0,514.568,428.6c-8.626-3.51,1.445-13.914,1.476-13.914,5.187,0,9.724,3.585,13.064,7.218,7.695,8.369,12.284,20.849,12.284,27.942,0,9.86-9.857,14.845-18.079,14.845-5.359,0-9.369-1.717-12.513-4.861C507.464,456.5,505.1,451.559,503.13,445.363Z" transform="translate(-450.518 -414.67)" fill="#d6d1ed"/>
      <path id="Path_77720" data-name="Path 77720" d="M376.961,452.055c4.041,11.24,6.367,17.165,7.646,22.717.806,3.5-3.336,15.4-5.5,11.121-.67-1.325-5.116,2.126-6.288-.1-4.326-8.224-9.331-33.15-15.651-33.2-.225,0,11.612-14.885,19.791-.536Z" transform="translate(-334.102 -439.492)" fill="#d6d1ed"/>
      <path id="Path_77721" data-name="Path 77721" d="M250.243,465.041c10.679,0,12.635-12.474,16.425-23.871,3.118-9.375,6.27-18.069,11.772-18.069a8.591,8.591,0,0,1,6.367,2.948,10.887,10.887,0,0,1,1.3,1.572c-3.1-7.791-8.669-12.458-15.694-12.439-11.865,0-15.991,13.643-19.629,25.623-3.413,11.24-7.337,16.819-7.529,19.19-.168,2.067,2.982,5.049,6.986,5.049Z" transform="translate(-243.248 -415.06)" fill="#845fff"/>
      <path id="Path_77722" data-name="Path 77722" d="M475.905,425.433a10.872,10.872,0,0,0-6.837-2.921c-2.7,0-5.786,1.459-8.412,6.435-.128.241-.251.484-.368.73a94.9,94.9,0,0,0-4.152,10.926c-1.338,4.026-2.448,8.185-3.794,11.883-.35.959-.713,1.887-1.1,2.774-2.359,5.371-5.6,9.215-11.527,9.215-4,0-7.152-2.98-6.986-5.047.192-2.371,4.114-7.948,7.529-19.188,3.452-11.369,7.715-25.7,19.53-25.65,5.276.024,11.232,2.954,16.117,10.847Z" transform="translate(-394.361 -414.589)" fill="#845fff"/>
    </g>
    <g id="Group_240" data-name="Group 240" transform="translate(350.688 434.64)">
      <g id="Group_239" data-name="Group 239" transform="translate(0 0)">
        <path id="Path_77723" data-name="Path 77723" d="M1037.311,531.546c.929,4.6,4.6,7.331,9.464,7.331a9.968,9.968,0,0,0,8.207-3.94l5.088,3.284c-2.462,3.776-7.606,6.292-13.295,6.292-9.246,0-15.866-6.565-15.866-15.374s6.347-15.319,15.046-15.319S1061,519.784,1061,528.374a25.9,25.9,0,0,1-.164,3.172Zm17.289-4.869c-.273-4.377-3.721-7.331-8.59-7.331a8.594,8.594,0,0,0-8.7,7.331Z" transform="translate(-979.096 -513.818)" fill="#d6d1ed"/>
        <path id="Path_77724" data-name="Path 77724" d="M1203.251,531.546c.929,4.6,4.6,7.331,9.464,7.331a9.967,9.967,0,0,0,8.207-3.94l5.088,3.284c-2.462,3.776-7.606,6.292-13.295,6.292-9.246,0-15.866-6.565-15.866-15.374s6.347-15.319,15.046-15.319,15.046,5.964,15.046,14.554a25.877,25.877,0,0,1-.164,3.172Zm17.289-4.869c-.273-4.377-3.721-7.331-8.59-7.331a8.594,8.594,0,0,0-8.7,7.331Z" transform="translate(-1111.442 -513.818)" fill="#d6d1ed"/>
        <path id="Path_77725" data-name="Path 77725" d="M1394.549,527.232v16.516h-6.683V527.232a7.408,7.408,0,1,0-14.809,0h0v16.516h-6.683V527.232c0-7.409,6.306-13.412,14.088-13.412s14.088,6,14.088,13.412Z" transform="translate(-1246.643 -513.818)" fill="#d6d1ed"/>
        <g id="Group_238" data-name="Group 238">
          <path id="Path_77726" data-name="Path 77726" d="M822.268,527.222V543.74h-6.683V527.222c0-4.223-3.051-7.646-6.814-7.646s-6.81,3.423-6.81,7.646V543.74h-6.685V527.222h0c0-.026,0-.049,0-.075-.034-4.189-3.071-7.573-6.81-7.573s-6.81,3.423-6.81,7.646v16.518H774.97V527.22a13.515,13.515,0,0,1,23.65-8.835,13.512,13.512,0,0,1,23.646,8.835Z" transform="translate(-774.97 -513.81)" fill="#d6d1ed"/>
          <path id="Path_77727" data-name="Path 77727" d="M875.28,579.69v.075h0C875.282,579.739,875.282,579.716,875.28,579.69Z" transform="translate(-854.973 -566.353)" fill="#d6d1ed"/>
        </g>
      </g>
      <path id="Path_77728" data-name="Path 77728" d="M1555.384,529.5v14.513h-6.567v-4.434l-.054-10.175c0-5.855-3.179-9.574-8.863-9.574-5.363,0-9.029,4.16-9.029,9.574,0,3.891,2.148,9.651,9.681,9.651a20.941,20.941,0,0,0,5.733-.9c0,1.83-.057,4.342-.057,5.675a19.515,19.515,0,0,1-6.1.939c-7.223,0-15.55-3.721-15.55-15.364,0-1.267.3-15.252,15.315-15.252,13.09,0,15.489,8.792,15.489,15.345Z" transform="translate(-1372.824 -514.081)" fill="#d6d1ed"/>
    </g>
  </g>
</svg>
