<svg xmlns="http://www.w3.org/2000/svg" width="11.605" height="15.307" viewBox="0 0 11.605 15.307">
  <path id="Icon_awesome-mobile-alt" data-name="Icon awesome-mobile-alt" d="M9.439,0H1.666A1.546,1.546,0,0,0,0,1.388v12.03a1.546,1.546,0,0,0,1.666,1.388H9.439A1.546,1.546,0,0,0,11.1,13.419V1.388A1.546,1.546,0,0,0,9.439,0ZM5.552,13.881a1.03,1.03,0,0,1-1.11-.925,1.03,1.03,0,0,1,1.11-.925,1.03,1.03,0,0,1,1.11.925A1.03,1.03,0,0,1,5.552,13.881Zm3.887-3.123a.388.388,0,0,1-.416.347H2.082a.388.388,0,0,1-.416-.347V1.735a.388.388,0,0,1,.416-.347H9.023a.388.388,0,0,1,.416.347Z" transform="translate(0.25 0.25)" fill="#fff" stroke="#845fff" stroke-width="0.5"/>
</svg>
