<svg id="Group_89601" data-name="Group 89601" xmlns="http://www.w3.org/2000/svg" width="180.44" height="54.873" viewBox="0 0 180.44 54.873">
  <g id="Group_89427" data-name="Group 89427">
    <path id="Path_100924" data-name="Path 100924" d="M173.466,54.873H6.975A6.975,6.975,0,0,1,0,47.9V6.975A6.975,6.975,0,0,1,6.975,0H173.466a6.975,6.975,0,0,1,6.975,6.975V47.9a6.975,6.975,0,0,1-6.975,6.975" fill="#3b3659"/>
    <path id="Path_100925" data-name="Path 100925" d="M666.937,133.822h-4.974l-1.09,2.413H660.2l3.945-8.575h.625l3.944,8.575h-.674Zm-.233-.527-2.254-4.949-2.242,4.949Z" transform="translate(-610.822 -118.112)" fill="#fff"/>
    <path id="Path_100926" data-name="Path 100926" d="M777.481,156.816l-2.891,6.395h-.625l-2.879-6.395h.649l2.548,5.721,2.573-5.721Z" transform="translate(-713.416 -145.088)" fill="#fff"/>
    <path id="Path_100927" data-name="Path 100927" d="M868.678,156.766a2.348,2.348,0,0,1,.637,1.782V162.6h-.588v-1.139a2.128,2.128,0,0,1-.894.876,2.966,2.966,0,0,1-1.409.312,2.6,2.6,0,0,1-1.684-.5,1.737,1.737,0,0,1-.049-2.615,2.736,2.736,0,0,1,1.819-.5H868.7v-.515a1.8,1.8,0,0,0-.484-1.36,1.964,1.964,0,0,0-1.415-.466,3.409,3.409,0,0,0-1.219.221,3.056,3.056,0,0,0-.986.588l-.306-.441a3.405,3.405,0,0,1,1.151-.668,4.185,4.185,0,0,1,1.409-.239,2.546,2.546,0,0,1,1.825.606m-.815,5.016a2.235,2.235,0,0,0,.839-1.066v-1.2h-2.18a2.17,2.17,0,0,0-1.366.343,1.149,1.149,0,0,0-.423.943,1.181,1.181,0,0,0,.466.986,2.093,2.093,0,0,0,1.311.361,2.4,2.4,0,0,0,1.354-.368" transform="translate(-799.493 -144.481)" fill="#fff"/>
    <path id="Path_100928" data-name="Path 100928" d="M964.836,123.6a.464.464,0,0,1-.147-.349.5.5,0,0,1,.5-.5.5.5,0,0,1,.355.141.464.464,0,0,1,.147.349.5.5,0,0,1-.5.5.494.494,0,0,1-.355-.141m.049,1.7h.613v6.395h-.613Z" transform="translate(-892.539 -113.567)" fill="#fff"/>
    <rect id="Rectangle_69426" data-name="Rectangle 69426" width="0.613" height="9.09" transform="translate(75.543 9.033)" fill="#fff"/>
    <path id="Path_100929" data-name="Path 100929" d="M1049.663,156.766a2.347,2.347,0,0,1,.637,1.782V162.6h-.588v-1.139a2.128,2.128,0,0,1-.894.876,2.967,2.967,0,0,1-1.409.312,2.6,2.6,0,0,1-1.684-.5,1.737,1.737,0,0,1-.049-2.615,2.736,2.736,0,0,1,1.819-.5h2.193v-.515a1.8,1.8,0,0,0-.484-1.36,1.964,1.964,0,0,0-1.415-.466,3.409,3.409,0,0,0-1.219.221,3.057,3.057,0,0,0-.986.588l-.306-.441a3.4,3.4,0,0,1,1.151-.668,4.186,4.186,0,0,1,1.409-.239,2.546,2.546,0,0,1,1.825.606m-.815,5.016a2.235,2.235,0,0,0,.839-1.066v-1.2h-2.18a2.17,2.17,0,0,0-1.366.343,1.149,1.149,0,0,0-.423.943,1.181,1.181,0,0,0,.466.986,2.094,2.094,0,0,0,1.311.361,2.4,2.4,0,0,0,1.354-.368" transform="translate(-966.942 -144.481)" fill="#fff"/>
    <path id="Path_100930" data-name="Path 100930" d="M1153.122,123.838a2.929,2.929,0,0,1,1.133,1.151,3.421,3.421,0,0,1,.41,1.684,3.385,3.385,0,0,1-.41,1.678,2.981,2.981,0,0,1-1.133,1.151,3.179,3.179,0,0,1-1.617.417,2.979,2.979,0,0,1-1.55-.41,2.789,2.789,0,0,1-1.072-1.145v1.507h-.588v-9.09h.613v4.153a2.758,2.758,0,0,1,1.066-1.109,3,3,0,0,1,1.531-.4,3.218,3.218,0,0,1,1.617.41m-.331,5.188a2.449,2.449,0,0,0,.925-.956,3.065,3.065,0,0,0,0-2.793,2.451,2.451,0,0,0-.925-.955,2.578,2.578,0,0,0-1.323-.343,2.545,2.545,0,0,0-1.317.343,2.463,2.463,0,0,0-.919.955,3.063,3.063,0,0,0,0,2.793,2.46,2.46,0,0,0,.919.956,2.543,2.543,0,0,0,1.317.343,2.576,2.576,0,0,0,1.323-.343" transform="translate(-1062.414 -111.749)" fill="#fff"/>
    <rect id="Rectangle_69427" data-name="Rectangle 69427" width="0.612" height="9.09" transform="translate(94.15 9.033)" fill="#fff"/>
    <path id="Path_100931" data-name="Path 100931" d="M1298.365,159.553h-5.5a2.671,2.671,0,0,0,.38,1.329,2.429,2.429,0,0,0,.962.9,2.89,2.89,0,0,0,1.366.319,2.925,2.925,0,0,0,1.158-.227,2.255,2.255,0,0,0,.888-.668l.355.4a2.729,2.729,0,0,1-1.047.772,3.648,3.648,0,0,1-3.069-.147,3.018,3.018,0,0,1-1.17-1.151,3.3,3.3,0,0,1-.423-1.678,3.478,3.478,0,0,1,.4-1.672,2.937,2.937,0,0,1,1.1-1.158,3.169,3.169,0,0,1,3.13-.006,2.919,2.919,0,0,1,1.09,1.145,3.442,3.442,0,0,1,.4,1.666ZM1294.114,157a2.287,2.287,0,0,0-.864.845,2.751,2.751,0,0,0-.374,1.231h4.9a2.566,2.566,0,0,0-.367-1.225,2.379,2.379,0,0,0-2.083-1.152,2.451,2.451,0,0,0-1.213.3" transform="translate(-1195.615 -144.481)" fill="#fff"/>
    <path id="Path_100932" data-name="Path 100932" d="M1433.7,162.237a3,3,0,0,1-1.145-1.158,3.565,3.565,0,0,1,0-3.344,3,3,0,0,1,1.145-1.158,3.419,3.419,0,0,1,3.271,0,3,3,0,0,1,1.146,1.158,3.565,3.565,0,0,1,0,3.344,3,3,0,0,1-1.146,1.158,3.419,3.419,0,0,1-3.271,0m2.952-.478a2.463,2.463,0,0,0,.919-.956,3.063,3.063,0,0,0,0-2.793,2.466,2.466,0,0,0-.919-.955,2.7,2.7,0,0,0-2.634,0,2.463,2.463,0,0,0-.919.955,3.063,3.063,0,0,0,0,2.793,2.46,2.46,0,0,0,.919.956,2.7,2.7,0,0,0,2.634,0" transform="translate(-1325.029 -144.482)" fill="#fff"/>
    <path id="Path_100933" data-name="Path 100933" d="M1548.048,156.859a2.719,2.719,0,0,1,.7,2.009V162.6h-.613v-3.687a2.27,2.27,0,0,0-.545-1.641,2.024,2.024,0,0,0-1.525-.563,2.351,2.351,0,0,0-1.776.674,2.5,2.5,0,0,0-.649,1.813V162.6h-.612V156.21h.588v1.384a2.432,2.432,0,0,1,.986-1.053,3.037,3.037,0,0,1,1.55-.38,2.566,2.566,0,0,1,1.9.7" transform="translate(-1427.622 -144.482)" fill="#fff"/>
    <path id="Path_100934" data-name="Path 100934" d="M1685.488,145.53a1.538,1.538,0,0,1-.582.337,2.292,2.292,0,0,1-.729.116,1.725,1.725,0,0,1-1.286-.459,1.743,1.743,0,0,1-.453-1.28v-4.177h-1.176v-.527h1.176v-1.4h.613v1.4h2.034v.527h-2.034v4.116a1.351,1.351,0,0,0,.3.949,1.151,1.151,0,0,0,.888.325,1.422,1.422,0,0,0,.992-.355Z" transform="translate(-1555.52 -127.811)" fill="#fff"/>
    <path id="Path_100935" data-name="Path 100935" d="M1765.561,124.126a2.719,2.719,0,0,1,.7,2.009v3.736h-.613v-3.687a2.27,2.27,0,0,0-.545-1.642,2.024,2.024,0,0,0-1.525-.563,2.351,2.351,0,0,0-1.776.674,2.5,2.5,0,0,0-.649,1.813v3.406h-.612v-9.09h.612v4.03a2.347,2.347,0,0,1,.98-1.023,3.1,3.1,0,0,1,1.531-.361,2.566,2.566,0,0,1,1.9.7" transform="translate(-1628.867 -111.749)" fill="#fff"/>
    <path id="Path_100936" data-name="Path 100936" d="M1867.695,159.553h-5.5a2.671,2.671,0,0,0,.38,1.329,2.428,2.428,0,0,0,.962.9,2.889,2.889,0,0,0,1.366.319,2.925,2.925,0,0,0,1.158-.227,2.254,2.254,0,0,0,.888-.668l.355.4a2.729,2.729,0,0,1-1.048.772,3.648,3.648,0,0,1-3.069-.147,3.019,3.019,0,0,1-1.17-1.151,3.306,3.306,0,0,1-.423-1.678,3.478,3.478,0,0,1,.4-1.672,2.936,2.936,0,0,1,1.1-1.158,3.169,3.169,0,0,1,3.13-.006,2.92,2.92,0,0,1,1.09,1.145,3.442,3.442,0,0,1,.4,1.666ZM1863.444,157a2.289,2.289,0,0,0-.864.845,2.754,2.754,0,0,0-.374,1.231h4.9a2.569,2.569,0,0,0-.368-1.225,2.379,2.379,0,0,0-2.083-1.152,2.45,2.45,0,0,0-1.213.3" transform="translate(-1722.365 -144.481)" fill="#fff"/>
    <path id="Path_100937" data-name="Path 100937" d="M657.041,354.108h2.516v5.708a8,8,0,0,1-2.578,1.35,9.9,9.9,0,0,1-3.028.471,8.166,8.166,0,0,1-3.949-.951,7.065,7.065,0,0,1-2.762-2.629,7.646,7.646,0,0,1,0-7.57,7.049,7.049,0,0,1,2.772-2.629,8.269,8.269,0,0,1,3.979-.951,8.69,8.69,0,0,1,3.273.593,6.427,6.427,0,0,1,2.475,1.739l-1.677,1.637a5.382,5.382,0,0,0-3.949-1.637,5.582,5.582,0,0,0-2.69.634,4.623,4.623,0,0,0-1.841,1.78,5.12,5.12,0,0,0-.665,2.619,5.039,5.039,0,0,0,.665,2.578,4.762,4.762,0,0,0,1.841,1.8,5.394,5.394,0,0,0,2.67.655,5.761,5.761,0,0,0,2.946-.737Z" transform="translate(-597.907 -320.961)" fill="#fff"/>
    <path id="Path_100938" data-name="Path 100938" d="M858.6,403.885a5.218,5.218,0,0,1-2.077-1.995,5.965,5.965,0,0,1,0-5.78,5.243,5.243,0,0,1,2.077-1.984,6.631,6.631,0,0,1,5.994,0,5.247,5.247,0,0,1,2.077,1.984,5.964,5.964,0,0,1,0,5.78,5.222,5.222,0,0,1-2.077,1.995,6.631,6.631,0,0,1-5.994,0m5.319-2.414a3.789,3.789,0,0,0,0-4.951,3.125,3.125,0,0,0-2.332-.941,3.091,3.091,0,0,0-2.322.941,3.821,3.821,0,0,0,0,4.951,3.09,3.09,0,0,0,2.322.941,3.124,3.124,0,0,0,2.332-.941" transform="translate(-791.771 -363.987)" fill="#fff"/>
    <path id="Path_100939" data-name="Path 100939" d="M1035.034,403.885a5.218,5.218,0,0,1-2.077-1.995,5.965,5.965,0,0,1,0-5.78,5.243,5.243,0,0,1,2.077-1.984,6.631,6.631,0,0,1,5.995,0,5.247,5.247,0,0,1,2.077,1.984,5.964,5.964,0,0,1,0,5.78,5.221,5.221,0,0,1-2.077,1.995,6.631,6.631,0,0,1-5.995,0m5.319-2.414a3.789,3.789,0,0,0,0-4.951,3.125,3.125,0,0,0-2.332-.941,3.092,3.092,0,0,0-2.322.941,3.821,3.821,0,0,0,0,4.951,3.091,3.091,0,0,0,2.322.941,3.124,3.124,0,0,0,2.332-.941" transform="translate(-955.012 -363.987)" fill="#fff"/>
    <path id="Path_100940" data-name="Path 100940" d="M1220.389,393.533V402.8q0,5.769-5.892,5.769a10.935,10.935,0,0,1-2.987-.4,6.341,6.341,0,0,1-2.332-1.156l1.146-1.923a5.478,5.478,0,0,0,1.811.951,7.1,7.1,0,0,0,2.22.358,3.665,3.665,0,0,0,2.639-.818,3.345,3.345,0,0,0,.839-2.5v-.573a4.2,4.2,0,0,1-1.6,1.084,5.626,5.626,0,0,1-2.066.368,5.925,5.925,0,0,1-2.813-.665,4.991,4.991,0,0,1-1.984-1.872,5.6,5.6,0,0,1,0-5.514,4.947,4.947,0,0,1,1.984-1.852,6,6,0,0,1,2.813-.655,5.769,5.769,0,0,1,2.158.389,3.986,3.986,0,0,1,1.627,1.187v-1.453Zm-3.447,7.4a2.952,2.952,0,0,0,.931-2.261,2.9,2.9,0,0,0-.931-2.23,3.764,3.764,0,0,0-4.787,0,2.9,2.9,0,0,0-.931,2.23,2.95,2.95,0,0,0,.931,2.261,3.73,3.73,0,0,0,4.787,0" transform="translate(-1118.251 -363.987)" fill="#fff"/>
    <rect id="Rectangle_69428" data-name="Rectangle 69428" width="2.557" height="15.18" transform="translate(105.493 25.291)" fill="#fff"/>
    <path id="Path_100941" data-name="Path 100941" d="M1488.666,399.814h-8.572a2.971,2.971,0,0,0,1.176,1.913,3.856,3.856,0,0,0,2.363.706,3.982,3.982,0,0,0,2.967-1.187l1.371,1.575a4.617,4.617,0,0,1-1.862,1.33,7.378,7.378,0,0,1-5.708-.266,5.155,5.155,0,0,1-2.117-1.995,5.63,5.63,0,0,1-.747-2.895,5.715,5.715,0,0,1,.726-2.874,5.152,5.152,0,0,1,2.015-1.995,5.88,5.88,0,0,1,2.905-.716,5.732,5.732,0,0,1,2.854.706A5,5,0,0,1,1488,396.1a6.018,6.018,0,0,1,.706,2.956q0,.266-.041.757m-7.559-3.631a3.055,3.055,0,0,0-1.033,1.933h6.2a3.017,3.017,0,0,0-1-1.923,3.05,3.05,0,0,0-2.087-.737,3.085,3.085,0,0,0-2.077.726" transform="translate(-1367.031 -363.987)" fill="#fff"/>
    <path id="Path_100942" data-name="Path 100942" d="M1747.631,350.256a4.715,4.715,0,0,1,2.117,1.759,5.375,5.375,0,0,1,0,5.432,4.69,4.69,0,0,1-2.117,1.77,7.928,7.928,0,0,1-3.243.614h-3.233v4.133h-2.66V349.642h5.892a7.929,7.929,0,0,1,3.243.614m-.726,6.588a2.917,2.917,0,0,0,0-4.215,4.085,4.085,0,0,0-2.639-.737h-3.11v5.688h3.11a4.086,4.086,0,0,0,2.639-.737" transform="translate(-1608.473 -323.492)" fill="#fff"/>
    <rect id="Rectangle_69429" data-name="Rectangle 69429" width="2.557" height="15.18" transform="translate(144.63 25.291)" fill="#fff"/>
    <path id="Path_100943" data-name="Path 100943" d="M2011.11,394.566a4.469,4.469,0,0,1,1.279,3.488v6.4h-2.414v-1.33a2.975,2.975,0,0,1-1.34,1.095,5.24,5.24,0,0,1-2.1.379,5.142,5.142,0,0,1-2.148-.419,3.316,3.316,0,0,1-1.422-1.166,2.957,2.957,0,0,1-.5-1.688,2.892,2.892,0,0,1,1.095-2.363,5.435,5.435,0,0,1,3.447-.89h2.823v-.164a2.239,2.239,0,0,0-.685-1.759,2.965,2.965,0,0,0-2.036-.614,5.878,5.878,0,0,0-1.811.286,4.456,4.456,0,0,0-1.5.8l-1-1.862a6.214,6.214,0,0,1,2.066-1,9.2,9.2,0,0,1,2.557-.348,5.328,5.328,0,0,1,3.693,1.156m-2.332,7.733a2.392,2.392,0,0,0,1.054-1.258v-1.268h-2.639q-2.21,0-2.209,1.453a1.3,1.3,0,0,0,.552,1.1,2.531,2.531,0,0,0,1.534.409,3.3,3.3,0,0,0,1.708-.44" transform="translate(-1852.701 -363.987)" fill="#fff"/>
    <path id="Path_100944" data-name="Path 100944" d="M2161.344,395.051l-5.115,11.8a5.5,5.5,0,0,1-1.739,2.506,4.167,4.167,0,0,1-2.476.726,5.088,5.088,0,0,1-1.616-.266,3.574,3.574,0,0,1-1.309-.736l1.023-1.882a2.787,2.787,0,0,0,.869.552,2.663,2.663,0,0,0,1.013.2,1.744,1.744,0,0,0,1.115-.348,3.083,3.083,0,0,0,.808-1.166l.184-.43-4.767-10.966h2.659l3.437,8.081,3.458-8.081Z" transform="translate(-1988.358 -365.505)" fill="#fff"/>
    <path id="Path_100945" data-name="Path 100945" d="M425.536,308.405l-6.875-3.967-5.654,5.466,5.167,5,7.362-4.249a1.3,1.3,0,0,0,0-2.245" transform="translate(-382.118 -281.669)" fill="#fff"/>
    <path id="Path_100946" data-name="Path 100946" d="M174.316,136.3l-7.566-4.367-16.579-8.5,18.726,18.1Z" transform="translate(-138.94 -114.205)" fill="#fff"/>
    <path id="Path_100947" data-name="Path 100947" d="M153.85,407.4l16.333-9,7.05-4.07-4.932-4.768Z" transform="translate(-142.343 -360.43)" fill="#fff"/>
    <path id="Path_100948" data-name="Path 100948" d="M135.159,133.23l-.018,36.558L154.059,151.5Z" transform="translate(-125.034 -123.266)" fill="#fff"/>
  </g>
</svg>
