<svg id="Group_89929" data-name="Group 89929" xmlns="http://www.w3.org/2000/svg" width="244.324" height="42.753" viewBox="0 0 244.324 42.753">
  <g id="Group_237" data-name="Group 237">
    <path id="Path_77719" data-name="Path 77719" d="M503.13,440.532c1.006,1.841,2.015,4.077,3.654,5.437a10.715,10.715,0,0,0,6.559,2.263c6.364,0,10-2.442,10-7.324a16.816,16.816,0,0,0-10.586-14.5c-7.262-2.957,1.217-11.723,1.242-11.723,4.367,0,8.186,3.02,11,6.081,6.478,7.051,10.342,17.566,10.342,23.541,0,8.307-8.3,12.507-15.22,12.507a14.1,14.1,0,0,1-10.535-4.1C506.779,449.915,504.788,445.753,503.13,440.532Z" transform="translate(-458.836 -414.673)" fill="#d6d1ed"/>
    <path id="Path_77720" data-name="Path 77720" d="M373.831,451.073c3.4,9.471,5.36,14.464,6.438,19.142.678,2.949-2.809,12.974-4.631,9.371-.564-1.116-4.307,1.791-5.294-.083-3.642-6.93-7.856-27.933-13.177-27.978-.189,0,9.776-12.543,16.662-.452Z" transform="translate(-337.749 -440.492)" fill="#d6d1ed"/>
    <path id="Path_77721" data-name="Path 77721" d="M249.137,457.188c8.991,0,10.637-10.509,13.828-20.112,2.625-7.9,5.279-15.224,9.911-15.224a7.231,7.231,0,0,1,5.36,2.483,9.171,9.171,0,0,1,1.094,1.324c-2.609-6.564-7.3-10.5-13.212-10.48-9.989,0-13.463,11.494-16.526,21.588-2.874,9.47-6.177,14.17-6.339,16.168-.141,1.742,2.511,4.254,5.882,4.254Z" transform="translate(-243.248 -415.079)" fill="#845fff"/>
    <path id="Path_77722" data-name="Path 77722" d="M469.077,423.725a9.15,9.15,0,0,0-5.756-2.461c-2.275,0-4.871,1.229-7.082,5.422-.107.2-.211.407-.31.615a79.993,79.993,0,0,0-3.5,9.205c-1.127,3.392-2.061,6.9-3.194,10.012-.295.808-.6,1.59-.929,2.337-1.986,4.525-4.714,7.764-9.7,7.764-3.37,0-6.022-2.511-5.882-4.252.162-2,3.463-6.7,6.339-16.166,2.906-9.579,6.5-21.654,16.442-21.61,4.442.02,9.456,2.488,13.569,9.139Z" transform="translate(-400.426 -414.589)" fill="#845fff"/>
  </g>
  <g id="Group_240" data-name="Group 240" transform="translate(90.627 16.911)">
    <g id="Group_239" data-name="Group 239" transform="translate(0 0)">
      <path id="Path_77723" data-name="Path 77723" d="M1036.3,528.744c.782,3.869,3.869,6.172,7.968,6.172a8.392,8.392,0,0,0,6.91-3.317l4.283,2.765c-2.073,3.179-6.4,5.3-11.193,5.3-7.784,0-13.357-5.527-13.357-12.943s5.343-12.9,12.667-12.9,12.667,5.021,12.667,12.253a21.788,21.788,0,0,1-.138,2.671Zm14.556-4.1c-.23-3.685-3.133-6.172-7.232-6.172a7.235,7.235,0,0,0-7.324,6.172Z" transform="translate(-987.288 -513.818)" fill="#d6d1ed"/>
      <path id="Path_77724" data-name="Path 77724" d="M1202.239,528.744c.782,3.869,3.869,6.172,7.968,6.172a8.392,8.392,0,0,0,6.91-3.317l4.283,2.765c-2.073,3.179-6.4,5.3-11.193,5.3-7.784,0-13.357-5.527-13.357-12.943s5.343-12.9,12.667-12.9,12.667,5.021,12.667,12.253a21.793,21.793,0,0,1-.138,2.671Zm14.556-4.1c-.23-3.685-3.133-6.172-7.232-6.172a7.235,7.235,0,0,0-7.324,6.172Z" transform="translate(-1124.945 -513.818)" fill="#d6d1ed"/>
      <path id="Path_77725" data-name="Path 77725" d="M1390.094,525.112v13.9h-5.626v-13.9a6.237,6.237,0,1,0-12.468,0h0v13.9h-5.626v-13.9c0-6.238,5.309-11.292,11.861-11.292s11.861,5.054,11.861,11.292Z" transform="translate(-1265.572 -513.818)" fill="#d6d1ed"/>
      <g id="Group_238" data-name="Group 238">
        <path id="Path_77726" data-name="Path 77726" d="M814.79,525.1v13.906h-5.626V525.1c0-3.555-2.568-6.437-5.737-6.437s-5.734,2.882-5.734,6.438v13.906h-5.628V525.1h0c0-.022,0-.041,0-.063-.029-3.526-2.586-6.376-5.734-6.376s-5.734,2.882-5.734,6.438v13.906H774.97V525.1a11.378,11.378,0,0,1,19.911-7.438,11.375,11.375,0,0,1,19.907,7.438Z" transform="translate(-774.97 -513.81)" fill="#d6d1ed"/>
        <path id="Path_77727" data-name="Path 77727" d="M875.28,579.69v.063h0C875.282,579.731,875.282,579.712,875.28,579.69Z" transform="translate(-858.183 -568.461)" fill="#d6d1ed"/>
      </g>
    </g>
    <path id="Path_77728" data-name="Path 77728" d="M1550.514,527.071V539.29h-5.529v-3.733l-.046-8.566c0-4.929-2.676-8.06-7.462-8.06-4.515,0-7.6,3.5-7.6,8.06,0,3.276,1.808,8.125,8.15,8.125a17.629,17.629,0,0,0,4.827-.758c0,1.541-.048,3.656-.048,4.777a16.429,16.429,0,0,1-5.134.791c-6.081,0-13.092-3.133-13.092-12.935,0-1.067.254-12.841,12.894-12.841,11.021,0,13.04,7.4,13.04,12.919Z" transform="translate(-1396.817 -514.092)" fill="#d6d1ed"/>
  </g>
</svg>
