<svg xmlns="http://www.w3.org/2000/svg" width="46.826" height="40" viewBox="0 0 46.826 40">
  <g id="Group_89942" data-name="Group 89942" transform="translate(0 0)">
    <path id="Path_101515" data-name="Path 101515" d="M48.1,21.349,30.465,7.775a8.348,8.348,0,0,0-10.184,0L2.649,21.349a1.666,1.666,0,1,0,2.037,2.638L7.007,22.2V37.694a8.348,8.348,0,0,0,8.348,8.348H35.39a8.348,8.348,0,0,0,8.348-8.348V22.2l2.321,1.786A1.67,1.67,0,1,0,48.1,21.349ZM30.381,42.7H20.364V36.024a5.009,5.009,0,1,1,10.018,0ZM40.4,37.694A5.009,5.009,0,0,1,35.39,42.7H33.72V36.024a8.348,8.348,0,1,0-16.7,0V42.7h-1.67a5.009,5.009,0,0,1-5.009-5.009V19.629l11.971-9.2a5.009,5.009,0,0,1,6.111,0l11.971,9.2Z" transform="translate(-2.003 -6.042)" fill="#3b3659"/>
    <path id="Path_101517" data-name="Path 101517" d="M30.381,46.177H20.364V35.794a5.011,5.011,0,0,1,10.018,0Zm3.339,0V35.794a8.351,8.351,0,0,0-16.7,0V46.177Z" transform="translate(-1.96 -6.177)" fill="#8450ff"/>
  </g>
</svg>
