<svg xmlns="http://www.w3.org/2000/svg" width="42" height="42" viewBox="0 0 42 42">
  <g id="Group_89832" data-name="Group 89832" transform="translate(42) rotate(90)">
    <circle id="Ellipse_1" data-name="Ellipse 1" cx="21" cy="21" r="21" transform="translate(0)" fill="#3b3659" opacity="0.4"/>
    <g id="Group_89664" data-name="Group 89664" transform="translate(11.735 15.777)">
      <path id="Path_101469" data-name="Path 101469" d="M6.652,8.489c-.3-.335-.669-.745-.839-.91C4.109,5.938,2.295,4.514.548,2.952A1.876,1.876,0,0,1,.261.667,1.2,1.2,0,0,1,2.138.317C3.912,1.9,5.75,3.35,7.479,5.016A11.377,11.377,0,0,1,9.155,6.882a3.552,3.552,0,0,1,.58,1.7,2.376,2.376,0,0,1-.443,1.435,16.08,16.08,0,0,1-1.458,1.515,29.126,29.126,0,0,0-4.31,5.245,1.2,1.2,0,0,1-1.868.41,1.868,1.868,0,0,1-.338-2.273A32.228,32.228,0,0,1,6.051,9.092c.068-.075.337-.342.6-.6Z" transform="matrix(-0.087, 0.996, -0.996, -0.087, 18.264, 1.524)" fill="#fff" fill-rule="evenodd"/>
    </g>
  </g>
</svg>
