<svg xmlns="http://www.w3.org/2000/svg" width="25.502" height="20.857" viewBox="0 0 25.502 20.857">
  <g id="Group_89592" data-name="Group 89592" transform="translate(0.25 0.75)">
    <path id="Path_101400" data-name="Path 101400" d="M16.749,5.561,11.925,9.445a2.514,2.514,0,0,1-3.106,0L3.954,5.561" transform="translate(2.2 0.728)" fill="none" stroke="#8450ff" stroke-linecap="round" stroke-linejoin="round" stroke-width="1.5" fill-rule="evenodd"/>
    <path id="Path_101401" data-name="Path 101401" d="M6.1,0H17.866a6.492,6.492,0,0,1,4.468,1.8,5.367,5.367,0,0,1,1.655,4.189V13.37a5.367,5.367,0,0,1-1.655,4.189,6.492,6.492,0,0,1-4.468,1.8H6.1A5.88,5.88,0,0,1,0,13.37V5.987A5.88,5.88,0,0,1,6.1,0Z" transform="translate(0.5)" fill="none" stroke="#3b3659" stroke-linecap="round" stroke-linejoin="round" stroke-width="1.5" fill-rule="evenodd"/>
  </g>
</svg>
