<svg xmlns="http://www.w3.org/2000/svg" width="24.508" height="24.519" viewBox="0 0 24.508 24.519">
  <g id="Group_89595" data-name="Group 89595" transform="translate(-179.744 -2144.734)">
    <path id="Path_101403" data-name="Path 101403" d="M23.079,15.119c-.236-.045-.471-.095-.7-.151a12.893,12.893,0,0,1-1.453-.45,2.411,2.411,0,0,0-2.992,1.136l-.9,1.731a17.018,17.018,0,0,1-6.4-6.416l1.72-.9a2.416,2.416,0,0,0,1.136-2.992,12.994,12.994,0,0,1-.449-1.456c-.059-.234-.108-.469-.152-.706A3.594,3.594,0,0,0,9.333,2H5.641a3.642,3.642,0,0,0-2.765,1.27,3.592,3.592,0,0,0-.836,2.885,23.776,23.776,0,0,0,19.8,19.8A3.617,3.617,0,0,0,26,22.36V18.669A3.594,3.594,0,0,0,23.079,15.119ZM24.8,22.36a2.444,2.444,0,0,1-.853,1.855,2.4,2.4,0,0,1-1.927.559A22.57,22.57,0,0,1,3.227,5.978a2.4,2.4,0,0,1,.559-1.924A2.444,2.444,0,0,1,5.641,3.2H9.333A2.393,2.393,0,0,1,11.7,5.138q.073.39.168.775a13.944,13.944,0,0,0,.491,1.59,1.216,1.216,0,0,1-.567,1.506L9.533,10.185h0a.6.6,0,0,0-.254.808A18.175,18.175,0,0,0,17,18.735a.6.6,0,0,0,.81-.254l1.184-2.274a1.218,1.218,0,0,1,1.5-.567,13.691,13.691,0,0,0,1.591.492q.383.095.771.165a2.4,2.4,0,0,1,1.94,2.371Z" transform="translate(177.999 2143.001)" fill="#3b3659" stroke="#3b3659" stroke-width="0.5"/>
    <path id="Path_101406" data-name="Path 101406" d="M19.947,12.113l0,.017a.58.58,0,0,0,.511.643.482.482,0,0,0,.082.007.625.625,0,0,0,.6-.533A4.355,4.355,0,0,0,21.2,11.6a4.8,4.8,0,0,0-4.8-4.8,4.534,4.534,0,0,0-.688.068l.218,1.18A3.143,3.143,0,0,1,16.4,8,3.6,3.6,0,0,1,20,11.6a3.142,3.142,0,0,1-.048.47ZM14.72,3.369a8.405,8.405,0,0,1,9.912,9.912.6.6,0,0,0,1.177.239A9.608,9.608,0,0,0,14.481,2.193h0a.6.6,0,0,0,.243,1.176Z" transform="translate(177.999 2143.001)" fill="#845fff" stroke="#8450ff" stroke-width="0.5"/>
  </g>
</svg>
