<svg xmlns="http://www.w3.org/2000/svg" width="20.301" height="20.301" viewBox="0 0 20.301 20.301">
  <g id="Group_89825" data-name="Group 89825" transform="translate(-153 -879)">
    <path id="External_Link" d="M21.594,22.271V14.15a.677.677,0,1,0-1.353,0v8.12a.677.677,0,0,1-.677.677H6.03a.677.677,0,0,1-.677-.677V8.737A.677.677,0,0,1,6.03,8.06h8.12a.677.677,0,0,0,0-1.353H6.03A2.032,2.032,0,0,0,4,8.737V22.271A2.032,2.032,0,0,0,6.03,24.3H19.564A2.032,2.032,0,0,0,21.594,22.271Z" transform="translate(149 875)" fill="#3b3659"/>
    <path id="External_Link-2" data-name="External_Link" d="M24.3,4.677v6.09a.677.677,0,1,1-1.353,0V6.31l-9.672,9.672a.677.677,0,0,1-.957-.957l9.672-9.672H17.534a.677.677,0,0,1,0-1.353h6.09a.676.676,0,0,1,.677.677Z" transform="translate(149 875)" fill="#845fff"/>
  </g>
</svg>
