<svg xmlns="http://www.w3.org/2000/svg" xmlns:xlink="http://www.w3.org/1999/xlink" width="62.559" height="27.606" viewBox="0 0 62.559 27.606">
  <defs>
    <clipPath id="clip-path">
      <rect id="Rectangle_69487" data-name="Rectangle 69487" width="62.559" height="27.606" fill="none"/>
    </clipPath>
  </defs>
  <g id="Group_89705" data-name="Group 89705" transform="translate(-913 -1954)">
    <g id="Group_89661" data-name="Group 89661" transform="translate(913 1954)">
      <g id="Group_89660" data-name="Group 89660" transform="translate(0 0)" clip-path="url(#clip-path)">
        <path id="Path_101468" data-name="Path 101468" d="M62.559,13.577c-.685,6.381-7.5,9.527-12.874,11.442-11.863,3.993-33.911,3.5-45.032-2.424A9.144,9.144,0,0,1,0,16.21c-.084-2.033,1.15-3.856,2.39-5.365C5.717,7.286,10.5,5.47,14.934,3.7c-2.848.7-5.669,1.5-8.52,2.188l-3.573.9a.546.546,0,0,1-.29-1.052c1.985-.5,3.969-1.008,5.957-1.5A94.975,94.975,0,0,1,20.1,1.625C22.418,1.3,24.737,1.021,27.04.6c1.4-.2,2.8-.414,4.214-.522.688,0,2.532-.456,1.988.793,7.7.487,28.839,2.776,29.318,12.7m-1.093-.427C60.147,4.827,41.553,2.621,34.615,2.045a56.3,56.3,0,0,0-10.577.19A66.273,66.273,0,0,0,12.591,5.787C8.871,7.546,4.743,9.152,2.361,12.681.872,14.674.652,16.853,2.219,18.889c3.373,4.738,11.657,5.989,17.093,6.795,11.557,1.322,23.9,1.588,34.578-3.573,3.476-1.816,7.516-4.639,7.576-8.96" transform="translate(0 0)" fill="#8450ff"/>
      </g>
    </g>
  </g>
</svg>
