<svg xmlns="http://www.w3.org/2000/svg" xmlns:xlink="http://www.w3.org/1999/xlink" width="24" height="23" viewBox="0 0 24 23">
  <defs>
    <clipPath id="clip-path">
      <rect id="Rectangle_69533" data-name="Rectangle 69533" width="23" height="14" transform="translate(151 852.5)" fill="#fff" stroke="#707070" stroke-width="1"/>
    </clipPath>
    <clipPath id="clip-path-2">
      <rect id="Rectangle_69534" data-name="Rectangle 69534" width="24" height="9" transform="translate(151 843.5)" fill="#fff" stroke="#707070" stroke-width="1"/>
    </clipPath>
  </defs>
  <g id="Group_89826" data-name="Group 89826" transform="translate(-151 -843.5)">
    <g id="Mask_Group_65" data-name="Mask Group 65" clip-path="url(#clip-path)">
      <path id="Icon_feather-phone-call" data-name="Icon feather-phone-call" d="M23.468,18.229v3.062a2.041,2.041,0,0,1-2.225,2.041A20.2,20.2,0,0,1,12.434,20.2,19.9,19.9,0,0,1,6.31,14.075a20.2,20.2,0,0,1-3.134-8.85A2.041,2.041,0,0,1,5.207,3H8.269a2.041,2.041,0,0,1,2.041,1.756,13.106,13.106,0,0,0,.715,2.868,2.041,2.041,0,0,1-.459,2.154l-1.3,1.3A16.332,16.332,0,0,0,15.394,17.2l1.3-1.3a2.041,2.041,0,0,1,2.154-.459,13.106,13.106,0,0,0,2.868.715A2.041,2.041,0,0,1,23.468,18.229Z" transform="translate(149.332 842)" fill="none" stroke="#3b3659" stroke-linecap="round" stroke-linejoin="round" stroke-width="1.5"/>
    </g>
    <g id="Mask_Group_66" data-name="Mask Group 66" clip-path="url(#clip-path-2)">
      <path id="Icon_feather-phone-call-2" data-name="Icon feather-phone-call" d="M23.468,18.229v3.062a2.041,2.041,0,0,1-2.225,2.041A20.2,20.2,0,0,1,12.434,20.2,19.9,19.9,0,0,1,6.31,14.075a20.2,20.2,0,0,1-3.134-8.85A2.041,2.041,0,0,1,5.207,3H8.269a2.041,2.041,0,0,1,2.041,1.756,13.106,13.106,0,0,0,.715,2.868,2.041,2.041,0,0,1-.459,2.154l-1.3,1.3A16.332,16.332,0,0,0,15.394,17.2l1.3-1.3a2.041,2.041,0,0,1,2.154-.459,13.106,13.106,0,0,0,2.868.715A2.041,2.041,0,0,1,23.468,18.229Z" transform="translate(149.332 842)" fill="none" stroke="#8450ff" stroke-linecap="round" stroke-linejoin="round" stroke-width="1.5"/>
    </g>
  </g>
</svg>
