<svg xmlns="http://www.w3.org/2000/svg" width="17.469" height="17.501" viewBox="0 0 17.469 17.501">
  <path id="Icon_feather-phone-call" data-name="Icon feather-phone-call" d="M3.168,14.979v2.409a1.606,1.606,0,0,0,1.75,1.606,15.889,15.889,0,0,0,6.929-2.465,15.656,15.656,0,0,0,4.817-4.817A15.889,15.889,0,0,0,19.129,4.75,1.606,1.606,0,0,0,17.532,3H15.123a1.606,1.606,0,0,0-1.606,1.381,10.309,10.309,0,0,1-.562,2.256,1.606,1.606,0,0,0,.361,1.694l1.02,1.02a12.846,12.846,0,0,1-4.817,4.817L8.5,13.148a1.606,1.606,0,0,0-1.694-.361,10.309,10.309,0,0,1-2.256.562A1.606,1.606,0,0,0,3.168,14.979Z" transform="translate(-2.417 -2.25)" fill="none" stroke="#fff" stroke-linecap="round" stroke-linejoin="round" stroke-width="1.5"/>
</svg>
