<svg id="Group_89419" data-name="Group 89419" xmlns="http://www.w3.org/2000/svg" width="18.759" height="23.136" viewBox="0 0 18.759 23.136">
  <path id="Path_100894" data-name="Path 100894" d="M11.1,4.29a1.056,1.056,0,0,1-.7.675c-3.121,1.423-4.9,6.105-6.426,9.047,8.681-3.939,8.279,4.667,3.766,9.392-1.539,1.854-4.6,2.662-6.552.99C-.527,22.627-.034,19.882.51,17.722c-.766-.659-.185-1.617.593-1.938a35.337,35.337,0,0,1,6.43-11.37c.8-.99,3.819-2.475,3.566-.125M8.862,15.745c-1.249-1.989-4.652.443-6.068,1.336C-.8,28.04,9.259,22.612,8.862,15.745" transform="translate(0 -3.033)" fill="#8450ff"/>
  <path id="Path_100895" data-name="Path 100895" d="M37.831,5.925a28.33,28.33,0,0,0-7.215,12.4c2.8-1.661,9.687-4.055,8.538,1.748a9.153,9.153,0,0,1-3.815,6.189c-4.531,2.355-7.986-.867-7.168-5.667a24.042,24.042,0,0,1,2.879-8.7c.743-1.4,5.1-9.2,6.839-7.383a1.016,1.016,0,0,1-.058,1.421m-.586,12.618c-2.47-.7-4.822,1.405-7.069,2.2-.538,3.076.984,5.393,4.184,3.762a7.293,7.293,0,0,0,2.886-5.962" transform="translate(-20.524 -3.911)" fill="#8450ff"/>
</svg>
