<svg xmlns="http://www.w3.org/2000/svg" width="30.885" height="32" viewBox="0 0 30.885 32">
  <g id="Layer_13" transform="translate(-1.619 -1.1)">
    <g id="Group_89880" data-name="Group 89880" transform="translate(1.619 1.1)">
      <path id="Path_101622" data-name="Path 101622" d="M8.614,11.063h7.42a.966.966,0,1,0,0-1.933H8.614a.966.966,0,1,0,0,1.933Z" transform="translate(-1.174 -0.507)" fill="#3b3659"/>
      <path id="Path_101623" data-name="Path 101623" d="M23.349,16.056a.967.967,0,0,0-.966-.966H8.605a.966.966,0,0,0,0,1.933H22.383A.967.967,0,0,0,23.349,16.056Z" transform="translate(-1.175 -0.067)" fill="#3b3659"/>
      <path id="Path_101624" data-name="Path 101624" d="M8.608,21.068a.966.966,0,1,0,0,1.933h5.5a.966.966,0,1,0,0-1.933Z" transform="translate(-1.174 0.374)" fill="#3b3659"/>
      <path id="Path_101625" data-name="Path 101625" d="M31.536,14.877a.967.967,0,0,0-.966.966V28.955a2.214,2.214,0,0,1-2.212,2.212H5.764a2.214,2.214,0,0,1-2.212-2.212V5.245A2.214,2.214,0,0,1,5.764,3.033H17.769a.966.966,0,0,0,0-1.933H5.764A4.15,4.15,0,0,0,1.619,5.245v23.71A4.15,4.15,0,0,0,5.764,33.1H28.357A4.15,4.15,0,0,0,32.5,28.955V15.844a.967.967,0,0,0-.966-.966Z" transform="translate(-1.619 -1.1)" fill="#3b3659"/>
    </g>
    <path id="Path_101626" data-name="Path 101626" d="M24.706,14.26a6.58,6.58,0,1,0-6.579-6.58,6.587,6.587,0,0,0,6.579,6.58Zm0-11.227A4.648,4.648,0,1,1,20.059,7.68a4.653,4.653,0,0,1,4.648-4.648Z" transform="translate(1.219)" fill="#8450ff"/>
    <path id="Path_101627" data-name="Path 101627" d="M22.859,9.208a.966.966,0,0,0,.651.364.937.937,0,0,0,.11.006.958.958,0,0,0,.606-.214l2.74-2.208a.966.966,0,0,0-1.212-1.5L23.775,7.245l-.472-.6a.966.966,0,1,0-1.521,1.192Z" transform="translate(1.473 0.32)" fill="#8450ff"/>
  </g>
</svg>
