<svg xmlns="http://www.w3.org/2000/svg" width="33.201" height="33.201" viewBox="0 0 33.201 33.201">
  <path id="Path_101392" data-name="Path 101392" d="M27.465,7.744h0a1.992,1.992,0,1,0,1.992,1.992A1.992,1.992,0,0,0,27.465,7.744ZM35.1,11.761a12.6,12.6,0,0,0-.764-4.034,8.2,8.2,0,0,0-1.926-2.938A7.8,7.8,0,0,0,29.474,2.88,12.118,12.118,0,0,0,25.44,2.1C23.68,2,23.116,2,18.6,2s-5.08,0-6.839.1a12.118,12.118,0,0,0-4.034.78A7.935,7.935,0,0,0,4.789,4.789,7.8,7.8,0,0,0,2.88,7.727a12.118,12.118,0,0,0-.78,4.034C2,13.521,2,14.085,2,18.6s0,5.08.1,6.839a12.118,12.118,0,0,0,.78,4.034,7.8,7.8,0,0,0,1.909,2.938,7.935,7.935,0,0,0,2.938,1.909,12.118,12.118,0,0,0,4.034.78c1.76.1,2.324.1,6.839.1s5.08,0,6.839-.1a12.118,12.118,0,0,0,4.034-.78,7.8,7.8,0,0,0,2.938-1.909,8.051,8.051,0,0,0,1.926-2.938A12.6,12.6,0,0,0,35.1,25.44c0-1.76.1-2.324.1-6.839S35.2,13.521,35.1,11.761Zm-2.988,13.48a9.313,9.313,0,0,1-.564,3.088A5.08,5.08,0,0,1,30.3,30.238a5.3,5.3,0,0,1-1.909,1.245,9.313,9.313,0,0,1-3.088.564c-1.66.083-2.274.1-6.64.1s-4.98,0-6.64-.1a9.512,9.512,0,0,1-3.221-.5A5.428,5.428,0,0,1,6.98,30.3a4.98,4.98,0,0,1-1.228-1.909,9.2,9.2,0,0,1-.664-3.154c0-1.66-.1-2.274-.1-6.64s0-4.98.1-6.64a9.2,9.2,0,0,1,.581-3.154A4.98,4.98,0,0,1,6.98,6.98,5.213,5.213,0,0,1,8.806,5.652a9.512,9.512,0,0,1,3.154-.564c1.66,0,2.274-.1,6.64-.1s4.98,0,6.64.1a9.313,9.313,0,0,1,3.088.564A5.08,5.08,0,0,1,30.3,6.98a5.08,5.08,0,0,1,1.245,1.826,9.313,9.313,0,0,1,.564,3.154c.083,1.66.1,2.274.1,6.64S32.2,23.581,32.113,25.241ZM18.6,10.084a8.5,8.5,0,1,0,6.037,2.484A8.516,8.516,0,0,0,18.6,10.084Zm0,14.044A5.528,5.528,0,1,1,24.129,18.6,5.528,5.528,0,0,1,18.6,24.129Z" transform="translate(-2 -2)" fill="#e6e7e7"/>
</svg>
