<svg xmlns="http://www.w3.org/2000/svg" width="28.248" height="28.248" viewBox="0 0 28.248 28.248">
  <path id="Path_101666" data-name="Path 101666" d="M23.666,6.887h0a1.695,1.695,0,1,0,1.695,1.695A1.695,1.695,0,0,0,23.666,6.887Zm6.5,3.418a10.72,10.72,0,0,0-.65-3.432,6.977,6.977,0,0,0-1.638-2.5,6.638,6.638,0,0,0-2.5-1.624,10.31,10.31,0,0,0-3.432-.664C20.446,2,19.965,2,16.124,2S11.8,2,10.3,2.085a10.31,10.31,0,0,0-3.432.664,6.751,6.751,0,0,0-2.5,1.624,6.638,6.638,0,0,0-1.624,2.5A10.31,10.31,0,0,0,2.085,10.3C2,11.8,2,12.282,2,16.124s0,4.322.085,5.819a10.31,10.31,0,0,0,.664,3.432,6.638,6.638,0,0,0,1.624,2.5,6.751,6.751,0,0,0,2.5,1.624,10.31,10.31,0,0,0,3.432.664c1.5.085,1.977.085,5.819.085s4.322,0,5.819-.085a10.31,10.31,0,0,0,3.432-.664,6.638,6.638,0,0,0,2.5-1.624,6.85,6.85,0,0,0,1.638-2.5,10.72,10.72,0,0,0,.65-3.432c0-1.5.085-1.977.085-5.819S30.248,11.8,30.163,10.3ZM27.621,21.773a7.923,7.923,0,0,1-.48,2.627,4.322,4.322,0,0,1-1.059,1.624,4.505,4.505,0,0,1-1.624,1.059,7.923,7.923,0,0,1-2.627.48c-1.412.071-1.935.085-5.65.085s-4.237,0-5.65-.085a8.093,8.093,0,0,1-2.74-.424,4.618,4.618,0,0,1-1.554-1.059,4.237,4.237,0,0,1-1.045-1.624,7.825,7.825,0,0,1-.565-2.684c0-1.412-.085-1.935-.085-5.65s0-4.237.085-5.65a7.825,7.825,0,0,1,.494-2.684A4.237,4.237,0,0,1,6.237,6.237a4.435,4.435,0,0,1,1.554-1.13,8.093,8.093,0,0,1,2.684-.48c1.412,0,1.935-.085,5.65-.085s4.237,0,5.65.085a7.924,7.924,0,0,1,2.627.48,4.322,4.322,0,0,1,1.681,1.13A4.322,4.322,0,0,1,27.14,7.791a7.923,7.923,0,0,1,.48,2.684c.071,1.412.085,1.935.085,5.65S27.691,20.361,27.621,21.773Zm-11.5-12.9a7.231,7.231,0,1,0,5.137,2.113,7.245,7.245,0,0,0-5.137-2.113Zm0,11.949a4.7,4.7,0,1,1,4.7-4.7,4.7,4.7,0,0,1-4.7,4.7Z" transform="translate(-2 -2)" fill="#3b3659"/>
</svg>
