<svg xmlns="http://www.w3.org/2000/svg" width="34.744" height="33.201" viewBox="0 0 34.744 33.201">
  <path id="Path_100843" data-name="Path 100843" d="M0,8.857A3.611,3.611,0,0,1,1.174,6.09,4.306,4.306,0,0,1,4.226,5,4.178,4.178,0,0,1,7.21,6.073,3.783,3.783,0,0,1,8.384,8.957a3.531,3.531,0,0,1-1.14,2.683,4.314,4.314,0,0,1-3.085,1.107H4.125A4.1,4.1,0,0,1,1.14,11.64,3.717,3.717,0,0,1,0,8.857ZM.436,38.2V15.8H7.881V38.2Zm11.57,0h7.445V25.692a4.366,4.366,0,0,1,1.694-3.739,3.644,3.644,0,0,1,2.4-.788q3.756,0,3.756,5.064V38.2h7.445V25.357q0-4.963-2.348-7.529a8.008,8.008,0,0,0-6.2-2.566,7.611,7.611,0,0,0-6.741,3.723v.067h-.034l.034-.067V15.8H12.006q.067,1.073.067,6.674T12.006,38.2Z" transform="translate(0 -5)" fill="#e6e7e7"/>
</svg>
