<svg xmlns="http://www.w3.org/2000/svg" width="34.744" height="28.284" viewBox="0 0 34.744 28.284">
  <path id="Path_100842" data-name="Path 100842" d="M36.744,7.238a14.749,14.749,0,0,1-4.1,1.112,7.175,7.175,0,0,0,3.144-3.943,14.262,14.262,0,0,1-4.534,1.737,7.123,7.123,0,0,0-12.16,6.5A20.221,20.221,0,0,1,4.415,5.188a7.227,7.227,0,0,0-.955,3.6,7.105,7.105,0,0,0,3.162,5.924,7.036,7.036,0,0,1-3.231-.886v.087a7.123,7.123,0,0,0,5.733,6.949,6.827,6.827,0,0,1-1.911.3,8.513,8.513,0,0,1-1.338-.122,7.14,7.14,0,0,0,6.653,4.934,14.28,14.28,0,0,1-8.79,3.057A13.776,13.776,0,0,1,2,28.918a20.1,20.1,0,0,0,10.927,3.214A20.134,20.134,0,0,0,33.27,11.842v-.921a14.645,14.645,0,0,0,3.474-3.683Z" transform="translate(-2 -3.849)" fill="#3B3659"/>
</svg>
