<svg xmlns="http://www.w3.org/2000/svg" width="49" height="39.4" viewBox="0 0 49 39.4">
  <g id="Group_89908" data-name="Group 89908" transform="translate(-323.5 -2609.5)">
    <path id="card" d="M2,19.2A11.2,11.2,0,0,1,13.2,8H38.8A11.2,11.2,0,0,1,50,19.2v16A11.2,11.2,0,0,1,38.8,46.4H18a1.6,1.6,0,1,1,0-3.2H38.8a8,8,0,0,0,8-8V20.8H5.2v9.6a1.6,1.6,0,0,1-3.2,0Zm3.36-1.6H46.64a8,8,0,0,0-7.84-6.4H13.2a8,8,0,0,0-7.84,6.4Z" transform="translate(322 2602)" fill="#3b3659" stroke="#fff" stroke-width="1" fill-rule="evenodd"/>
    <path id="card-2" data-name="card" d="M34,29.6A1.6,1.6,0,0,1,35.6,28H42a1.6,1.6,0,0,1,0,3.2H35.6A1.6,1.6,0,0,1,34,29.6ZM8.731,38.069a1.6,1.6,0,0,1,0,2.263L7.463,41.6H14.8a1.6,1.6,0,0,1,0,3.2H7.463l1.269,1.269a1.6,1.6,0,0,1-2.263,2.263l-4-4a1.6,1.6,0,0,1,0-2.263l4-4A1.6,1.6,0,0,1,8.731,38.069Z" transform="translate(322 2598)" fill="#8450ff" stroke="#fff" stroke-width="1" fill-rule="evenodd"/>
  </g>
</svg>
