<svg xmlns="http://www.w3.org/2000/svg" width="43.799" height="48" viewBox="0 0 43.799 48">
  <g id="Group_89907" data-name="Group 89907" transform="translate(-1106 -2783)">
    <path id="social-media" d="M24.726,31.614h2.121v3.528a.75.75,0,0,0,1.125.65l7.235-4.177h5.942V41.4a2.321,2.321,0,0,0,2.318,2.318h2.121V47.25a.75.75,0,0,0,1.125.65l7.235-4.177h9.941A2.321,2.321,0,0,0,66.207,41.4V27.154a2.321,2.321,0,0,0-2.318-2.318H47.466V21.469l4.473-2.582H61.88A2.321,2.321,0,0,0,64.2,16.568V2.318A2.321,2.321,0,0,0,61.88,0H41.458A2.321,2.321,0,0,0,39.14,2.318V12.727H24.726a2.321,2.321,0,0,0-2.318,2.318V29.3a2.321,2.321,0,0,0,2.318,2.318Zm39.163-5.278a.819.819,0,0,1,.818.818V41.4a.819.819,0,0,1-.818.818H53.747a.75.75,0,0,0-.375.1l-6.284,3.628V42.972a.75.75,0,0,0-.75-.75H43.467a.819.819,0,0,1-.818-.818V31.614h2.5A2.321,2.321,0,0,0,47.466,29.3v-2.96ZM40.64,2.318a.819.819,0,0,1,.818-.818H61.88a.819.819,0,0,1,.818.818v14.25a.819.819,0,0,1-.818.818H51.738a.75.75,0,0,0-.375.1l-6.284,3.628V18.136a.75.75,0,0,0-.75-.75H41.458C41.006,17.386,40.64,17.02,40.64,2.318ZM23.908,15.045a.819.819,0,0,1,.818-.818H39.14v2.341a2.321,2.321,0,0,0,2.318,2.318h2.121v3.528a.75.75,0,0,0,1.125.65l1.263-.729V29.3a.819.819,0,0,1-.818.818H35.006a.75.75,0,0,0-.375.1l-6.284,3.628V30.864a.75.75,0,0,0-.75-.75H24.726a.819.819,0,0,1-.818-.818Z" transform="translate(1083.592 2783)" fill="#3b3659"/>
    <path id="social-media-2" data-name="social-media" d="M29.1,20.917l3.455.108-.465,2.127-2.5-.078a.75.75,0,1,0-.047,1.5l2.223.069-.593,2.715a.75.75,0,1,0,1.465.32l.653-2.988,2.176.068-.619,2.834a.75.75,0,1,0,1.465.32l.679-3.107,3.733.117h.024a.75.75,0,0,0,.023-1.5l-3.455-.107.465-2.127,2.5.078h.024a.75.75,0,0,0,.023-1.5L38.108,19.7l.593-2.715a.75.75,0,1,0-1.465-.32l-.653,2.988-2.176-.068.619-2.834a.75.75,0,1,0-1.465-.32l-.679,3.107-3.733-.117a.75.75,0,0,0-.047,1.5Zm7.156.224-.465,2.127L33.616,23.2l.465-2.127Zm10.309-6.305H48.85a1.017,1.017,0,0,0,.862-.479l.221.064c.131.037.309.089.366.113a.751.751,0,0,0,.337.08h4.8a1.373,1.373,0,0,0,1.34-1.058l.974-4.079a1.377,1.377,0,0,0-1.34-1.7H55.053c0-1.025-.154-2.721-1.08-3.419A1.63,1.63,0,0,0,52.327,4.2a2.835,2.835,0,0,0-.319.154.75.75,0,0,0-.386.679l.04,1.311A17.7,17.7,0,0,1,50.1,8.8l-.166.005a.754.754,0,0,0-.084.008,1.018,1.018,0,0,0-1-.863H46.566a1.019,1.019,0,0,0-1.018,1.018v4.854a1.019,1.019,0,0,0,1.018,1.017ZM49.984,10.3l.516-.015a.75.75,0,0,0,.555-.271,18.43,18.43,0,0,0,2.033-3.167.751.751,0,0,0,.08-.36l-.026-.856a5.442,5.442,0,0,1,.386,2.821.75.75,0,0,0,.746.827h1.981l-.915,3.834H50.782c-.124-.045-.268-.086-.435-.134-.128-.037-.324-.094-.48-.147V10.3a.75.75,0,0,0,.117.006Zm-2.935-.855h1.319v3.889H47.048ZM53.3,40.31a.75.75,0,0,0,.762,0c1.689-1,6.011-4.326,5.734-7.724a3.659,3.659,0,0,0-2.423-3.247,3.873,3.873,0,0,0-3.692.733,3.873,3.873,0,0,0-3.692-.733,3.659,3.659,0,0,0-2.423,3.247C47.286,35.984,51.608,39.314,53.3,40.31Zm-4.239-7.6a2.152,2.152,0,0,1,1.417-1.95,2.092,2.092,0,0,1,.684-.115,2.719,2.719,0,0,1,1.967.96.75.75,0,0,0,1.1,0,2.5,2.5,0,0,1,2.652-.845,2.153,2.153,0,0,1,1.417,1.95c.168,2.059-2.532,4.725-4.62,6.075-2.087-1.35-4.788-4.016-4.62-6.075Z" transform="translate(1083.809 2783)" fill="#8450ff"/>
  </g>
</svg>
