<svg xmlns="http://www.w3.org/2000/svg" width="36" height="48" viewBox="0 0 36 48">
  <g id="Group_89641" data-name="Group 89641" transform="translate(-16)">
    <path id="Path_101427" data-name="Path 101427" d="M19,48H49a3,3,0,0,0,3-3V7.875a3,3,0,0,0-3-3H44.125v-.75a.75.75,0,0,0-.75-.75H38.057a4.125,4.125,0,0,0-8.113,0H25.375a.75.75,0,0,0-.75.75v.75H19a3,3,0,0,0-3,3V45A3,3,0,0,0,19,48ZM26.125,4.875h4.5a.75.75,0,0,0,.75-.75,2.625,2.625,0,1,1,5.25,0,.75.75,0,0,0,.75.75h5.25v4.5h-16.5Zm-.75,6h18a.75.75,0,0,0,.75-.75v-.75h2.25a.751.751,0,0,1,.75.75V37.781H42.906a1.5,1.5,0,0,0-1.5,1.5V43.5H21.625a.751.751,0,0,1-.75-.75V10.125a.751.751,0,0,1,.75-.75h3v.75a.75.75,0,0,0,.75.75ZM46.064,39.281,44.485,40.86l-1.579,1.579V39.281ZM17.5,7.875a1.5,1.5,0,0,1,1.5-1.5h5.625v1.5h-3a2.252,2.252,0,0,0-2.25,2.25V42.75A2.252,2.252,0,0,0,21.625,45H42.156a.77.77,0,0,0,.53-.22l5.719-5.719a.767.767,0,0,0,.22-.53V10.125a2.252,2.252,0,0,0-2.25-2.25h-2.25v-1.5H49a1.5,1.5,0,0,1,1.5,1.5V45A1.5,1.5,0,0,1,49,46.5H19A1.5,1.5,0,0,1,17.5,45Z" fill="#3b3659"/>
    <path id="Path_101428" data-name="Path 101428" d="M37.75,38.25a.75.75,0,0,0,.75.75H56.687a.75.75,0,0,0,0-1.5H38.5a.75.75,0,0,0-.75.75ZM56.687,40.5H38.5a.75.75,0,0,0,0,1.5H56.687a.75.75,0,0,0,0-1.5Zm0,3H38.5a.75.75,0,0,0,0,1.5H56.687a.75.75,0,0,0,0-1.5Zm0,3H38.5a.75.75,0,0,0,0,1.5H56.687a.75.75,0,0,0,0-1.5Zm0,3H38.5a.75.75,0,0,0,0,1.5H56.687a.75.75,0,0,0,0-1.5ZM49.724,57,46.8,59.565l-1.337-1.174a.75.75,0,1,0-.989,1.127l1.832,1.608a.75.75,0,0,0,.99,0l3.418-3A.75.75,0,0,0,49.724,57Z" transform="translate(-13.594 -23.437)" fill="#8450ff"/>
    <path id="Path_101429" data-name="Path 101429" d="M52.75,77a6.75,6.75,0,1,0,6.75,6.75A6.75,6.75,0,0,0,52.75,77Zm0,12A5.25,5.25,0,1,1,58,83.75,5.25,5.25,0,0,1,52.75,89Z" transform="translate(-18.75 -48.125)" fill="#8450ff"/>
  </g>
</svg>
