<svg xmlns="http://www.w3.org/2000/svg" width="40" height="48" viewBox="0 0 40 48">
  <g id="medical-app" transform="translate(-10 -5)">
    <path id="Path_101636" data-name="Path 101636" d="M37.556,41.444a.889.889,0,0,0-.889.889v6.222A2.67,2.67,0,0,1,34,51.222H14.444a2.67,2.67,0,0,1-2.667-2.667V9.444a2.67,2.67,0,0,1,2.667-2.667H17.45l1.532,3.064a.889.889,0,0,0,.8.491h8.889a.889.889,0,0,0,.8-.491l1.532-3.064H34a2.67,2.67,0,0,1,2.667,2.667v4.444a.889.889,0,1,0,1.778,0V9.444A4.45,4.45,0,0,0,34,5H14.444A4.45,4.45,0,0,0,10,9.444V48.556A4.45,4.45,0,0,0,14.444,53H34a4.45,4.45,0,0,0,4.444-4.444V42.333A.889.889,0,0,0,37.556,41.444ZM29.006,6.778l-.889,1.778h-7.79l-.889-1.778Z" fill="#3b3659"/>
    <path id="Path_101637" data-name="Path 101637" d="M22.889,54.778h5.333a.889.889,0,0,0,0-1.778H22.889a.889.889,0,0,0,0,1.778Z" transform="translate(-1.333 -5.333)" fill="#3b3659"/>
    <path id="Path_101638" data-name="Path 101638" d="M39.333,17a12.444,12.444,0,0,0-10.9,18.448l-2.354,5.185a.889.889,0,0,0,.809,1.256.875.875,0,0,0,.216-.027l6.183-1.548A12.442,12.442,0,1,0,39.333,17Zm0,23.111A10.555,10.555,0,0,1,33.882,38.6a.889.889,0,0,0-.459-.128.869.869,0,0,0-.216.027L28.46,39.69l1.781-3.923a.89.89,0,0,0-.048-.826,10.667,10.667,0,1,1,9.14,5.17Z" transform="translate(-1.778 -1.333)" fill="#8450ff"/>
    <path id="Path_101639" data-name="Path 101639" d="M46.333,28.444H42.778V24.889A.889.889,0,0,0,41.889,24H38.333a.889.889,0,0,0-.889.889v3.556H33.889a.889.889,0,0,0-.889.889v3.556a.889.889,0,0,0,.889.889h3.556v3.556a.889.889,0,0,0,.889.889h3.556a.889.889,0,0,0,.889-.889V33.778h3.556a.889.889,0,0,0,.889-.889V29.333A.889.889,0,0,0,46.333,28.444ZM45.444,32H41.889a.889.889,0,0,0-.889.889v3.556H39.222V32.889A.889.889,0,0,0,38.333,32H34.778V30.222h3.556a.889.889,0,0,0,.889-.889V25.778H41v3.556a.889.889,0,0,0,.889.889h3.556Z" transform="translate(-2.556 -2.111)" fill="#8450ff"/>
  </g>
</svg>
