<svg xmlns="http://www.w3.org/2000/svg" width="37.754" height="49.5" viewBox="0 0 37.754 49.5">
  <g id="Group_89640" data-name="Group 89640" transform="translate(-1.723 -279.846)">
    <path id="Path_101423" data-name="Path 101423" d="M29.115,285.258v25.551a2.723,2.723,0,0,1-2.775,2.681H7.152a2.723,2.723,0,0,1-2.775-2.681V285.258m5.318,18.351H23.847m-14.152,4.9h7.051m3.451,0h3.651" transform="translate(3.854 9.437)" fill="none" stroke="#8450ff" stroke-linecap="round" stroke-linejoin="round" stroke-width="1.5"/>
    <path id="Path_101424" data-name="Path 101424" d="M30.64,282.689h4.389a3.69,3.69,0,0,1,3.7,3.7v34.275a3.69,3.69,0,0,1-3.7,3.7H6.171a3.69,3.69,0,0,1-3.7-3.7V286.387a3.69,3.69,0,0,1,3.7-3.7h4.348" transform="translate(0 4.237)" fill="none" stroke="#3b3659" stroke-linecap="round" stroke-linejoin="round" stroke-width="1.5"/>
    <path id="Path_101425" data-name="Path 101425" d="M10.163,280.6a1.845,1.845,0,0,0-1.849,1.849v2.385H7.08a1.845,1.845,0,0,0-1.849,1.849v4.427a1.845,1.845,0,0,0,1.849,1.849H22.951a1.845,1.845,0,0,0,1.849-1.849v-4.427a1.845,1.845,0,0,0-1.849-1.849H21.718v-2.385a1.846,1.846,0,0,0-1.85-1.849Z" transform="translate(5.584)" fill="none" stroke="#3b3659" stroke-linecap="round" stroke-linejoin="round" stroke-width="1.5"/>
    <path id="Path_101426" data-name="Path 101426" d="M11.6,286.436a1.748,1.748,0,0,0-1.752,1.752v1.443H8.41a1.748,1.748,0,0,0-1.752,1.752v1.045A1.748,1.748,0,0,0,8.41,294.18H9.853v1.442a1.748,1.748,0,0,0,1.752,1.752H12.65a1.748,1.748,0,0,0,1.752-1.752V294.18h1.442a1.748,1.748,0,0,0,1.752-1.752v-1.045a1.748,1.748,0,0,0-1.752-1.752H14.4v-1.443a1.748,1.748,0,0,0-1.752-1.752Z" transform="translate(8.472 11.821)" fill="none" stroke="#8450ff" stroke-width="1.5"/>
  </g>
</svg>
