<svg xmlns="http://www.w3.org/2000/svg" width="45.909" height="45.909" viewBox="0 0 45.909 45.909">
  <g id="Group_89909" data-name="Group 89909" transform="translate(-319.389 -2773.389)">
    <path id="voice-search" d="M23.121,31.783A9.891,9.891,0,0,0,33,21.9V9.88a9.88,9.88,0,1,0-19.76,0V21.9a9.891,9.891,0,0,0,9.88,9.88ZM16.079,9.88a7.042,7.042,0,1,1,14.084,0V21.9a7.042,7.042,0,1,1-14.084,0ZM39.4,24.76A16.6,16.6,0,0,1,24.54,38.373v4.2h9.224a1.419,1.419,0,1,1,0,2.838H12.478a1.419,1.419,0,0,1,0-2.838H21.7v-4.2A16.6,16.6,0,0,1,6.838,24.76a1.419,1.419,0,0,1,2.8-.492,13.693,13.693,0,0,0,26.974,0,1.419,1.419,0,0,1,2.8.492Z" transform="translate(319.223 2773.639)" fill="#3b3659" stroke="#fff" stroke-width="0.5"/>
    <path id="voice-search-2" data-name="voice-search" d="M39.008,10.087v8.2a1.419,1.419,0,1,1-2.838,0v-8.2a1.419,1.419,0,1,1,2.838,0Zm6.4,1.952v4.293a1.419,1.419,0,0,1-2.838,0V12.039a1.419,1.419,0,0,1,2.838,0ZM6.4,18.285v-8.2a1.419,1.419,0,1,1,2.838,0v8.2a1.419,1.419,0,1,1-2.838,0ZM2.838,12.039v4.293a1.419,1.419,0,0,1-2.838,0V12.039a1.419,1.419,0,0,1,2.838,0Z" transform="translate(319.639 2773.11)" fill="#8450ff" stroke="#fff" stroke-width="0.5"/>
  </g>
</svg>
