<svg xmlns="http://www.w3.org/2000/svg" width="33.457" height="48.159" viewBox="0 0 33.457 48.159">
  <g id="Online_QR_check-in" data-name="Online QR check-in" transform="translate(-12.541 -4)">
    <path id="Path_101628" data-name="Path 101628" d="M43.429,4H26.7a3.516,3.516,0,0,0-3.512,3.512V32.369l-3.755,5.007a.86.86,0,1,0,1.376,1.032l9.033-12.045a.9.9,0,0,1,1.547.147,4.312,4.312,0,0,1-.8,4.337c-2.138,3.265-3.827,5.844-3.9,10.006A8.5,8.5,0,0,1,23,47.6a.86.86,0,1,0,1.143,1.286,10.444,10.444,0,0,0,3.989-5.875h15.3A3.516,3.516,0,0,0,46.941,39.5V7.512A3.516,3.516,0,0,0,43.429,4ZM38.507,5.72l-.521,1.042H32.144L31.622,5.72ZM45.221,39.5a1.794,1.794,0,0,1-1.792,1.792H28.379c.021-3.818,1.4-6.131,3.649-9.5a5.937,5.937,0,0,0,.933-5.985,2.642,2.642,0,0,0-4.492-.473l-3.558,4.744V7.512A1.794,1.794,0,0,1,26.7,5.72h3l1.143,2.287a.86.86,0,0,0,.769.475h6.905a.86.86,0,0,0,.769-.476L40.43,5.72h3a1.794,1.794,0,0,1,1.792,1.792Z" transform="translate(-0.943)" fill="#3b3659"/>
    <path id="Path_101629" data-name="Path 101629" d="M20.014,27.6a.86.86,0,0,0-1.18.295l-5.209,8.674a7.663,7.663,0,0,0-1.085,3.924v14.1a.86.86,0,1,0,1.72,0v-14.1a5.941,5.941,0,0,1,.841-3.041l5.207-8.672a.86.86,0,0,0-.295-1.18Z" transform="translate(0 -3.294)" fill="#3b3659"/>
    <path id="Path_101630" data-name="Path 101630" d="M34.943,51.588c-1.137-.538-1.457,1.179-2.026,1.738-1.057,1.223-.872,3.148-.871,4.636a.86.86,0,1,0,1.72,0V55.9c-.014-1.261,1.029-2.016,1.536-3.152A.86.86,0,0,0,34.943,51.588Z" transform="translate(-2.735 -6.663)" fill="#3b3659"/>
    <path id="Path_101631" data-name="Path 101631" d="M33.389,17.43H29.246a.86.86,0,0,0-.86.86v4.143a.86.86,0,0,0,.86.86h4.143a.86.86,0,0,0,.86-.86V18.29A.86.86,0,0,0,33.389,17.43Zm-.86,4.143H30.106V19.15h2.423Z" transform="translate(-2.223 -1.885)" fill="#8450ff"/>
    <path id="Path_101632" data-name="Path 101632" d="M45.085,17.43H40.941a.86.86,0,0,0-.86.86v4.143a.86.86,0,0,0,.86.86h4.143a.86.86,0,0,0,.86-.86V18.29a.86.86,0,0,0-.86-.86Zm-.86,4.143H41.8V19.15h2.423Z" transform="translate(-3.865 -1.885)" fill="#8450ff"/>
    <path id="Path_101633" data-name="Path 101633" d="M45.085,29.126H40.941a.86.86,0,0,0-.86.86v4.143a.86.86,0,0,0,.86.86h4.143a.86.86,0,0,0,.86-.86V29.986a.86.86,0,0,0-.86-.86Zm-.86,4.143H41.8V30.846h2.423Z" transform="translate(-3.865 -3.526)" fill="#8450ff"/>
    <path id="Path_101634" data-name="Path 101634" d="M37.5,23.293a.86.86,0,0,0,.86-.86V18.29a.86.86,0,1,0-1.72,0v4.143a.86.86,0,0,0,.86.86Z" transform="translate(-3.382 -1.885)" fill="#8450ff"/>
    <path id="Path_101635" data-name="Path 101635" d="M44.578,26.548a.86.86,0,0,0-.86-.86H37.5a.86.86,0,0,0-.86.86v6.215a.86.86,0,1,0,1.72,0V27.408h5.355a.86.86,0,0,0,.86-.86Z" transform="translate(-3.382 -3.043)" fill="#8450ff"/>
  </g>
</svg>
