<svg xmlns="http://www.w3.org/2000/svg" width="36.011" height="48.912" viewBox="0 0 36.011 48.912">
  <g id="Group_89906" data-name="Group 89906" transform="translate(-1426.688 -2926.345)">
    <g id="_x32_5_Paper" transform="translate(1357.49 2925.525)">
      <path id="Path_101640" data-name="Path 101640" d="M72.113,11.443V24.036l-2.449,6.432a2.127,2.127,0,0,0,1.23,2.739l1.219.461v7.685a2.123,2.123,0,0,0,2.121,2.121h7.018l1.666,4.6a2.114,2.114,0,0,0,2.718,1.272l17.858-6.462a2.134,2.134,0,0,0,1.268-2.717L97.971,21.408l2.619-6.882a.656.656,0,0,0-.009-.42c-.031-.077-3.147-7.162-3.224-7.194a.675.675,0,0,0-.318-.3l-14-5.328A2.115,2.115,0,0,0,80.3,2.513L77.712,9.322H74.234a2.123,2.123,0,0,0-2.121,2.121ZM71.3,32.14a.982.982,0,0,1-.568-1.266l1.382-3.629v5.2Zm1.956,9.213V11.443a.981.981,0,0,1,.98-.98H88.642V13.9a2.123,2.123,0,0,0,2.121,2.121H94.2V41.352a.981.981,0,0,1-.98.98H74.234A.981.981,0,0,1,73.254,41.352ZM93.4,14.883H90.763a.981.981,0,0,1-.98-.98V11.271Zm10.293,25.671a.976.976,0,0,1-.585,1.257L85.245,48.272a.971.971,0,0,1-1.252-.587l-1.526-4.211H93.223a2.124,2.124,0,0,0,2.122-2.121V28.309l2-5.266ZM98.969,13.3l-2.46-.937a.981.981,0,0,1-.567-1.264l.936-2.46ZM81.371,2.919a.973.973,0,0,1,1.258-.567L96.1,7.476l-1.223,3.215A2.125,2.125,0,0,0,96.1,13.428l3.217,1.224L95.345,25.1V15.453a.646.646,0,0,0-.167-.4l-5.561-5.56a.625.625,0,0,0-.4-.167H78.934Z" transform="translate(0 0)" fill="#3b3659" stroke="#3b3659" stroke-width="0.5"/>
    </g>
    <g id="_x32_5_Paper-2" data-name="_x32_5_Paper" transform="translate(1357.49 2925.525)">
      <path id="Path_101640-2" data-name="Path 101640" d="M92.415,20.1a.571.571,0,0,1-.571.571h-4.12a.571.571,0,0,1,0-1.142h4.12A.571.571,0,0,1,92.415,20.1Zm-5.974,0a.571.571,0,0,1-.571.571H78.126a.571.571,0,1,1,0-1.142H85.87A.571.571,0,0,1,86.441,20.1Zm-9.474,0a.571.571,0,0,1-.571.571h-.783a.571.571,0,0,1,0-1.142H76.4A.571.571,0,0,1,76.967,20.1Zm15.448,4.343a.571.571,0,0,1-.571.571h-4.12a.571.571,0,0,1,0-1.142h4.12A.571.571,0,0,1,92.415,24.448Zm-5.974,0a.571.571,0,0,1-.571.571H78.126a.571.571,0,1,1,0-1.142H85.87A.571.571,0,0,1,86.441,24.448Zm-9.474,0a.571.571,0,0,1-.571.571h-.783a.571.571,0,0,1,0-1.142H76.4A.571.571,0,0,1,76.967,24.448Zm15.448,4.344a.571.571,0,0,1-.571.571h-4.12a.571.571,0,1,1,0-1.142h4.12A.571.571,0,0,1,92.415,28.791Zm-5.974,0a.571.571,0,0,1-.571.571H78.126a.571.571,0,1,1,0-1.142H85.87A.571.571,0,0,1,86.441,28.791Zm-9.474,0a.571.571,0,0,1-.571.571h-.783a.571.571,0,1,1,0-1.142H76.4A.571.571,0,0,1,76.967,28.791Zm15.448,4.344a.571.571,0,0,1-.571.571h-4.12a.571.571,0,0,1,0-1.142h4.12A.571.571,0,0,1,92.415,33.135Zm-5.974,0a.571.571,0,0,1-.571.571H78.126a.571.571,0,1,1,0-1.142H85.87A.571.571,0,0,1,86.441,33.135Zm-9.474,0a.571.571,0,0,1-.571.571h-.783a.571.571,0,0,1,0-1.142H76.4A.571.571,0,0,1,76.967,33.135Zm15.448,4.343a.571.571,0,0,1-.571.571h-4.12a.571.571,0,0,1,0-1.142h4.12A.571.571,0,0,1,92.415,37.478Zm-5.974,0a.571.571,0,0,1-.571.571H78.126a.571.571,0,1,1,0-1.142H85.87A.571.571,0,0,1,86.441,37.478Zm-9.474,0a.571.571,0,0,1-.571.571h-.783a.571.571,0,0,1,0-1.142H76.4A.571.571,0,0,1,76.967,37.478Z" transform="translate(0 0)" fill="#8450ff" stroke="#8450ff" stroke-width="0.5"/>
    </g>
  </g>
</svg>
