<svg xmlns="http://www.w3.org/2000/svg" width="48.891" height="48.5" viewBox="0 0 48.891 48.5">
  <g id="Group_89638" data-name="Group 89638" transform="translate(-25.97 -28.225)">
    <path id="Path_101415" data-name="Path 101415" d="M54.889,112.892H26.77a.55.55,0,0,1-.55-.55V73.766a.55.55,0,0,1,.55-.55h4.992a.55.55,0,1,1,0,1.1H27.32v37.477h27.57a.55.55,0,1,1,0,1.1Zm16.7-14.742a.55.55,0,0,1-.55-.55V74.316H66.6a.55.55,0,1,1,0-1.1h4.992a.55.55,0,0,1,.55.55V97.6A.55.55,0,0,1,71.593,98.15ZM62.46,74.316H56.369a.55.55,0,1,1,0-1.1H62.46a.55.55,0,1,1,0,1.1Zm-10.233,0H46.136a.55.55,0,1,1,0-1.1h6.091a.55.55,0,1,1,0,1.1Zm-10.233,0H35.9a.55.55,0,0,1,0-1.1h6.091a.55.55,0,1,1,0,1.1Z" transform="translate(0 -39.821)" fill="#3b3659" stroke="#3b3659" stroke-width="0.5"/>
    <path id="Path_101416" data-name="Path 101416" d="M33.833,39.414a2.624,2.624,0,0,1-2.621-2.621V30.08a1.607,1.607,0,0,1,1.605-1.605h2.031a1.607,1.607,0,0,1,1.605,1.605v6.713A2.624,2.624,0,0,1,33.833,39.414Zm-1.015-9.839a.506.506,0,0,0-.506.506v6.713a1.521,1.521,0,0,0,3.042,0V30.08a.506.506,0,0,0-.506-.506Zm11.248,9.839a2.624,2.624,0,0,1-2.621-2.621V30.08a1.607,1.607,0,0,1,1.605-1.605h2.031a1.607,1.607,0,0,1,1.605,1.605v6.713A2.624,2.624,0,0,1,44.065,39.414ZM43.05,29.575a.506.506,0,0,0-.506.506v6.713a1.521,1.521,0,1,0,3.042,0V30.08a.506.506,0,0,0-.506-.506ZM54.3,39.414a2.624,2.624,0,0,1-2.621-2.621V30.08a1.607,1.607,0,0,1,1.605-1.605h2.031a1.607,1.607,0,0,1,1.605,1.605v6.713A2.624,2.624,0,0,1,54.3,39.414Zm-1.015-9.839a.506.506,0,0,0-.506.506v6.713a1.521,1.521,0,0,0,3.042,0V30.08a.506.506,0,0,0-.506-.506ZM64.53,39.414a2.624,2.624,0,0,1-2.621-2.621V30.08a1.607,1.607,0,0,1,1.605-1.605h2.031a1.607,1.607,0,0,1,1.605,1.605v6.713A2.624,2.624,0,0,1,64.53,39.414Zm-1.015-9.839a.506.506,0,0,0-.506.506v6.713a1.521,1.521,0,0,0,3.042,0V30.08a.506.506,0,0,0-.506-.506Zm8.078,13.484H26.77a.55.55,0,1,1,0-1.1H71.593a.55.55,0,1,1,0,1.1ZM45.667,60.719H42.232a1.488,1.488,0,0,1-1.487-1.487V55.8a1.489,1.489,0,0,1,1.487-1.487h3.436A1.488,1.488,0,0,1,47.154,55.8v3.436A1.489,1.489,0,0,1,45.667,60.719Zm-3.436-5.31a.388.388,0,0,0-.387.387v3.436a.388.388,0,0,0,.387.387h3.436a.388.388,0,0,0,.387-.387V55.8a.388.388,0,0,0-.387-.387Zm3.436,14.212H42.232a1.488,1.488,0,0,1-1.487-1.487V64.7a1.489,1.489,0,0,1,1.487-1.487h3.436A1.488,1.488,0,0,1,47.154,64.7v3.436A1.489,1.489,0,0,1,45.667,69.622Zm-3.436-5.31a.388.388,0,0,0-.387.387v3.436a.388.388,0,0,0,.387.387h3.436a.388.388,0,0,0,.387-.387V64.7a.388.388,0,0,0-.387-.387Zm26.744,3.907a.55.55,0,0,1-.55-.55V65.026a5.517,5.517,0,0,0-11.033,0v2.643a.55.55,0,1,1-1.1,0V65.026a6.616,6.616,0,0,1,13.232,0v2.643A.55.55,0,0,1,68.976,68.219Z" transform="translate(0 0)" fill="#3b3659" stroke="#3b3659" stroke-width="0.5"/>
    <path id="Path_101417" data-name="Path 101417" d="M297.929,282.321a.55.55,0,0,1-.55-.55v-.939a1.216,1.216,0,0,0-2.432,0v.939a.55.55,0,0,1-1.1,0v-.939a2.316,2.316,0,0,1,4.631,0v.939A.55.55,0,0,1,297.929,282.321Zm4.815,11.23H289.582a1.293,1.293,0,0,1-1.292-1.292v-1.3a1.293,1.293,0,0,1,1.292-1.292h13.162a1.293,1.293,0,0,1,1.292,1.292v1.3A1.293,1.293,0,0,1,302.744,293.551Zm-13.162-2.784a.2.2,0,0,0-.192.192v1.3a.2.2,0,0,0,.192.192h13.162a.2.2,0,0,0,.192-.192v-1.3a.2.2,0,0,0-.192-.192Z" transform="translate(-233.253 -222.548)" fill="#8450ff" stroke="#8450ff" stroke-width="0.5"/>
    <path id="Path_101418" data-name="Path 101418" d="M95.778,213.533a11.7,11.7,0,1,1,11.7-11.7A11.714,11.714,0,0,1,95.778,213.533Zm0-22.3a10.6,10.6,0,1,0,10.6,10.6A10.613,10.613,0,0,0,95.778,191.23Zm-17.242-2.356H75.1a1.489,1.489,0,0,1-1.487-1.487v-3.436a1.488,1.488,0,0,1,1.487-1.487h3.436a1.489,1.489,0,0,1,1.487,1.487v3.436A1.489,1.489,0,0,1,78.536,188.875Zm-3.436-5.31a.388.388,0,0,0-.387.387v3.436a.388.388,0,0,0,.387.387h3.436a.388.388,0,0,0,.387-.387v-3.436a.388.388,0,0,0-.387-.387Zm13.9,5.31H85.564a1.489,1.489,0,0,1-1.487-1.487v-3.436a1.488,1.488,0,0,1,1.487-1.487H89a1.489,1.489,0,0,1,1.487,1.487v3.436A1.488,1.488,0,0,1,89,188.875Zm-3.436-5.31a.388.388,0,0,0-.387.387v3.436a.388.388,0,0,0,.387.387H89a.388.388,0,0,0,.387-.387v-3.436a.388.388,0,0,0-.387-.387Zm13.9,5.31H96.028a1.489,1.489,0,0,1-1.487-1.487v-3.436a1.488,1.488,0,0,1,1.487-1.487h3.436a1.489,1.489,0,0,1,1.487,1.487v3.436A1.488,1.488,0,0,1,99.464,188.875Zm-3.436-5.31a.388.388,0,0,0-.387.387v3.436a.388.388,0,0,0,.387.387h3.436a.388.388,0,0,0,.387-.387v-3.436a.388.388,0,0,0-.387-.387Zm-27.956,5.31H64.636a1.489,1.489,0,0,1-1.487-1.487v-3.436a1.489,1.489,0,0,1,1.487-1.487h3.436a1.489,1.489,0,0,1,1.487,1.487v3.436A1.489,1.489,0,0,1,68.072,188.875Zm-3.436-5.31a.388.388,0,0,0-.387.387v3.436a.388.388,0,0,0,.387.387h3.436a.388.388,0,0,0,.387-.387v-3.436a.388.388,0,0,0-.387-.387Zm3.436,14.212H64.636a1.489,1.489,0,0,1-1.487-1.487v-3.436a1.489,1.489,0,0,1,1.487-1.487h3.436a1.489,1.489,0,0,1,1.487,1.487v3.436A1.489,1.489,0,0,1,68.072,197.777Zm-3.436-5.31a.388.388,0,0,0-.387.387v3.436a.388.388,0,0,0,.387.387h3.436a.388.388,0,0,0,.387-.387v-3.436a.388.388,0,0,0-.387-.387Zm3.436,14.212H64.636a1.489,1.489,0,0,1-1.487-1.487v-3.436a1.489,1.489,0,0,1,1.487-1.487h3.436a1.489,1.489,0,0,1,1.487,1.487v3.436A1.489,1.489,0,0,1,68.072,206.679Zm-3.436-5.31a.388.388,0,0,0-.387.387v3.436a.388.388,0,0,0,.387.387h3.436a.388.388,0,0,0,.387-.387v-3.436a.388.388,0,0,0-.387-.387Z" transform="translate(-32.868 -137.057)" fill="#8450ff" stroke="#8450ff" stroke-width="0.5"/>
    <path id="Path_101419" data-name="Path 101419" d="M77.826,363.21a.542.542,0,0,1-.072,0,.549.549,0,0,1-.4-.27l-.5-.873a.55.55,0,0,1,.952-.55l.146.253,1.3-1.3a.55.55,0,0,1,.778.777l-1.81,1.81A.55.55,0,0,1,77.826,363.21Z" transform="translate(-44.993 -295.338)" fill="#3b3659"/>
  </g>
</svg>
