<svg xmlns="http://www.w3.org/2000/svg" width="48" height="48" viewBox="0 0 48 48">
  <g id="Outline" transform="translate(-2 -2)">
    <path id="Path_101434" data-name="Path 101434" d="M46,2H31.6a4,4,0,0,0-4,4V28.4a4,4,0,0,0,4,4H36V43.6a.8.8,0,0,1-.8.8H16.8a.8.8,0,0,1-.8-.8V32.4h4.4a4,4,0,0,0,4-4V6a4,4,0,0,0-4-4H6A4,4,0,0,0,2,6V28.4a4,4,0,0,0,4,4h4.4V46a4,4,0,0,0,4,4H37.6a4,4,0,0,0,4-4V32.4H46a4,4,0,0,0,4-4V6A4,4,0,0,0,46,2ZM20.4,3.6A2.4,2.4,0,0,1,22.8,6V28.4a2.4,2.4,0,0,1-2.4,2.4H12.032l2.357-1.813A7.24,7.24,0,0,0,17.2,23.28V11.12a7.24,7.24,0,0,0-2.811-5.706L12.032,3.6ZM9.407,30.8H6a2.4,2.4,0,0,1-2.4-2.4V6A2.4,2.4,0,0,1,6,3.6H9.407l4.007,3.082A5.631,5.631,0,0,1,15.6,11.12V23.28a5.631,5.631,0,0,1-2.186,4.438ZM40,46a2.4,2.4,0,0,1-2.4,2.4H14.4A2.4,2.4,0,0,1,12,46V32.4h2.4V43.6A2.4,2.4,0,0,0,16.8,46H35.2a2.4,2.4,0,0,0,2.4-2.4V32.4H40Zm8.4-17.6A2.4,2.4,0,0,1,46,30.8H31.6a2.4,2.4,0,0,1-2.4-2.4V6a2.4,2.4,0,0,1,2.4-2.4H46A2.4,2.4,0,0,1,48.4,6Z" fill="#3b3659"/>
    <path id="Path_101435" data-name="Path 101435" d="M51.6,6H40.4A2.4,2.4,0,0,0,38,8.4V18a2.4,2.4,0,0,0,2.4,2.4H51.6A2.4,2.4,0,0,0,54,18V8.4A2.4,2.4,0,0,0,51.6,6Zm.8,12a.8.8,0,0,1-.8.8H40.4a.8.8,0,0,1-.8-.8V8.4a.8.8,0,0,1,.8-.8H51.6a.8.8,0,0,1,.8.8Z" transform="translate(-7.2 -0.8)" fill="#8450ff"/>
    <path id="Path_101436" data-name="Path 101436" d="M47.64,10.5a2.622,2.622,0,0,0-1.44.426,2.64,2.64,0,0,0-4.08,2.21c-.053,1.907,1.081,3.515,3.367,4.782a1.473,1.473,0,0,0,1.42,0c2.287-1.266,3.421-2.874,3.368-4.759A2.652,2.652,0,0,0,47.64,10.5ZM46.2,16.48c-1.7-.96-2.513-2.038-2.48-3.323A1.05,1.05,0,0,1,44.76,12.1a1.028,1.028,0,0,1,.81.393.828.828,0,0,0,1.254,0,1.028,1.028,0,0,1,.816-.393,1.056,1.056,0,0,1,1.04,1.081c.033,1.262-.778,2.342-2.48,3.3ZM41.4,24.5a2.4,2.4,0,1,0,2.4,2.4,2.4,2.4,0,0,0-2.4-2.4Zm0,3.2a.8.8,0,1,1,.8-.8A.8.8,0,0,1,41.4,27.7ZM51,24.5a2.4,2.4,0,1,0,2.4,2.4A2.4,2.4,0,0,0,51,24.5Zm0,3.2a.8.8,0,1,1,.8-.8A.8.8,0,0,1,51,27.7Z" transform="translate(-7.4 -1.7)" fill="#8450ff"/>
  </g>
</svg>
