<svg xmlns="http://www.w3.org/2000/svg" width="48" height="38.589" viewBox="0 0 48 38.589">
  <g id="Group_89441" data-name="Group 89441" transform="translate(-338.442 -3104)">
    <path id="heart-attack" d="M42.386,10.145a13.092,13.092,0,0,0-4.4-6.977A11.573,11.573,0,0,0,30.719.5,10.737,10.737,0,0,0,25.11,2.083a13.414,13.414,0,0,0-3.7,3.367A11.622,11.622,0,0,0,12.111.5,11.568,11.568,0,0,0,4.844,3.168a13.1,13.1,0,0,0-4.4,6.976c-.775,3.042-.926,7.9,2.765,13.789,3.416,5.447,9.337,10.495,17.6,15a1.254,1.254,0,0,0,1.2,0c8.265-4.507,14.188-9.555,17.605-15,3.692-5.885,3.543-10.747,2.767-13.789ZM21.413,36.4C11.619,30.951,6.773,25.545,4.469,21.049,1.018,14.693,6.735,26.932,3.4,18.54a13.689,13.689,0,0,1-.518-7.775C4.044,6.2,7.84,3.009,12.111,3.009c3.231,0,6.153,1.888,8.228,5.314a1.254,1.254,0,0,0,1.073.6h0a1.255,1.255,0,0,0,1.073-.6c2.077-3.427,5-5.315,8.233-5.315,4.273,0,8.071,3.189,9.235,7.755.808,3.167,1.825,14.3-18.542,25.637Zm0,0" transform="translate(343.608 3103.5)" fill="#3b3659"/>
    <path id="lifeline" d="M37.8,145.5a.886.886,0,0,1-.886.886H28.561l-1.75,2.2a.886.886,0,0,1-1.457-.1l-1.689-2.867-2.27,10a.886.886,0,0,1-.864.69h-.018a.886.886,0,0,1-.854-.724l-2.367-12.74-3.328,7.3a.886.886,0,0,1-1.6.033l-1.827-3.6H.886a.886.886,0,0,1,0-1.772h10.2a.886.886,0,0,1,.79.485l1.241,2.444,3.729-8.176a.886.886,0,0,1,1.677.206l2.1,11.278,1.814-7.991a.886.886,0,0,1,1.627-.254l2.168,3.679,1.213-1.528a.886.886,0,0,1,.694-.335h8.783a.886.886,0,0,1,.886.886Z" transform="translate(338.442 2975.385)" fill="#845fff"/>
  </g>
</svg>
