<svg xmlns="http://www.w3.org/2000/svg" width="48" height="40.475" viewBox="0 0 48 40.475">
  <g id="Group_89693" data-name="Group 89693" transform="translate(-396.99 -2694)">
    <path id="Path_101497" data-name="Path 101497" d="M63.361,47.015l-3.38-3.38A1.331,1.331,0,1,0,58.1,45.517l1,1H51.023V42.809A15.066,15.066,0,0,0,35.974,27.76H26.758a1.331,1.331,0,1,0,0,2.662h9.216A12.4,12.4,0,0,1,48.36,42.809V46.52H45.819V42.961a10.009,10.009,0,0,0-10-10H25.749a10.009,10.009,0,0,0-10,10V54.136a14.115,14.115,0,0,0,14.1,14.1h6.124A15.066,15.066,0,0,0,51.023,53.187v-4h8.288L58.1,50.394a1.331,1.331,0,1,0,1.882,1.883l3.38-3.38a1.331,1.331,0,0,0,0-1.882Zm-15,6.172A12.4,12.4,0,0,1,35.974,65.573H29.85A11.45,11.45,0,0,1,18.413,54.137V42.962a7.344,7.344,0,0,1,7.335-7.335H35.821a7.344,7.344,0,0,1,7.335,7.335V46.52H40.615v-2.7a5.66,5.66,0,0,0-5.654-5.654H26.609a5.66,5.66,0,0,0-5.654,5.654v9.724a9.5,9.5,0,0,0,9.486,9.486h5.381a10.009,10.009,0,0,0,10-10V49.182H48.36v4ZM32.093,46.52a5.654,5.654,0,0,0,0,11.308h2.868a5.66,5.66,0,0,0,5.654-5.654V49.182h2.541v3.852a7.344,7.344,0,0,1-7.335,7.335H30.441a6.831,6.831,0,0,1-6.824-6.824V43.821a3,3,0,0,1,2.992-2.992h8.353a3,3,0,0,1,2.992,2.992v2.7Zm5.86,2.662v2.992a3,3,0,0,1-2.992,2.992H32.093a2.992,2.992,0,0,1,0-5.984Z" transform="translate(381.239 2666.24)" fill="#3b3659"/>
    <path id="Path_101498" data-name="Path 101498" d="M66.783,49.894l-3.38-3.38A1.331,1.331,0,1,0,61.521,48.4l1,1H37.58v2.662H62.733l-1.212,1.212A1.331,1.331,0,1,0,63.4,55.156l3.38-3.38a1.331,1.331,0,0,0,0-1.882Z" transform="translate(377.817 2663.403)" fill="#8450ff"/>
  </g>
</svg>
