<svg xmlns="http://www.w3.org/2000/svg" width="48.528" height="45.303" viewBox="0 0 48.528 45.303">
  <g id="Group_89690" data-name="Group 89690" transform="translate(-1.736 -4.947)">
    <path id="Path_101483" data-name="Path 101483" d="M25.4,32.262l-5.6,6.4a.8.8,0,0,0,.6,1.327H22v11.2a.8.8,0,0,0,.8.8h6.4a.8.8,0,0,0,.8-.8V39.99h1.6a.8.8,0,0,0,.6-1.327l-5.6-6.4A.827.827,0,0,0,25.4,32.262Zm3.8,6.127a.8.8,0,0,0-.8.8v11.2H23.6V39.19a.8.8,0,0,0-.8-.8h-.637L26,34l3.837,4.385ZM2.071,44.32a.8.8,0,0,0,.729.47H4.4v6.4a.8.8,0,0,0,.8.8h6.4a.8.8,0,0,0,.8-.8v-6.4H14a.8.8,0,0,0,.6-1.327L9,37.062a.826.826,0,0,0-1.2,0l-5.6,6.4a.8.8,0,0,0-.127.858ZM8.4,38.8l3.837,4.385H11.6a.8.8,0,0,0-.8.8v6.4H6v-6.4a.8.8,0,0,0-.8-.8H4.563ZM49.929,34.72a.8.8,0,0,0-.126-.858l-5.6-6.4a.826.826,0,0,0-1.2,0l-5.6,6.4A.8.8,0,0,0,38,35.19h1.6v16a.8.8,0,0,0,.8.8h6.4a.8.8,0,0,0,.8-.8v-16h1.6A.8.8,0,0,0,49.929,34.72ZM46.8,33.59a.8.8,0,0,0-.8.8v16H41.2v-16a.8.8,0,0,0-.8-.8h-.637L43.6,29.2l3.837,4.385ZM10.946,17.448a3.184,3.184,0,0,0,2.236.91h.042a3.205,3.205,0,0,0,2.2-5.5,3.249,3.249,0,0,0-2.278-.91,3.2,3.2,0,0,0-2.2,5.5Zm1.087-3.417a1.6,1.6,0,0,1,1.13-.485h.022a1.606,1.606,0,0,1,.02,3.212,1.563,1.563,0,0,1-1.142-.455,1.608,1.608,0,0,1-.03-2.272Z" transform="translate(0 -1.99)" fill="#3b3659" stroke="#3b3659" stroke-width="0.5"/>
    <path id="Path_101484" data-name="Path 101484" d="M11.672,6.847l.014,1.036q-.268.1-.526.226l-.742-.723a.859.859,0,0,0-.569-.227.8.8,0,0,0-.563.242l-2,2.058A.8.8,0,0,0,7.3,10.588l.742.722q-.118.261-.212.531l-1.036.014a.8.8,0,0,0-.79.81l.037,2.872a.8.8,0,0,0,.8.79h.01l1.036-.014c.067.178.143.354.226.526l-.723.742A.8.8,0,0,0,7.4,18.713l2.058,2a.8.8,0,0,0,1.131-.014l.722-.742q.26.118.531.212l.014,1.036a.8.8,0,0,0,.8.79h.01l2.872-.037a.8.8,0,0,0,.79-.81l-.014-1.036q.268-.1.526-.226l.742.723a.907.907,0,0,0,.569.227.8.8,0,0,0,.563-.242l2-2.058a.8.8,0,0,0-.014-1.131l-.742-.722q.118-.26.212-.531l1.036-.014a.8.8,0,0,0,.79-.81l-.037-2.873a.8.8,0,0,0-.81-.79l-1.036.014q-.1-.268-.226-.526l.723-.742A.8.8,0,0,0,20.6,9.285l-2.058-2a.8.8,0,0,0-1.131.014l-.722.742q-.261-.118-.531-.212l-.014-1.036a.8.8,0,0,0-.242-.563A.737.737,0,0,0,15.334,6l-2.873.037a.8.8,0,0,0-.79.81Zm1.621,1.6-.01-.825,1.273-.017.01.825a.8.8,0,0,0,.61.766,4.917,4.917,0,0,1,1.278.51.8.8,0,0,0,.971-.136L18,8.984l.912.888-.576.59a.8.8,0,0,0-.11.974,4.909,4.909,0,0,1,.542,1.264.786.786,0,0,0,.782.59l.825-.01.017,1.273-.825.01a.8.8,0,0,0-.766.61,4.917,4.917,0,0,1-.51,1.278.8.8,0,0,0,.136.971l.59.575-.888.912-.59-.576a.8.8,0,0,0-.974-.11,4.909,4.909,0,0,1-1.264.542.8.8,0,0,0-.59.782l.01.825-1.273.017-.01-.825a.8.8,0,0,0-.61-.766,4.917,4.917,0,0,1-1.278-.51.8.8,0,0,0-.971.136l-.575.59-.912-.888.576-.59a.8.8,0,0,0,.11-.974A4.909,4.909,0,0,1,9.234,15.3a.8.8,0,0,0-.772-.59h-.01l-.825.01L7.61,13.446l.825-.01a.8.8,0,0,0,.766-.61,4.917,4.917,0,0,1,.51-1.278.8.8,0,0,0-.136-.971L8.986,10l.888-.912.59.576a.8.8,0,0,0,.974.11A4.909,4.909,0,0,1,12.7,9.233a.8.8,0,0,0,.59-.782ZM31.6,14a8,8,0,1,0,8-8A8.009,8.009,0,0,0,31.6,14Zm8-6.4A6.4,6.4,0,1,1,33.2,14,6.407,6.407,0,0,1,39.6,7.6Z" transform="translate(-0.8 -0.799)" fill="#8450ff" stroke="#8450ff" stroke-width="0.5"/>
    <path id="Path_101485" data-name="Path 101485" d="M34.227,12.814l1.718,1.761-.407,2.5a.8.8,0,0,0,1.177.83L38.8,16.748,40.885,17.9a.8.8,0,0,0,1.177-.83l-.407-2.5,1.718-1.761a.8.8,0,0,0-.452-1.35l-2.342-.358L39.524,8.859a.8.8,0,0,0-1.448,0l-1.054,2.247-2.342.358a.8.8,0,0,0-.453,1.35Zm3.458-.19a.8.8,0,0,0,.6-.451l.512-1.09.512,1.09a.8.8,0,0,0,.6.451l1.225.187-.913.935a.8.8,0,0,0-.217.687l.207,1.269-1.03-.57a.8.8,0,0,0-.774,0l-1.03.57.207-1.269a.8.8,0,0,0-.217-.687l-.913-.935,1.225-.187Z" transform="translate(0)" fill="#3b3659"/>
  </g>
</svg>
