<svg xmlns="http://www.w3.org/2000/svg" width="49.845" height="44.313" viewBox="0 0 49.845 44.313">
  <g id="Group_89691" data-name="Group 89691" transform="translate(0 -3.678)">
    <path id="Path_101489" data-name="Path 101489" d="M48.429,17.938a7.864,7.864,0,0,1,7.819,7.9m-7.819,7.9a7.864,7.864,0,0,0,7.819-7.9M33.1,8.028a6.535,6.535,0,0,1,11.381,6.426M33.1,43.641a6.535,6.535,0,0,0,11.381-6.426M56.248,25.834Zm0,0Z" transform="translate(-7.248 0)" fill="none" stroke="#2a3c65" stroke-linecap="round" stroke-linejoin="round" stroke-width="1.5"/>
    <path id="Path_101490" data-name="Path 101490" d="M28.716,11.2a2.779,2.779,0,0,1,5.342-1.084m0,31.432a2.882,2.882,0,0,1-2.555,1.7,2.776,2.776,0,0,1-2.787-2.787M42.5,21.886a4.092,4.092,0,0,1,2.787,3.948A4.272,4.272,0,0,1,42.5,29.783M8.819,17.938A7.864,7.864,0,0,0,1,25.834m7.819,7.9A7.864,7.864,0,0,1,1,25.834M24.148,8.028a6.535,6.535,0,0,0-11.381,6.426M24.148,43.641a6.535,6.535,0,0,1-11.381-6.426M1,25.834Zm0,0Z" transform="translate(0 0)" fill="none" stroke="#3b3659" stroke-linecap="round" stroke-linejoin="round" stroke-width="2"/>
    <path id="Path_101491" data-name="Path 101491" d="M43.658,33.268a6.921,6.921,0,0,1,.929,3.329,6.542,6.542,0,0,1-6.5,6.5h-.542a6.512,6.512,0,0,1-12.465-2.632A6.512,6.512,0,0,1,12.613,43.1h-.542a6.542,6.542,0,0,1-6.5-6.5A6.165,6.165,0,0,1,6.5,33.268,7.807,7.807,0,0,1,6.342,18.4a6.921,6.921,0,0,1-.929-3.329,6.542,6.542,0,0,1,6.5-6.5h.542A6.474,6.474,0,0,1,18.419,4.7a6.542,6.542,0,0,1,6.5,6.5A6.512,6.512,0,0,1,37.387,8.571h.542a6.542,6.542,0,0,1,6.5,6.5A6.165,6.165,0,0,1,43.5,18.4a7.792,7.792,0,0,1,5.342,7.432A7.659,7.659,0,0,1,43.658,33.268Z" transform="translate(0 -0.001)" fill="none" stroke="#3b3659" stroke-linecap="round" stroke-linejoin="round" stroke-width="2"/>
    <path id="Path_101492" data-name="Path 101492" d="M22.368,12.287A2.779,2.779,0,0,0,17.026,11.2m0,31.432a2.882,2.882,0,0,0,2.555,1.7,2.776,2.776,0,0,0,2.787-2.787M8.587,22.971A4.092,4.092,0,0,0,5.8,26.919a4.272,4.272,0,0,0,2.787,3.948" transform="translate(-1.084 -1.085)" fill="none" stroke="#8450ff" stroke-linecap="round" stroke-linejoin="round" stroke-width="2"/>
    <path id="Path_101494" data-name="Path 101494" d="M37.045,29.348c0,5.11-7.123,8.826-7.123,8.826S22.8,34.381,22.8,29.348A3.965,3.965,0,0,1,26.748,25.4a3.818,3.818,0,0,1,3.174,1.626A3.818,3.818,0,0,1,33.1,25.4,3.965,3.965,0,0,1,37.045,29.348Z" transform="translate(-4.923 -4.675)" fill="none" stroke="#8450ff" stroke-linecap="round" stroke-linejoin="round" stroke-width="2"/>
    <line id="Line_94" data-name="Line 94" y2="7.277" transform="translate(25 11.202)" fill="none" stroke="#2a3c65" stroke-linecap="round" stroke-linejoin="round" stroke-width="1.5"/>
    <line id="Line_95" data-name="Line 95" y1="3.871" transform="translate(25 36.596)" fill="none" stroke="#2a3c65" stroke-linecap="round" stroke-linejoin="round" stroke-width="1.5"/>
  </g>
</svg>
