<svg xmlns="http://www.w3.org/2000/svg" width="48" height="33.574" viewBox="0 0 48 33.574">
  <g id="Group_89692" data-name="Group 89692" transform="translate(-1239 -2708.425)">
    <path id="Path_101495" data-name="Path 101495" d="M8.019,27.481a.728.728,0,0,1-1,.23L4.029,25.841A1,1,0,1,0,2.97,27.536L5.954,29.4a2.678,2.678,0,0,0,2.639.136l1.2,1.8a4.274,4.274,0,0,0,.652.754l-.525.752a2.786,2.786,0,0,0,1.669,4.32,2.808,2.808,0,0,0,1.137,2.807,2.769,2.769,0,0,0,2.093.463,2.9,2.9,0,0,0,.445-.126,2.733,2.733,0,0,0,2.479,1.548,2.8,2.8,0,0,0,1.079-.234,2.786,2.786,0,0,0,4.742.28l.743-1.062L27.346,42.8a3.06,3.06,0,0,0,4.234-.961,3.112,3.112,0,0,0,.4-1,3.07,3.07,0,0,0,4.635-2.135,3.067,3.067,0,0,0,3.753-2.3,3.082,3.082,0,0,0-.674-2.644,2.988,2.988,0,0,0,.863-.9,3.076,3.076,0,0,0-.969-4.225L27.594,21.126a1,1,0,0,0-1.326.24l-1.226,1.605a2.5,2.5,0,0,1-2.6.921c3.464-5.425-1.011,1.583,2.2-3.445.937-1.513-.515-2.965-1.119-1.99l-.581.938-2.794,4.371a1,1,0,0,0,.26,1.351,4.5,4.5,0,0,0,6.217-.931L27.3,23.3l11.215,7.025a1.072,1.072,0,0,1,.344,1.475,1.07,1.07,0,0,1-1.415.357L33.227,29.5a1,1,0,1,0-1.065,1.69l4.222,2.663s.008.009.013.012l1.445.907a1.175,1.175,0,0,1,.577,1.2,1.063,1.063,0,0,1-1.609.665l-1.57-.979s0-.006-.009-.008l-4.358-2.86a1,1,0,0,0-1.1,1.671c8.935,5.865.785.515,4.375,2.875l.022.012a1.064,1.064,0,0,1,.322,1.446,1.109,1.109,0,0,1-1.464.347l-2.4-1.514h0l-2.806-1.959A1,1,0,1,0,26.671,37.3l2.849,1.99.02.01s0,0,.006,0a1.065,1.065,0,0,1-1.118,1.812l-3.04-1.964a2.756,2.756,0,0,0-2.151-3.819,2.749,2.749,0,0,0-2.476-2.894,2.765,2.765,0,0,0-4.207-2.369,2.757,2.757,0,0,0-4.632-.094l-.312.446a2.318,2.318,0,0,1-.147-.189l-1.45-2.172,6.145-9.8,2.775.146a1,1,0,1,0,.1-2l-2.457-.129a2.711,2.711,0,0,0-1.233-1.87l-2.984-1.869A1,1,0,1,0,11.3,14.237l2.984,1.869a.73.73,0,0,1,.23,1Zm15.593,10.67v0a.8.8,0,0,1-.143.4l-1.539,2.2a.8.8,0,0,1-1.307-.914l1.539-2.2a.8.8,0,0,1,1.115-.2.792.792,0,0,1,.335.713Zm-2.365-2.889v0a.793.793,0,0,1-.14.4l-2.7,3.853a.794.794,0,0,1-1.106.2.8.8,0,0,1-.2-1.115l2.7-3.858a.8.8,0,0,1,1.116-.182.771.771,0,0,1,.327.7Zm-2.811-3.453a.8.8,0,0,1,.343.723h0a.761.761,0,0,1-.14.392l-.462.66c0,.007-.012.012-.017.02l-3.18,4.538a.791.791,0,0,1-1.1.195.81.81,0,0,1-.2-1.114l.789-1.124c.012-.017.029-.028.04-.045l1.754-2.512,1.072-1.529a.8.8,0,0,1,1.105-.2Zm-3.763-.884a.8.8,0,0,1,.336.713v0a1.714,1.714,0,0,0,0,.2l-.539.772L12.842,34.93a.795.795,0,1,1-1.281-.94l2-2.863a.8.8,0,0,1,1.114-.2Z" transform="translate(1236.525 2698.722)" fill="#3b3659"/>
    <path id="Path_101496" data-name="Path 101496" d="M40.557,29.615a3.005,3.005,0,0,0-.969-.976L27.594,21.126a1,1,0,0,0-1.326.24l-1.226,1.605a2.5,2.5,0,0,1-2.6.921c3.464-5.425-1.011,1.583,2.2-3.445l.581-.939a2.87,2.87,0,0,1,1.546-1.216l6.157-2.015a5.888,5.888,0,0,1,2.457-.246l1.233.143,6.06,9.669a7.849,7.849,0,0,1-1.243,2.01,1,1,0,0,0,1.524,1.294,9.858,9.858,0,0,0,1.276-1.939,2.746,2.746,0,0,0,.93.183,2.7,2.7,0,0,0,1.441-.415l3.4-2.127a1,1,0,1,0-1.061-1.694l-3.4,2.128a.729.729,0,0,1-1-.223L38.045,14.682a.73.73,0,0,1,.23-1l3.4-2.127a1,1,0,0,0-1.061-1.7l-3.4,2.127a2.718,2.718,0,0,0-1.262,2.1,7.978,7.978,0,0,0-3.636.29l-6.166,2.018a4.871,4.871,0,0,0-2.624,2.064l-.581.938-2.794,4.371a1,1,0,0,0,.26,1.351,4.5,4.5,0,0,0,6.217-.931L27.3,23.3l11.215,7.025a1.046,1.046,0,0,1,.345.346C39.083,31.015,41.186,30.607,40.557,29.615Z" transform="translate(1236.525 2698.722)" fill="#8450ff"/>
  </g>
</svg>
